{
.appVersion = "3129";
.formatVersion = 3;
axes = (
{
name = wght;
tag = wght;
}
);
customParameters = (
{
name = "Write lastChange";
value = 0;
},
{
name = "Use Typo Metrics";
value = 1;
},
{
name = fsType;
value = (
);
}
);
date = "2022-02-27 10:52:09 +0000";
familyName = "Edu NSW ACT Foundation";
featurePrefixes = (
{
automatic = 1;
code = "languagesystem DFLT dflt;
";
name = Languagesystems;
}
);
features = (
{
automatic = 1;
code = "feature c2sc;
feature smcp;
feature ss01;
";
tag = aalt;
},
{
automatic = 1;
code = "sub A by a.sc;
sub B by b.sc;
sub C by c.sc;
sub D by d.sc;
sub E by e.sc;
sub F by f.sc;
sub G by g.sc;
sub H by h.sc;
sub I by i.sc;
sub J by j.sc;
sub K by k.sc;
sub L by l.sc;
sub M by m.sc;
sub N by n.sc;
sub O by o.sc;
sub P by p.sc;
sub Q by q.sc;
sub R by r.sc;
sub S by s.sc;
sub T by t.sc;
sub U by u.sc;
sub V by v.sc;
sub W by w.sc;
sub X by x.sc;
sub Y by y.sc;
sub Z by z.sc;
sub zero by zero.sc;
sub one by one.sc;
sub two by two.sc;
sub three by three.sc;
sub four by four.sc;
sub five by five.sc;
sub six by six.sc;
sub seven by seven.sc;
sub eight by eight.sc;
sub nine by nine.sc;
sub exclam by exclam.sc;
sub exclamdown by exclamdown.sc;
sub question by question.sc;
sub questiondown by questiondown.sc;
sub asterisk by asterisk.sc;
sub quotedbl by quotedbl.sc;
sub quotesingle by quotesingle.sc;
sub degree by degree.sc;
sub asciicircum by asciicircum.sc;
sub grave by grave.sc;
";
tag = c2sc;
},
{
automatic = 1;
code = "sub a by a.sc;
sub b by b.sc;
sub c by c.sc;
sub d by d.sc;
sub e by e.sc;
sub f by f.sc;
sub g by g.sc;
sub h by h.sc;
sub i by i.sc;
sub j by j.sc;
sub k by k.sc;
sub l by l.sc;
sub m by m.sc;
sub n by n.sc;
sub o by o.sc;
sub p by p.sc;
sub q by q.sc;
sub r by r.sc;
sub s by s.sc;
sub t by t.sc;
sub u by u.sc;
sub v by v.sc;
sub w by w.sc;
sub x by x.sc;
sub y by y.sc;
sub z by z.sc;
sub zero by zero.sc;
sub one by one.sc;
sub two by two.sc;
sub three by three.sc;
sub four by four.sc;
sub five by five.sc;

glyphs = (
{
color = 6;
glyphname = A;
layers = (
{
layerId = m01;
shapes = (
{
closed = 1;
nodes = (
(3,-4,o),
(15,8,o),
(22,24,cs),
(266,583,l),
(296,625,l),
(294,640,o),
(289,650,o),
(270,650,cs),
(253,650,o),
(247,641,o),
(240,626,cs),
(-23,40,ls),
(-33,18,o),
(-28,4,o),
(-13,0,cs)
);
},
{
closed = 1;
nodes = (
(323,329,l),
(315,372,l),
(155,372,l),
(136,329,l)
);
},
{
closed = 1;
nodes = (
(385,2,o),
(390,16,o),
(387,34,cs),
(296,625,l),
(258,586,l),
(337,28,ls),
(339,12,o),
(345,-2,o),
(366,0,cs)
);
}
);
vertWidth = 0;
width = 424;
},
{
layerId = m002;
shapes = (
{
closed = 1;
nodes = (
(41,-7,o),
(72,3,o),
(85,33,cs),
(282,502,l),
(340,619,l),
(336,639,o),
(320,650,o),
(292,650,cs),
(261,650,o),
(252,639,o),
(242,616,cs),
(-6,66,ls),
(-19,37,o),
(-5,11,o),
(18,2,cs)
);
},
{
closed = 1;
nodes = (
(346,247,l),
(335,327,l),
(167,327,l),
(133,247,l)
);
},
{
closed = 1;
nodes = (
(419,4,o),
(432,26,o),
(427,61,cs),
(340,619,l),
(277,502,l),
(334,49,ls),
(339,12,o),
(359,-5,o),
(391,0,cs)
);
}
);
vertWidth = 0;
width = 482;
},
{
associatedMasterId = m01;
layerId = "CC05ECD8-6904-4D4D-92AC-3DF3C05EEB87";
name = background;
shapes = (
{
closed = 1;
nodes = (
(294,625,ls),
(298,636,o),
(289,650,o),
(270,650,cs),
(248,650,o),
(247,639,o),
(241,625,cs),
(-26,32,ls),
(-35,12,o),
(-22,0,o),
(-7,0,cs),
(13,0,o),
(18,7,o),
(25,25,cs),
(293,619,l)
);
},
{
closed = 1;
nodes = (
(308,327,l),
(300,372,l),
(168,372,l),
(149,327,l)
);
},
{
closed = 1;
nodes = (
(257,563,l),
(341,19,ls),
(342,9,o),
(346,0,o),
(368,0,c),
(386,0,o),
(391,11,o),
(389,26,cs),
(295,635,l)
);
},
{
closed = 1;
nodes = (
(294,625,ls),
(298,636,o),
(289,650,o),
(270,650,cs),
(248,650,o),
(247,639,o),
(241,625,cs),
(-26,32,ls),
(-35,12,o),
(-22,0,o),
(-7,0,cs),
(13,0,o),
(18,7,o),
(25,25,cs),
(293,619,l)
);
},
{
closed = 1;
nodes = (
(308,327,l),
(300,372,l),
(168,372,l),
(149,327,l)
);
},
{
closed = 1;
nodes = (
(257,563,l),
(341,19,ls),
(342,9,o),
(346,0,o),
(368,0,c),
(386,0,o),
(391,11,o),
(389,26,cs),
(295,635,l)
);
}
);
vertWidth = 0;
width = 500;
},
{
associatedMasterId = m002;
layerId = "11FF2575-6263-44BF-95EA-B853E43D43A6";
name = background;
shapes = (
{
closed = 1;
nodes = (
(359,604,l),
(362,630,o),
(340,650,o),
(309,650,cs),
(275,650,o),
(268,636,o),
(260,616,c),
(12,66,ls),
(-1,37,o),
(13,11,o),
(36,2,cs),
(59,-7,o),
(91,3,o),
(103,33,cs),
(295,492,l)
);
},
{
closed = 1;
nodes = (
(328,292,l),
(314,372,l),
(231,372,l),
(197,292,l)
);
},
{
closed = 1;
nodes = (
(289,506,l),
(352,49,ls),
(357,12,o),
(377,-5,o),
(409,0,cs),
(437,4,o),
(450,26,o),
(445,61,cs),
(358,619,l)
);
}
);
vertWidth = 0;
width = 500;
}
);
unicode = 65;
},
{
color = 6;
glyphname = B;
kernLeft = H_left;
layers = (
{
layerId = m01;
shapes = (
{
closed = 1;
nodes = (
(454,594,o),
(338,660,o),
(121,650,c),
(115,604,l),
(312,616,o),
(398,556,o),
(390,488,cs),
(382,423,o),
(344,365,o),
(108,357,c),
(104,321,l),
(395,333,o),
(429,402,o),
(440,484,cs)
);
},
{
closed = 1;
nodes = (
(453,308,o),
(324,373,o),
(91,356,c),
(88,312,l),
(286,330,o),
(399,277,o),
(390,189,cs),
(381,104,o),
(269,46,o),
(59,46,c),
(55,0,l),
(283,0,o),
(428,69,o),
(440,182,cs)
);
},
{
closed = 1;
nodes = (
(29,14,o),
(40,0,o),
(55,0,c),
(81,29,l),
(143,619,l),
(121,650,l),
(104,649,o),
(95,641,o),
(93,623,cs),
(31,31,ls)
);
}
);
vertWidth = 0;
width = 484;
},
{
layerId = m002;
shapes = (
{
closed = 1;
nodes = (
(515,595,o),
(391,660,o),
(162,650,c),
(149,559,l),
(326,569,o),
(405,520,o),
(398,464,cs),
(391,411,o),
(357,368,o),
(148,361,c),
(141,300,l),
(449,312,o),
(484,381,o),
(499,484,cs)
);
},
{
closed = 1;
nodes = (
(511,308,o),
(376,377,o),
(133,360,c),
(125,281,l),
(302,294,o),
(403,256,o),
(395,195,cs),
(387,137,o),
(291,97,o),
(103,97,c),
(95,0,l),
(333,0,o),
(485,69,o),
(498,182,cs)
);
},
{
closed = 1;
nodes = (
(45,23,o),
(65,0,o),
(95,0,c),
(142,29,l),
(202,598,l),
(164,650,l),
(129,650,o),
(111,643,o),
(107,602,cs),
(48,53,ls)
);
}
);
vertWidth = 0;
width = 540;
},
{
associatedMasterId = m01;
layerId = "B07E2D77-9B76-46A5-9AD8-52245F6FEE2E";
name = background;
shapes = (
{
closed = 1;
nodes = (
(396,300,o),
(419,367,o),
(431,475,cs),
(444,593,o),
(337,650,o),
(112,650,c),
(106,604,l),
(292,604,o),
(390,565,o),
(381,477,cs),
(373,405,o),
(365,350,o),
(98,350,c),
(93,300,l)
);
},
{
closed = 1;
nodes = (
(334,0,o),
(409,31,o),
(421,144,cs),
(434,270,o),
(304,350,o),
(94,350,c),
(90,300,l),
(280,300,o),
(380,239,o),
(371,151,cs),
(362,66,o),
(257,46,o),
(47,46,c),
(43,0,l)
);
},
{
closed = 1;
nodes = (
(136,641,o),
(131,650,o),
(112,650,cs),
(95,650,o),
(86,643,o),
(84,623,cs),
(22,31,ls),
(20,14,o),
(31,0,o),
(48,0,cs),
(62,0,o),
(70,9,o),
(72,29,cs),
(134,619,ls)
);
}
);
vertWidth = 0;
width = 500;
},
{
associatedMasterId = m002;
layerId = "41C18EEF-24E8-472E-9093-D1506CBD8D1D";
name = background;
shapes = (
{
closed = 1;
nodes = (
(419,282,o),
(443,384,o),
(452,462,cs),
(461,548,o),
(417,650,o),
(114,650,c),
(103,559,l),
(380,559,o),
(361,494,o),
(357,467,cs),
(352,435,o),
(327,358,o),
(127,358,c),
(119,282,l)
);
},
{
closed = 1;
nodes = (
(348,0,o),
(441,21,o),
(455,151,cs),
(469,285,o),
(309,358,o),
(122,358,c),
(113,282,l),
(290,282,o),
(368,241,o),
(361,168,cs),
(354,99,o),
(281,96,o),
(63,96,c),
(55,0,l)
);
},
{
closed = 1;
nodes = (
(172,643,o),
(140,650,o),
(116,650,cs),
(92,650,o),
(71,642,o),
(67,609,cs),
(8,53,ls),
(5,23,o),
(29,0,o),
(59,0,cs),
(82,0,o),
(104,11,o),
(108,44,cs),
(167,599,ls)
);
}
);
vertWidth = 0;
width = 500;
}
);
unicode = 66;
},
{
color = 6;
glyphname = C;
kernLeft = O_left;
layers = (
{
layerId = m01;
shapes = (
{
closed = 1;
nodes = (
(301,-4,o),
(379,63,o),
(410,125,cs),
(423,151,o),
(425,165,o),
(408,174,cs),
(391,183,o),
(379,172,o),
(368,149,cs),
(342,99,o),
(288,42,o),
(207,42,cs),
(111,42,o),
(67,138,o),
(103,334,cs),
(131,488,o),
(193,600,o),
(307,600,cs),
(355,600,o),
(394,572,o),
(415,557,cs),
(425,549,o),
(443,542,o),
(456,557,cs),
(469,572,o),
(461,587,o),
(452,595,cs),
(424,620,o),
(382,649,o),
(304,649,cs),
(165,649,o),
(86,514,o),
(53,340,cs),
(11,122,o),
(70,-4,o),
(211,-4,cs)
);
}
);
vertWidth = 0;
width = 477;
},
{
layerId = m002;
shapes = (
{
closed = 1;
nodes = (
(335,-4,o),
(418,55,o),
(452,116,cs),
(475,158,o),
(460,191,o),
(435,204,cs),
(410,217,o),
(387,207,o),
(375,181,cs),
(352,132,o),
(304,84,o),
(227,84,cs),
(152,84,o),
(122,163,o),
(143,331,cs),
(161,477,o),
(222,560,o),
(330,560,cs),
(369,560,o),
(410,536,o),
(431,521,cs),
(453,506,o),
(478,509,o),
(494,537,cs),
(511,567,o),
(498,597,o),
(480,610,cs),
(455,629,o),
(384,650,o),
(323,650,cs),
(167,650,o),
(72,546,o),
(42,343,cs),
(11,132,o),
(73,-4,o),
(226,-4,cs)
);
}
);
vertWidth = 0;
width = 509;
},
{
associatedMasterId = m01;
layerId = "52EFED00-95E8-43A2-983B-57F1EBD9EA9F";
name = background;
shapes = (
{
closed = 1;
nodes = (
(469,585,o),
(486,581,o),
(494,598,cs),
(502,614,o),
(492,625,o),
(482,629,cs),
(451,642,o),
(419,649,o),
(332,649,cs),
(177,649,o),
(98,510,o),
(81,338,cs),
(80,318,o),
(69,218,o),
(72,172,cs),
(78,85,o),
(113,-4,o),
(239,-4,cs),
(329,-4,o),
(409,60,o),
(438,119,cs),
(453,152,o),
(456,164,o),
(439,173,cs),
(418,183,o),
(406,171,o),
(395,148,cs),
(369,98,o),
(307,42,o),
(235,42,cs),
(144,42,o),
(126,114,o),
(122,171,cs),
(118,225,o),
(129,310,o),
(134,349,cs),
(147,484,o),
(216,603,o),
(335,603,cs),
(413,603,o),
(437,597,o),
(459,589,cs)
);
}
);
vertWidth = 0;
width = 500;
},
{
associatedMasterId = m002;
layerId = "66F140A1-F38A-450F-A5C8-1AF38644720C";
name = background;
shapes = (
{
closed = 1;
nodes = (
(374,-4,o),
(462,58,o),
(488,127,cs),
(509,188,o),
(512,220,o),
(463,232,cs),
(420,242,o),
(412,214,o),
(398,176,cs),
(381,131,o),
(328,96,o),
(259,96,cs),
(198,96,o),
(175,120,o),
(171,167,cs),
(168,220,o),
(178,310,o),
(184,347,cs),
(195,451,o),
(235,550,o),
(369,550,cs),
(398,550,o),
(447,546,o),
(485,537,cs),
(502,533,o),
(531,537,o),
(541,570,cs),
(550,601,o),
(538,620,o),
(520,628,cs),
(481,645,o),
(413,650,o),
(362,650,cs),
(162,650,o),
(97,497,o),
(82,348,cs),
(78,327,o),
(68,219,o),
(71,168,cs),
(76,104,o),
(117,-4,o),
(265,-4,cs)
);
}
);
vertWidth = 0;
width = 500;
}
);
unicode = 67;
},
{
color = 6;
glyphname = D;
kernLeft = H_left;
kernRight = O_right;
layers = (
{
layerId = m01;
shapes = (
{
closed = 1;
nodes = (
(472,526,o),
(367,650,o),
(179,650,cs),
(123,650,l),
(117,604,l),
(186,604,ls),
(335,604,o),
(419,496,o),
(402,344,cs),
(380,152,o),
(291,46,o),
(117,46,cs),
(62,46,l),
(56,0,l),
(120,0,ls),
(319,0,o),
(427,128,o),
(451,340,cs)
);
},
{
closed = 1;
nodes = (
(29,12,o),
(38,0,o),
(56,0,c),
(81,25,l),
(144,619,l),
(123,650,l),
(101,650,o),
(96,639,o),
(94,623,cs),
(31,27,ls)
);
}
);
vertWidth = 0;
width = 489;
},
{
layerId = m002;
shapes = (
{
closed = 1;
nodes = (
(534,523,o),
(420,650,o),
(228,650,cs),
(157,650,l),
(148,562,l),
(217,562,ls),
(351,562,o),
(432,489,o),
(418,339,cs),
(403,173,o),
(311,89,o),
(168,89,cs),
(110,89,l),
(98,0,l),
(174,0,ls),
(367,0,o),
(493,129,o),
(515,336,cs)
);
},
{
closed = 1;
nodes = (
(47,21,o),
(69,0,o),
(100,0,c),
(150,41,l),
(209,600,l),
(159,650,l),
(127,650,o),
(112,636,o),
(109,609,cs),
(50,49,ls)
);
}
);
vertWidth = 0;
width = 555;
},
{
associatedMasterId = m01;
layerId = "65D45964-139F-42EA-844B-768674C9B4E8";
name = background;
shapes = (
{
closed = 1;
nodes = (
(120,0,ls),
(312,0,o),
(429,128,o),
(452,351,cs),
(471,521,o),
(347,650,o),
(158,650,cs),
(123,650,l),
(117,604,l),
(165,604,ls),
(324,604,o),
(417,489,o),
(403,350,cs),
(382,155,o),
(279,46,o),
(117,46,cs),
(62,46,l),
(56,0,l)
);
},
{
closed = 1;
nodes = (
(146,637,o),
(144,650,o),
(123,650,cs),
(101,650,o),
(96,639,o),
(94,623,cs),
(31,27,ls),
(29,12,o),
(38,0,o),
(56,0,cs),
(78,0,o),
(80,15,o),
(81,25,cs),
(144,619,ls)
);
}
);
vertWidth = 0;
width = 500;
}
);
unicode = 68;
},
{
color = 6;
glyphname = E;
kernLeft = H_left;
layers = (
{
layerId = m01;
shapes = (
{
closed = 1;
nodes = (
(29,12,o),
(38,0,o),
(56,0,c),
(81,25,l),
(144,619,l),
(123,650,l),
(101,650,o),
(96,639,o),
(94,623,c),
(31,27,ls)
);
},
{
closed = 1;
nodes = (
(397,36,o),
(390,46,o),
(370,46,cs),
(61,46,l),
(56,0,l),
(370,0,ls),
(390,0,o),
(397,12,o),
(397,24,cs)
);
},
{
closed = 1;
nodes = (
(409,362,o),
(401,373,o),
(381,373,cs),
(94,373,l),
(89,327,l),
(379,327,ls),
(399,327,o),
(409,338,o),
(409,350,cs)
);
},
{
closed = 1;
nodes = (
(461,639,o),
(454,650,o),
(434,650,cs),
(123,650,l),
(117,604,l),
(434,604,ls),
(454,604,o),
(461,615,o),
(461,627,cs)
);
}
);
vertWidth = 0;
width = 459;
},
{
layerId = m002;
shapes = (
{
closed = 1;
nodes = (
(47,22,o),
(60,0,o),
(95,0,c),
(149,40,l),
(208,597,l),
(160,650,l),
(129,650,o),
(112,639,o),
(109,611,cs),
(50,50,ls)
);
},
{
closed = 1;
nodes = (
(469,76,o),
(450,95,o),
(418,95,cs),
(103,95,l),
(95,0,l),
(422,0,ls),
(452,0,o),
(469,26,o),
(469,52,cs)
);
},
{
closed = 1;
nodes = (
(476,357,o),
(454,373,o),
(424,373,cs),
(137,373,l),
(127,288,l),
(425,288,ls),
(457,288,o),
(476,307,o),
(476,331,cs)
);
},
{
closed = 1;
nodes = (
(529,631,o),
(508,650,o),
(477,650,cs),
(160,650,l),
(155,555,l),
(481,555,ls),
(511,555,o),
(529,580,o),
(529,606,cs)
);
}
);
vertWidth = 0;
width = 531;
}
);
unicode = 69;
},
{
color = 6;
glyphname = F;
kernLeft = H_left;
layers = (
{
layerId = m01;
shapes = (
{
closed = 1;
nodes = (
(78,0,o),
(80,15,o),
(81,25,c),
(144,619,l),
(123,650,l),
(101,650,o),
(96,639,o),
(94,623,cs),
(31,27,ls),
(29,12,o),
(38,0,o),
(56,0,cs)
);
},
{
closed = 1;
nodes = (
(400,362,o),
(392,373,o),
(372,373,cs),
(96,373,l),
(90,327,l),
(372,327,ls),
(392,327,o),
(400,338,o),
(400,350,cs)
);
},
{
closed = 1;
nodes = (
(461,639,o),
(454,650,o),
(434,650,cs),
(123,650,l),
(118,604,l),
(434,604,ls),
(454,604,o),
(461,615,o),
(461,627,cs)
);
}
);
vertWidth = 0;
width = 436;
},
{
layerId = m002;
shapes = (
{
closed = 1;
nodes = (
(130,0,o),
(147,21,o),
(150,51,c),
(208,597,l),
(158,650,l),
(127,650,o),
(112,638,o),
(109,610,cs),
(50,54,ls),
(47,27,o),
(61,0,o),
(89,0,cs)
);
},
{
closed = 1;
nodes = (
(484,359,o),
(463,375,o),
(433,375,cs),
(127,375,l),
(118,290,l),
(438,290,ls),
(470,290,o),
(484,309,o),
(484,333,cs)
);
},
{
closed = 1;
nodes = (
(543,632,o),
(522,650,o),
(491,650,cs),
(159,650,l),
(146,555,l),
(492,555,ls),
(522,555,o),
(543,575,o),
(543,604,cs)
);
}
);
vertWidth = 0;
width = 545;
}
);
unicode = 70;
},
{
color = 6;
glyphname = G;
kernLeft = O_left;
layers = (
{
layerId = m01;
shapes = (
{
closed = 1;
nodes = (
(288,-4,o),
(368,80,o),
(437,289,c),
(437,350,l),
(420,350,o),
(417,340,o),
(411,327,cs),
(340,161,o),
(285,42,o),
(196,42,cs),
(109,42,o),
(72,166,o),
(100,334,cs),
(123,471,o),
(205,602,o),
(316,602,cs),
(373,602,o),
(415,565,o),
(437,542,cs),
(448,531,o),
(462,529,o),
(473,539,cs),
(485,550,o),
(486,566,o),
(476,579,cs),
(450,613,o),
(391,650,o),
(323,650,cs),
(174,650,o),
(80,498,o),
(51,341,cs),
(14,141,o),
(69,-4,o),
(187,-4,cs)
);
},
{
closed = 1;
nodes = (
(429,-1,o),
(433,16,o),
(435,36,cs),
(465,323,ls),
(467,340,o),
(454,350,o),
(437,350,c),
(415,323,l),
(385,36,ls),
(383,15,o),
(386,1,o),
(406,0,cs)
);
}
);
vertWidth = 0;
width = 516;
},
{
layerId = m002;
shapes = (
{
closed = 1;
nodes = (
(296,-4,o),
(368,161,o),
(429,285,c),
(431,370,l),
(393,370,o),
(389,361,o),
(337,271,cs),
(306,217,o),
(228,85,o),
(189,85,cs),
(139,85,o),
(122,171,o),
(141,329,cs),
(157,462,o),
(190,559,o),
(304,559,cs),
(353,559,o),
(382,543,o),
(392,518,cs),
(405,487,o),
(427,476,o),
(460,485,cs),
(487,492,o),
(494,520,o),
(487,545,cs),
(469,616,o),
(395,650,o),
(304,650,cs),
(144,650,o),
(68,531,o),
(40,342,cs),
(10,139,o),
(39,-4,o),
(183,-4,cs)
);
},
{
closed = 1;
nodes = (
(437,0,o),
(447,18,o),
(450,42,cs),
(480,320,ls),
(483,351,o),
(462,370,o),
(431,370,c),
(379,327,l),
(350,49,ls),
(347,18,o),
(368,0,o),
(402,0,cs)
);
}
);
vertWidth = 0;
width = 535;
},
{
associatedMasterId = m002;
layerId = "38D35BBD-0824-4139-A76A-CF2BFBC65422";
name = background;
shapes = (
{
closed = 1;
nodes = (
(413,370,o),
(408,361,o),
(356,271,cs),
(325,217,o),
(247,85,o),
(208,85,cs),
(180,85,o),
(174,114,o),
(171,155,cs),
(167,214,o),
(177,304,o),
(182,354,cs),
(192,445,o),
(208,560,o),
(373,560,cs),
(396,560,o),
(418,536,o),
(422,519,cs),
(430,487,o),
(466,480,o),
(490,486,cs),
(517,494,o),
(524,521,o),
(517,546,cs),
(499,617,o),
(434,650,o),
(366,650,cs),
(131,650,o),
(96,487,o),
(80,341,cs),
(78,321,o),
(67,212,o),
(71,151,cs),
(76,79,o),
(106,-4,o),
(202,-4,cs),
(297,-4,o),
(385,153,o),
(448,265,c),
(451,370,l)
);
},
{
closed = 1;
nodes = (
(502,351,o),
(481,370,o),
(450,370,cs),
(411,370,o),
(400,343,o),
(398,327,cs),
(369,49,ls),
(366,18,o),
(387,0,o),
(421,0,cs),
(456,0,o),
(466,18,o),
(469,42,cs),
(499,320,ls)
);
}
);
vertWidth = 0;
width = 500;
}
);
unicode = 71;
},
{
color = 6;
glyphname = H;
kernLeft = H_left;
kernRight = H_right;
layers = (
{
layerId = m01;
shapes = (
{
closed = 1;
nodes = (
(78,0,o),
(80,15,o),
(81,25,cs),
(144,619,ls),
(146,637,o),
(140,650,o),
(123,650,cs),
(104,650,o),
(96,639,o),
(94,623,cs),
(31,27,ls),
(29,12,o),
(38,0,o),
(56,0,cs)
);
},
{
closed = 1;
nodes = (
(421,327,l),
(426,373,l),
(97,373,l),
(92,327,l)
);
},
{
closed = 1;
nodes = (
(411,0,o),
(416,13,o),
(417,22,cs),
(481,621,ls),
(483,638,o),
(476,650,o),
(456,650,cs),
(438,650,o),
(432,638,o),
(431,628,cs),
(367,27,ls),
(366,15,o),
(369,0,o),
(392,0,cs)
);
}
);
vertWidth = 0;
width = 517;
},
{
layerId = m002;
shapes = (
{
closed = 1;
nodes = (
(134,0,o),
(148,20,o),
(150,40,cs),
(207,597,ls),
(211,632,o),
(193,650,o),
(164,650,cs),
(137,650,o),
(111,637,o),
(108,609,cs),
(50,49,ls),
(47,21,o),
(68,0,o),
(100,0,cs)
);
},
{
closed = 1;
nodes = (
(458,292,l),
(466,372,l),
(136,372,l),
(128,292,l)
);
},
{
closed = 1;
nodes = (
(462,0,o),
(482,17,o),
(484,37,cs),
(543,599,ls),
(546,631,o),
(525,650,o),
(494,650,cs),
(466,650,o),
(446,635,o),
(444,613,cs),
(385,49,ls),
(382,20,o),
(400,0,o),
(433,0,cs)
);
}
);
vertWidth = 0;
width = 595;
}
);
unicode = 72;
},
{
color = 6;
glyphname = I;
layers = (
{
layerId = m01;
shapes = (
{
closed = 1;
nodes = (
(98,0,o),
(100,15,o),
(101,25,cs),
(164,619,ls),
(166,637,o),
(163,650,o),
(143,650,cs),
(123,650,o),
(116,639,o),
(114,623,cs),
(51,27,ls),
(49,12,o),
(58,0,o),
(76,0,cs)
);
}
);
vertWidth = 0;
width = 220;
},
{
layerId = m002;
shapes = (
{
closed = 1;
nodes = (
(145,0,o),
(165,18,o),
(167,39,cs),
(226,597,ls),
(230,639,o),
(205,650,o),
(180,650,cs),
(151,650,o),
(130,637,o),
(127,609,cs),
(68,49,ls),
(65,21,o),
(81,0,o),
(111,0,cs)
);
}
);
vertWidth = 0;
width = 299;
}
);
unicode = 73;
},
{
color = 6;
glyphname = J;
kernRight = H_right;
layers = (
{
layerId = m01;
shapes = (
{
closed = 1;
nodes = (
(-17,91,o),
(-14,77,o),
(-5,65,cs),
(24,28,o),
(65,0,o),
(119,0,cs),
(220,0,o),
(269,57,o),
(284,205,cs),
(327,623,ls),
(329,641,o),
(325,654,o),
(305,654,cs),
(285,654,o),
(279,643,o),
(277,627,cs),
(234,205,ls),
(222,88,o),
(184,46,o),
(119,46,cs),
(77,46,o),
(52,71,o),
(32,96,cs),
(21,110,o),
(6,114,o),
(-5,103,cs)
);
}
);
vertWidth = 0;
width = 364;
},
{
layerId = m002;
shapes = (
{
closed = 1;
nodes = (
(-19,107,o),
(-15,78,o),
(-1,63,cs),
(17,44,o),
(56,-4,o),
(146,-4,cs),
(243,-4,o),
(317,54,o),
(332,193,cs),
(375,597,ls),
(379,639,o),
(355,650,o),
(330,650,cs),
(301,650,o),
(280,637,o),
(277,609,cs),
(236,217,ls),
(225,107,o),
(195,85,o),
(142,85,cs),
(111,85,o),
(84,118,o),
(69,133,cs),
(50,152,o),
(11,149,o),
(-4,128,cs)
);
}
);
vertWidth = 0;
width = 417;
},
{
associatedMasterId = m01;
layerId = "9959F246-042E-4193-B1B9-CF1C12FB95A6";
name = background;
shapes = (
{
closed = 1;
nodes = (
(286,205,ls),
(281,157,o),
(272,105,o),
(242,76,cs),
(224,57,o),
(195,46,o),
(161,46,cs),
(135,46,o),
(111,64,o),
(92,88,cs),
(79,105,o),
(58,113,o),
(47,103,cs),
(32,90,o),
(37,77,o),
(56,55,cs),
(81,26,o),
(117,0,o),
(164,0,cs),
(215,0,o),
(251,13,o),
(276,37,cs),
(313,72,o),
(328,131,o),
(336,205,cs),
(379,623,ls),
(381,641,o),
(377,654,o),
(357,654,cs),
(337,654,o),
(331,643,o),
(329,627,cs)
);
}
);
vertWidth = 0;
width = 500;
},
{
associatedMasterId = m002;
layerId = "134A83CF-652C-4B20-B6C4-B0C20135E8F6";
name = background;
shapes = (
{
closed = 1;
nodes = (
(280,276,ls),
(273,213,o),
(274,152,o),
(245,122,cs),
(228,103,o),
(196,94,o),
(175,94,cs),
(139,94,o),
(114,118,o),
(104,127,cs),
(84,146,o),
(47,147,o),
(29,119,cs),
(19,105,o),
(23,78,o),
(37,63,cs),
(55,44,o),
(94,-4,o),
(184,-4,cs),
(239,-4,o),
(289,20,o),
(325,59,cs),
(370,107,o),
(369,184,o),
(378,268,cs),
(413,597,ls),
(417,639,o),
(393,650,o),
(368,650,cs),
(339,650,o),
(318,637,o),
(315,609,cs)
);
}
);
vertWidth = 0;
width = 500;
}
);
unicode = 74;
},
{
color = 6;
glyphname = K;
kernLeft = H_left;
layers = (
{
layerId = m01;
shapes = (
{
closed = 1;
nodes = (
(452,651,o),
(442,647,o),
(430,637,cs),
(113,360,l),
(114,348,l),
(171,344,l),
(464,600,ls),
(475,610,o),
(481,619,o),
(482,628,cs),
(482,640,o),
(474,650,o),
(461,650,cs)
);
},
{
closed = 1;
nodes = (
(405,0,o),
(415,6,o),
(417,17,cs),
(418,24,o),
(417,32,o),
(409,42,cs),
(170,354,l),
(113,356,l),
(114,345,l),
(364,19,ls),
(371,9,o),
(382,0,o),
(395,0,cs)
);
},
{
closed = 1;
nodes = (
(78,0,o),
(81,18,o),
(82,31,cs),
(145,619,ls),
(147,637,o),
(143,650,o),
(124,650,cs),
(104,650,o),
(97,639,o),
(95,623,cs),
(32,32,ls),
(30,17,o),
(39,0,o),
(57,0,cs)
);
}
);
vertWidth = 0;
width = 450;
},
{
layerId = m002;
shapes = (
{
closed = 1;
nodes = (
(480,650,o),
(466,644,o),
(451,631,cs),
(142,358,l),
(145,326,l),
(239,320,l),
(518,562,ls),
(531,574,o),
(542,587,o),
(543,602,cs),
(544,625,o),
(525,650,o),
(496,650,cs)
);
},
{
closed = 1;
nodes = (
(454,0,o),
(476,10,o),
(479,31,cs),
(481,44,o),
(479,60,o),
(468,74,cs),
(242,368,l),
(141,382,l),
(144,338,l),
(384,25,ls),
(396,9,o),
(415,0,o),
(434,0,cs)
);
},
{
closed = 1;
nodes = (
(131,0,o),
(145,19,o),
(148,45,cs),
(207,597,ls),
(211,636,o),
(185,650,o),
(161,650,cs),
(135,650,o),
(111,637,o),
(108,609,cs),
(48,54,ls),
(45,24,o),
(68,0,o),
(100,0,cs)
);
}
);
vertWidth = 0;
width = 528;
}
);
unicode = 75;
},
{
color = 6;
glyphname = L;
kernLeft = H_left;
layers = (
{
layerId = m01;
shapes = (
{
closed = 1;
nodes = (
(29,12,o),
(38,0,o),
(56,0,c),
(81,25,l),
(144,619,ls),
(146,637,o),
(143,650,o),
(123,650,cs),
(103,650,o),
(96,639,o),
(94,623,cs),
(31,27,ls)
);
},
{
closed = 1;
nodes = (
(383,40,o),
(374,50,o),
(356,50,cs),
(61,50,l),
(56,0,l),
(357,0,ls),
(375,0,o),
(383,13,o),
(383,26,cs)
);
}
);
vertWidth = 0;
width = 409;
},
{
layerId = m002;
shapes = (
{
closed = 1;
nodes = (
(45,21,o),
(61,0,o),
(91,0,c),
(147,39,l),
(206,597,ls),
(210,639,o),
(185,650,o),
(160,650,cs),
(131,650,o),
(110,637,o),
(107,609,cs),
(48,49,ls)
);
},
{
closed = 1;
nodes = (
(454,70,o),
(431,91,o),
(401,91,cs),
(101,91,l),
(91,0,l),
(407,0,ls),
(437,0,o),
(454,22,o),
(454,46,cs)
);
}
);
vertWidth = 0;
width = 480;
}
);
unicode = 76;
},
{
color = 6;
glyphname = M;
kernLeft = H_left;
kernRight = H_right;
layers = (
{
layerId = m01;
shapes = (
{
closed = 1;
nodes = (
(327,9,o),
(336,0,o),
(350,0,c),
(358,67,l),
(150,624,ls),
(144,641,o),
(138,650,o),
(123,650,c),
(118,567,l),
(323,19,ls)
);
},
{
closed = 1;
nodes = (
(78,0,o),
(80,16,o),
(81,28,cs),
(143,612,l),
(123,650,l),
(107,650,o),
(96,641,o),
(94,623,cs),
(31,27,ls),
(29,12,o),
(38,0,o),
(56,0,cs)
);
},
{
closed = 1;
nodes = (
(666,0,o),
(669,15,o),
(670,25,cs),
(733,619,ls),
(735,637,o),
(731,650,o),
(713,650,c),
(677,569,l),
(620,27,ls),
(619,15,o),
(625,0,o),
(644,0,c)
);
},
{
closed = 1;
nodes = (
(708,578,l),
(713,650,l),
(697,650,o),
(693,645,o),
(686,634,cs),
(343,62,l),
(350,0,l),
(364,0,o),
(367,8,o),
(373,18,cs)
);
}
);
vertWidth = 0;
width = 769;
},
{
layerId = m002;
shapes = (
{
closed = 1;
nodes = (
(342,13,o),
(363,0,o),
(399,0,c),
(408,100,l),
(219,614,ls),
(210,640,o),
(189,650,o),
(159,650,c),
(161,498,l),
(330,46,ls)
);
},
{
closed = 1;
nodes = (
(129,0,o),
(148,19,o),
(150,42,cs),
(197,498,l),
(159,650,l),
(127,650,o),
(111,636,o),
(108,609,cs),
(50,49,ls),
(47,21,o),
(67,0,o),
(96,0,cs)
);
},
{
closed = 1;
nodes = (
(724,0,o),
(738,19,o),
(740,40,cs),
(798,597,ls),
(801,629,o),
(785,650,o),
(752,650,c),
(684,464,l),
(640,45,ls),
(637,19,o),
(658,0,o),
(690,0,cs)
);
},
{
closed = 1;
nodes = (
(712,472,l),
(752,650,l),
(718,650,o),
(704,641,o),
(688,614,cs),
(389,103,l),
(399,0,l),
(435,0,o),
(449,21,o),
(462,43,c)
);
}
);
vertWidth = 0;
width = 850;
}
);
unicode = 77;
},
{
color = 6;
glyphname = N;
kernLeft = H_left;
kernRight = H_right;
layers = (
{
layerId = m01;
shapes = (
{
closed = 1;
nodes = (
(440,7,o),
(449,0,o),
(462,0,c),
(464,67,l),
(154,630,ls),
(148,641,o),
(140,650,o),
(122,650,c),
(119,594,l),
(434,18,ls)
);
},
{
closed = 1;
nodes = (
(78,0,o),
(80,16,o),
(81,28,cs),
(143,612,l),
(122,650,l),
(101,650,o),
(96,639,o),
(94,623,cs),
(31,27,ls),
(29,12,o),
(38,0,o),
(56,0,cs)
);
},
{
closed = 1;
nodes = (
(507,650,o),
(500,639,o),
(498,623,cs),
(437,48,l),
(462,0,l),
(480,0,o),
(483,9,o),
(485,25,cs),
(548,619,ls),
(550,637,o),
(546,650,o),
(527,650,cs)
);
}
);
vertWidth = 0;
width = 584;
},
{
layerId = m002;
shapes = (
{
closed = 1;
nodes = (
(441,10,o),
(456,0,o),
(481,0,c),
(486,127,l),
(212,621,ls),
(200,642,o),
(182,650,o),
(159,650,c),
(131,569,l),
(431,28,ls)
);
},
{
closed = 1;
nodes = (
(128,0,o),
(147,19,o),
(149,42,cs),
(206,592,l),
(159,650,l),
(127,650,o),
(110,636,o),
(107,609,cs),
(49,49,ls),
(46,21,o),
(66,0,o),
(95,0,cs)
);
},
{
closed = 1;
nodes = (
(509,653,o),
(488,637,o),
(485,609,cs),
(432,105,l),
(481,0,l),
(515,0,o),
(524,19,o),
(526,40,cs),
(584,597,ls),
(587,629,o),
(570,653,o),
(537,653,cs)
);
}
);
vertWidth = 0;
width = 637;
}
);
unicode = 78;
},
{
color = 6;
glyphname = O;
kernLeft = O_left;
kernRight = O_right;
layers = (
{
layerId = m01;
shapes = (
{
closed = 1;
nodes = (
(336,-4,o),
(439,247,o),
(459,435,cs),
(471,548,o),
(409,650,o),
(288,650,cs),
(129,650,o),
(59,453,o),
(59,275,cs),
(59,129,o),
(91,-4,o),
(175,-4,cs)
);
},
{
closed = 1;
nodes = (
(130,42,o),
(105,153,o),
(109,276,cs),
(113,430,o),
(162,604,o),
(283,604,cs),
(380,604,o),
(419,530,o),
(408,425,cs),
(393,282,o),
(304,42,o),
(171,42,cs)
);
}
);
vertWidth = 0;
width = 497;
},
{
layerId = m002;
shapes = (
{
closed = 1;
nodes = (
(342,-4,o),
(482,212,o),
(504,429,cs),
(516,548,o),
(439,652,o),
(299,652,cs),
(155,652,o),
(54,521,o),
(54,274,cs),
(54,120,o),
(82,-4,o),
(201,-4,cs)
);
},
{
closed = 1;
nodes = (
(160,86,o),
(154,187,o),
(154,276,cs),
(154,438,o),
(208,562,o),
(301,562,cs),
(383,562,o),
(411,507,o),
(403,427,cs),
(389,281,o),
(279,86,o),
(211,86,cs)
);
}
);
vertWidth = 0;
width = 548;
},
{
associatedMasterId = m01;
layerId = "20C156BE-152D-4B18-BA16-9023BA2DA609";
name = background;
shapes = (
{
closed = 1;
nodes = (
(336,-4,o),
(439,247,o),
(459,435,cs),
(471,548,o),
(409,650,o),
(281,650,cs),
(158,650,o),
(105,557,o),
(73,409,cs),
(65,369,o),
(59,322,o),
(59,278,cs),
(56,143,o),
(88,-4,o),
(175,-4,cs)
);
},
{
closed = 1;
nodes = (
(124,42,o),
(109,178,o),
(109,268,cs),
(110,310,o),
(113,355,o),
(120,388,cs),
(148,526,o),
(190,604,o),
(277,604,cs),
(398,604,o),
(417,511,o),
(408,425,cs),
(391,263,o),
(292,42,o),
(171,42,cs)
);
}
);
vertWidth = 0;
width = 500;
},
{
associatedMasterId = m002;
layerId = "FECD28BB-41F6-409F-998E-C3EA8BC308B1";
name = background;
shapes = (
{
closed = 1;
nodes = (
(365,-4,o),
(490,242,o),
(509,429,cs),
(521,548,o),
(432,652,o),
(304,652,cs),
(176,652,o),
(105,555,o),
(73,410,cs),
(65,370,o),
(59,325,o),
(59,283,cs),
(57,150,o),
(75,-4,o),
(195,-4,cs)
);
},
{
closed = 1;
nodes = (
(163,86,o),
(158,187,o),
(159,269,cs),
(159,308,o),
(163,348,o),
(169,378,cs),
(195,505,o),
(229,562,o),
(306,562,cs),
(410,562,o),
(414,484,o),
(408,427,cs),
(392,281,o),
(282,86,o),
(205,86,cs)
);
}
);
vertWidth = 0;
width = 500;
}
);
unicode = 79;
},
{
color = 6;
glyphname = P;
kernLeft = H_left;
layers = (
{
layerId = m01;
shapes = (
{
closed = 1;
nodes = (
(461,593,o),
(330,661,o),
(123,650,c),
(120,604,l),
(306,616,o),
(407,557,o),
(399,477,cs),
(388,372,o),
(266,338,o),
(92,339,c),
(88,294,l),
(281,293,o),
(435,336,o),
(449,472,cs)
);
},
{
closed = 1;
nodes = (
(78,-4,o),
(80,15,o),
(81,25,c),
(144,619,l),
(123,650,l),
(103,650,o),
(96,640,o),
(94,623,cs),
(31,27,ls),
(29,12,o),
(38,-4,o),
(56,-4,cs)
);
}
);
vertWidth = 0;
width = 435;
},
{
layerId = m002;
shapes = (
{
closed = 1;
nodes = (
(505,602,o),
(364,656,o),
(153,652,c),
(160,561,l),
(342,564,o),
(397,535,o),
(390,472,cs),
(380,382,o),
(251,359,o),
(141,357,c),
(132,267,l),
(283,269,o),
(471,289,o),
(490,467,cs)
);
},
{
closed = 1;
nodes = (
(132,-6,o),
(146,17,o),
(148,39,c),
(206,597,l),
(153,652,l),
(127,652,o),
(110,637,o),
(107,609,cs),
(48,48,ls),
(45,21,o),
(65,-6,o),
(98,-6,cs)
);
}
);
vertWidth = 0;
width = 491;
},
{
associatedMasterId = m01;
layerId = "02DD8EBC-8F3A-4034-A466-F24C24D63358";
name = background;
shapes = (
{
closed = 1;
nodes = (
(277,304,o),
(431,321,o),
(447,476,cs),
(459,597,o),
(322,650,o),
(126,650,c),
(129,604,l),
(310,604,o),
(406,561,o),
(397,481,cs),
(385,367,o),
(253,350,o),
(109,350,c),
(105,304,l)
);
},
{
closed = 1;
nodes = (
(145,637,o),
(143,650,o),
(122,650,cs),
(100,650,o),
(95,639,o),
(93,623,cs),
(30,27,ls),
(28,12,o),
(37,-4,o),
(55,-4,cs),
(77,-4,o),
(79,15,o),
(80,25,cs),
(143,619,ls)
);
}
);
vertWidth = 0;
width = 500;
}
);
unicode = 80;
},
{
color = 6;
glyphname = Q;
kernLeft = O_left;
kernRight = O_right;
layers = (
{
layerId = m01;
shapes = (
{
closed = 1;
nodes = (
(388,-32,o),
(384,-13,o),
(370,1,cs),
(235,130,ls),
(219,145,o),
(198,151,o),
(188,138,c),
(178,127,o),
(182,111,o),
(199,95,cs),
(334,-34,ls),
(348,-47,o),
(367,-51,o),
(377,-41,cs)
);
},
{
closed = 1;
nodes = (
(328,-4,o),
(439,247,o),
(459,435,cs),
(471,548,o),
(409,650,o),
(288,650,cs),
(129,650,o),
(59,453,o),
(59,275,cs),
(59,129,o),
(91,-4,o),
(175,-4,cs)
);
},
{
closed = 1;
nodes = (
(130,42,o),
(105,153,o),
(109,276,cs),
(113,430,o),
(162,604,o),
(283,604,cs),
(380,604,o),
(419,530,o),
(408,425,cs),
(393,282,o),
(312,42,o),
(171,42,cs)
);
}
);
vertWidth = 0;
width = 497;
},
{
layerId = m002;
shapes = (
{
closed = 1;
nodes = (
(441,-17,o),
(439,9,o),
(418,30,cs),
(285,158,l),
(257,180,o),
(226,182,o),
(209,161,cs),
(193,142,o),
(193,117,o),
(218,94,cs),
(348,-30,ls),
(372,-52,o),
(405,-60,o),
(423,-38,cs)
);
},
{
closed = 1;
nodes = (
(342,-4,o),
(482,212,o),
(504,429,cs),
(516,548,o),
(427,652,o),
(299,652,cs),
(155,652,o),
(54,521,o),
(54,274,cs),
(54,120,o),
(82,-4,o),
(201,-4,cs)
);
},
{
closed = 1;
nodes = (
(160,86,o),
(154,187,o),
(154,276,cs),
(154,438,o),
(208,562,o),
(301,562,cs),
(390,562,o),
(411,507,o),
(403,427,cs),
(389,281,o),
(279,86,o),
(211,86,cs)
);
}
);
vertWidth = 0;
width = 548;
},
{
associatedMasterId = m002;
layerId = "0DB79B60-F0F0-4AE5-8CEA-03AE86B091EC";
name = background;
shapes = (
{
closed = 1;
nodes = (
(442,-17,o),
(440,9,o),
(419,30,cs),
(286,158,l),
(258,180,o),
(227,182,o),
(210,161,cs),
(194,142,o),
(194,117,o),
(219,94,cs),
(349,-30,ls),
(373,-52,o),
(406,-60,o),
(424,-38,cs)
);
},
{
closed = 1;
nodes = (
(361,-4,o),
(486,242,o),
(505,429,cs),
(517,548,o),
(428,652,o),
(300,652,cs),
(172,652,o),
(101,555,o),
(69,410,cs),
(61,370,o),
(55,325,o),
(55,283,cs),
(53,150,o),
(71,-4,o),
(191,-4,cs)
);
},
{
closed = 1;
nodes = (
(159,86,o),
(154,187,o),
(155,269,cs),
(155,308,o),
(159,348,o),
(165,378,cs),
(191,505,o),
(225,562,o),
(302,562,cs),
(406,562,o),
(410,482,o),
(404,425,cs),
(388,279,o),
(278,86,o),
(201,86,cs)
);
}
);
vertWidth = 0;
width = 500;
}
);
unicode = 81;
},
{
color = 6;
glyphname = R;
kernLeft = H_left;
layers = (
{
layerId = m01;
shapes = (
{
closed = 1;
nodes = (
(450,606,o),
(337,660,o),
(123,650,c),
(130,604,l),
(310,616,o),
(399,569,o),
(390,491,cs),
(381,413,o),
(255,349,o),
(92,348,c),
(88,304,l),
(283,308,o),
(431,380,o),
(440,486,cs)
);
},
{
closed = 1;
nodes = (
(375,0,o),
(385,7,o),
(387,15,cs),
(389,23,o),
(387,34,o),
(375,50,cs),
(154,334,l),
(96,327,l),
(334,19,ls),
(344,6,o),
(357,0,o),
(365,0,cs)
);
},
{
closed = 1;
nodes = (
(78,0,o),
(80,16,o),
(82,31,c),
(144,619,l),
(123,650,l),
(101,650,o),
(96,639,o),
(94,623,cs),
(32,33,ls),
(30,16,o),
(38,0,o),
(56,0,cs)
);
}
);
vertWidth = 0;
width = 466;
},
{
layerId = m002;
shapes = (
{
closed = 1;
nodes = (
(520,622,o),
(389,662,o),
(160,650,c),
(153,563,l),
(360,576,o),
(417,553,o),
(409,479,cs),
(401,413,o),
(301,355,o),
(145,351,c),
(136,271,l),
(331,281,o),
(499,335,o),
(509,471,cs)
);
},
{
closed = 1;
nodes = (
(426,0,o),
(445,9,o),
(453,26,cs),
(459,39,o),
(461,58,o),
(451,71,cs),
(287,291,l),
(158,285,l),
(360,23,ls),
(376,2,o),
(394,0,o),
(407,0,cs)
);
},
{
closed = 1;
nodes = (
(126,0,o),
(144,18,o),
(148,53,cs),
(206,597,l),
(160,650,l),
(129,650,o),
(110,637,o),
(107,609,cs),
(49,60,ls),
(46,27,o),
(58,0,o),
(91,0,cs)
);
}
);
vertWidth = 0;
width = 529;
},
{
associatedMasterId = m01;
layerId = "10B39192-80BD-4D86-8859-A41096DFFBAE";
name = background;
shapes = (
{
closed = 1;
nodes = (
(288,304,o),
(450,321,o),
(466,476,cs),
(478,597,o),
(337,660,o),
(127,650,c),
(130,604,l),
(316,614,o),
(425,560,o),
(416,481,cs),
(404,368,o),
(263,350,o),
(102,350,c),
(98,304,l)
);
},
{
closed = 1;
nodes = (
(97,319,l),
(367,19,ls),
(378,6,o),
(386,0,o),
(394,0,cs),
(404,0,o),
(414,7,o),
(416,15,cs),
(418,23,o),
(420,34,o),
(413,42,cs),
(164,319,l)
);
},
{
closed = 1;
nodes = (
(146,637,o),
(144,650,o),
(123,650,cs),
(101,650,o),
(96,639,o),
(94,623,cs),
(32,33,ls),
(30,16,o),
(38,0,o),
(56,0,cs),
(78,0,o),
(80,16,o),
(82,31,cs),
(144,619,ls)
);
}
);
vertWidth = 0;
width = 500;
}
);
unicode = 82;
},
{
color = 6;
glyphname = S;
layers = (
{
layerId = m01;
shapes = (
{
closed = 1;
nodes = (
(269,-4,o),
(354,49,o),
(366,162,cs),
(376,258,o),
(315,323,o),
(235,369,cs),
(153,416,o),
(102,455,o),
(108,512,cs),
(114,569,o),
(169,608,o),
(264,608,cs),
(315,608,o),
(346,583,o),
(359,547,cs),
(364,534,o),
(378,528,o),
(391,532,cs),
(405,536,o),
(407,552,o),
(401,570,cs),
(385,617,o),
(340,654,o),
(262,654,cs),
(134,654,o),
(68,590,o),
(60,516,cs),
(52,436,o),
(118,378,o),
(197,333,cs),
(285,283,o),
(323,236,o),
(317,169,cs),
(309,82,o),
(239,42,o),
(169,42,cs),
(106,42,o),
(69,68,o),
(61,99,cs),
(57,116,o),
(42,122,o),
(28,118,cs),
(13,114,o),
(11,98,o),
(15,82,cs),
(28,30,o),
(84,-4,o),
(153,-4,cs)
);
}
);
vertWidth = 0;
width = 421;
},
{
layerId = m002;
shapes = (
{
closed = 1;
nodes = (
(295,-2,o),
(406,51,o),
(418,168,cs),
(431,285,o),
(355,348,o),
(287,388,cs),
(226,424,o),
(155,467,o),
(160,508,cs),
(165,546,o),
(206,566,o),
(267,566,cs),
(325,566,o),
(349,554,o),
(358,531,cs),
(369,502,o),
(395,491,o),
(424,500,cs),
(449,508,o),
(458,529,o),
(451,553,cs),
(431,625,o),
(381,655,o),
(282,655,cs),
(144,655,o),
(67,604,o),
(57,511,cs),
(47,415,o),
(157,348,o),
(222,311,cs),
(293,271,o),
(328,227,o),
(323,172,cs),
(318,122,o),
(266,94,o),
(195,94,cs),
(133,94,o),
(116,103,o),
(107,124,cs),
(94,154,o),
(61,163,o),
(36,155,cs),
(14,148,o),
(-3,126,o),
(4,102,cs),
(21,34,o),
(84,-2,o),
(196,-2,cs)
);
}
);
vertWidth = 0;
width = 469;
},
{
associatedMasterId = m002;
layerId = "978B32C5-E304-42DF-BBEA-C5F78DFF1767";
name = background;
shapes = (
{
closed = 1;
nodes = (
(172,94,o),
(155,103,o),
(149,124,cs),
(141,153,o),
(107,160,o),
(86,154,cs),
(61,148,o),
(52,126,o),
(59,102,cs),
(76,34,o),
(123,0,o),
(197,0,cs),
(334,0,o),
(441,51,o),
(455,174,cs),
(466,285,o),
(381,341,o),
(316,385,cs),
(263,421,o),
(186,461,o),
(184,489,cs),
(181,527,o),
(244,561,o),
(322,561,cs),
(366,561,o),
(383,554,o),
(388,531,cs),
(395,501,o),
(433,494,o),
(454,500,cs),
(479,508,o),
(486,529,o),
(481,553,cs),
(462,626,o),
(411,655,o),
(312,655,cs),
(174,655,o),
(81,578,o),
(87,485,cs),
(94,397,o),
(197,352,o),
(254,313,cs),
(321,266,o),
(363,227,o),
(359,184,cs),
(353,122,o),
(305,94,o),
(234,94,cs)
);
}
);
vertWidth = 0;
width = 500;
}
);
unicode = 83;
},
{
color = 6;
glyphname = T;
layers = (
{
layerId = m01;
shapes = (
{
closed = 1;
nodes = (
(166,0,o),
(172,18,o),
(174,34,cs),
(236,624,l),
(186,624,l),
(124,37,ls),
(122,17,o),
(127,0,o),
(146,0,cs)
);
},
{
closed = 1;
nodes = (
(18,613,o),
(26,600,o),
(46,600,cs),
(380,600,ls),
(400,600,o),
(404,613,o),
(404,625,cs),
(404,637,o),
(397,650,o),
(377,650,cs),
(43,650,ls),
(23,650,o),
(18,637,o),
(18,625,cs)
);
}
);
vertWidth = 0;
width = 369;
},
{
layerId = m002;
shapes = (
{
closed = 1;
nodes = (
(218,-2,o),
(234,22,o),
(236,43,cs),
(295,605,l),
(194,605,l),
(136,49,ls),
(133,21,o),
(154,-2,o),
(185,-2,cs)
);
},
{
closed = 1;
nodes = (
(27,583,o),
(49,563,o),
(81,563,cs),
(416,563,ls),
(448,563,o),
(463,583,o),
(463,607,cs),
(463,633,o),
(439,653,o),
(409,653,cs),
(74,653,ls),
(44,653,o),
(29,633,o),
(28,607,cs)
);
}
);
vertWidth = 0;
width = 445;
}
);
unicode = 84;
},
{
color = 6;
glyphname = U;
kernLeft = H_left;
kernRight = H_right;
layers = (
{
layerId = m01;
shapes = (
{
closed = 1;
nodes = (
(196,-4,o),
(329,139,o),
(414,376,c),
(423,520,l),
(412,522,l),
(365,230,o),
(172,42,o),
(122,42,cs),
(75,42,o),
(82,116,o),
(89,180,cs),
(139,619,ls),
(141,634,o),
(131,650,o),
(116,650,cs),
(100,650,o),
(90,636,o),
(88,620,cs),
(39,183,ls),
(24,52,o),
(59,-4,o),
(119,-4,cs)
);
},
{
closed = 1;
nodes = (
(396,-1,o),
(407,7,o),
(409,22,cs),
(473,624,ls),
(475,639,o),
(466,650,o),
(448,650,cs),
(430,650,o),
(424,638,o),
(423,626,cs),
(359,27,ls),
(357,8,o),
(370,-1,o),
(384,-1,cs)
);
}
);
vertWidth = 0;
width = 509;
},
{
layerId = m002;
shapes = (
{
closed = 1;
nodes = (
(253,-4,o),
(342,107,o),
(427,273,c),
(461,549,l),
(438,549,l),
(418,343,o),
(225,86,o),
(182,86,cs),
(159,86,o),
(157,125,o),
(165,195,cs),
(210,600,ls),
(213,629,o),
(191,650,o),
(162,650,cs),
(129,651,o),
(112,624,o),
(110,606,cs),
(64,195,ls),
(49,57,o),
(83,-4,o),
(168,-4,cs)
);
},
{
closed = 1;
nodes = (
(459,0,o),
(481,12,o),
(484,44,cs),
(544,602,ls),
(547,630,o),
(528,650,o),
(494,650,cs),
(466,650,o),
(446,635,o),
(444,612,cs),
(385,49,ls),
(382,16,o),
(406,0,o),
(434,0,cs)
);
}
);
vertWidth = 0;
width = 596;
},
{
associatedMasterId = m01;
layerId = "85A0CC84-4628-44F1-A8D5-F145C07A2F77";
name = background;
shapes = (
{
closed = 1;
nodes = (
(205,-4,o),
(314,118,o),
(391,283,c),
(414,327,l),
(442,520,l),
(432,520,l),
(429,509,l),
(417,467,o),
(368,351,o),
(355,320,cs),
(296,192,o),
(181,42,o),
(131,42,cs),
(84,42,o),
(91,116,o),
(98,180,cs),
(148,619,ls),
(150,634,o),
(140,650,o),
(125,650,cs),
(109,650,o),
(99,636,o),
(97,620,cs),
(48,183,ls),
(33,52,o),
(69,-4,o),
(128,-4,cs)
);
},
{
closed = 1;
nodes = (
(405,-1,o),
(416,7,o),
(418,22,cs),
(482,624,ls),
(484,639,o),
(475,650,o),
(457,650,cs),
(439,650,o),
(433,638,o),
(432,626,cs),
(368,27,ls),
(366,8,o),
(379,-1,o),
(393,-1,cs)
);
}
);
vertWidth = 0;
width = 500;
},
{
associatedMasterId = m002;
layerId = "C456C70A-B9F0-4BB4-8B22-984771EF7C04";
name = background;
shapes = (
{
closed = 1;
nodes = (
(252,-4,o),
(337,98,o),
(424,258,c),
(458,543,l),
(439,543,l),
(433,510,ls),
(417,423,o),
(388,364,o),
(371,337,cs),
(328,265,o),
(224,86,o),
(177,86,cs),
(158,86,o),
(156,125,o),
(163,185,cs),
(209,600,ls),
(212,629,o),
(190,650,o),
(161,650,cs),
(128,651,o),
(111,624,o),
(109,606,cs),
(63,195,ls),
(48,57,o),
(94,-4,o),
(167,-4,cs)
);
},
{
closed = 1;
nodes = (
(458,0,o),
(480,12,o),
(483,44,cs),
(543,602,ls),
(546,630,o),
(527,650,o),
(493,650,cs),
(465,650,o),
(445,635,o),
(443,612,cs),
(384,49,ls),
(381,16,o),
(405,0,o),
(433,0,cs)
);
}
);
vertWidth = 0;
width = 500;
}
);
unicode = 85;
},
{
color = 6;
glyphname = V;
kernLeft = V_left;
kernRight = V_right;
layers = (
{
layerId = m01;
shapes = (
{
closed = 1;
nodes = (
(447,618,ls),
(455,638,o),
(445,650,o),
(430,650,cs),
(411,650,o),
(403,642,o),
(396,625,cs),
(215,171,l),
(167,39,l),
(182,0,l),
(201,0,o),
(204,11,o),
(210,25,cs)
);
},
{
closed = 1;
nodes = (
(155,15,o),
(164,0,o),
(182,0,c),
(198,37,l),
(182,169,l),
(112,626,ls),
(110,636,o),
(106,650,o),
(84,650,c),
(66,650,o),
(60,639,o),
(62,624,cs),
(153,28,ls)
);
}
);
vertWidth = 0;
width = 449;
},
{
layerId = m002;
shapes = (
{
closed = 1;
nodes = (
(471,591,ls),
(485,625,o),
(463,650,o),
(431,650,cs),
(402,650,o),
(382,638,o),
(374,618,cs),
(242,304,l),
(168,98,l),
(189,-2,l),
(218,-2,o),
(234,15,o),
(242,34,cs)
);
},
{
closed = 1;
nodes = (
(144,19,o),
(159,-1,o),
(189,-2,c),
(226,98,l),
(200,304,l),
(151,610,ls),
(147,633,o),
(126,650,o),
(94,650,cs),
(65,650,o),
(46,634,o),
(51,604,cs),
(140,44,ls)
);
}
);
vertWidth = 0;
width = 463;
}
);
unicode = 86;
},
{
color = 6;
glyphname = W;
kernLeft = V_left;
kernRight = V_right;
layers = (
{
layerId = m01;
shapes = (
{
closed = 1;
nodes = (
(787,618,ls),
(796,639,o),
(782,650,o),
(768,650,cs),
(749,650,o),
(744,644,o),
(736,625,cs),
(562,188,l),
(523,68,l),
(520,0,l),
(539,0,o),
(543,11,o),
(549,25,cs)
);
},
{
closed = 1;
nodes = (
(155,12,o),
(167,0,o),
(181,0,c),
(191,63,l),
(177,189,l),
(112,626,ls),
(110,636,o),
(106,650,o),
(84,650,c),
(66,650,o),
(60,639,o),
(62,624,cs),
(153,28,ls)
);
},
{
closed = 1;
nodes = (
(394,495,l),
(422,590,l),
(422,650,l),
(406,650,o),
(397,637,o),
(393,626,cs),
(223,189,l),
(181,65,l),
(181,0,l),
(201,0,o),
(206,15,o),
(210,26,cs)
);
},
{
closed = 1;
nodes = (
(495,13,o),
(503,0,o),
(520,0,c),
(529,65,l),
(517,192,l),
(452,626,ls),
(450,637,o),
(446,650,o),
(422,650,c),
(412,595,l),
(423,492,l),
(493,25,ls)
);
}
);
vertWidth = 0;
width = 789;
},
{
layerId = m002;
shapes = (
{
closed = 1;
nodes = (
(810,591,ls),
(820,615,o),
(805,650,o),
(767,650,cs),
(735,650,o),
(718,630,o),
(712,616,cs),
(577,276,l),
(533,158,l),
(528,0,l),
(559,0,o),
(572,12,o),
(581,33,cs)
);
},
{
closed = 1;
nodes = (
(140,15,o),
(160,0,o),
(193,0,c),
(216,126,l),
(197,280,l),
(151,610,ls),
(148,633,o),
(127,650,o),
(95,650,cs),
(66,650,o),
(46,634,o),
(51,604,cs),
(136,44,ls)
);
},
{
closed = 1;
nodes = (
(398,412,l),
(424,492,l),
(429,650,l),
(397,650,o),
(382,634,o),
(374,612,cs),
(245,277,l),
(193,134,l),
(193,0,l),
(224,0,o),
(247,14,o),
(258,43,cs)
);
},
{
closed = 1;
nodes = (
(480,15,o),
(498,0,o),
(528,0,c),
(550,158,l),
(536,276,l),
(488,610,ls),
(484,635,o),
(464,650,o),
(429,650,c),
(412,496,l),
(420,412,l),
(477,32,ls)
);
}
);
vertWidth = 0;
width = 801;
}
);
unicode = 87;
},
{
color = 6;
glyphname = X;
layers = (
{
layerId = m01;
shapes = (
{
closed = 1;
nodes = (
(10,-3,o),
(27,-2,o),
(37,13,cs),
(227,301,l),
(233,301,l),
(434,609,ls),
(444,624,o),
(441,638,o),
(432,645,cs),
(421,653,o),
(402,652,o),
(392,637,cs),
(207,352,l),
(200,351,l),
(-6,38,ls),
(-14,26,o),
(-11,13,o),
(-1,6,cs)
);
},
{
closed = 1;
nodes = (
(374,8,o),
(381,20,o),
(374,35,cs),
(235,345,l),
(107,631,ls),
(99,650,o),
(78,654,o),
(67,649,cs),
(55,645,o),
(52,632,o),
(60,614,cs),
(197,308,l),
(326,20,ls),
(334,1,o),
(352,-3,o),
(365,3,cs)
);
}
);
vertWidth = 0;
width = 438;
},
{
layerId = m002;
shapes = (
{
closed = 1;
nodes = (
(37,-3,o),
(78,-8,o),
(93,16,cs),
(260,279,l),
(265,279,l),
(468,578,ls),
(484,602,o),
(477,623,o),
(458,639,cs),
(439,655,o),
(399,656,o),
(383,631,cs),
(221,375,l),
(216,375,l),
(8,69,ls),
(-6,48,o),
(-2,29,o),
(17,13,cs)
);
},
{
closed = 1;
nodes = (
(416,17,o),
(424,36,o),
(413,61,cs),
(276,367,l),
(162,623,ls),
(149,651,o),
(114,654,o),
(92,647,cs),
(66,637,o),
(55,617,o),
(69,586,cs),
(203,286,l),
(318,28,ls),
(331,-1,o),
(373,-6,o),
(396,6,cs)
);
}
);
vertWidth = 0;
width = 456;
}
);
unicode = 88;
},
{
color = 6;
glyphname = Y;
layers = (
{
layerId = m01;
shapes = (
{
closed = 1;
nodes = (
(59,644,o),
(57,629,o),
(64,613,cs),
(234,241,l),
(267,290,l),
(111,630,ls),
(106,642,o),
(95,657,o),
(76,650,cs)
);
},
{
closed = 1;
nodes = (
(101,-3,o),
(119,-3,o),
(128,12,cs),
(479,609,ls),
(488,624,o),
(484,639,o),
(469,647,cs),
(457,653,o),
(445,650,o),
(436,635,cs),
(86,38,ls),
(79,26,o),
(80,13,o),
(90,6,cs)
);
}
);
vertWidth = 0;
width = 488;
},
{
layerId = m002;
shapes = (
{
closed = 1;
nodes = (
(48,636,o),
(44,607,o),
(55,583,cs),
(226,223,l),
(285,314,l),
(148,620,ls),
(138,643,o),
(110,657,o),
(79,646,cs)
);
},
{
closed = 1;
nodes = (
(106,-7,o),
(148,-2,o),
(162,22,cs),
(494,578,ls),
(508,602,o),
(501,630,o),
(475,645,cs),
(454,656,o),
(421,650,o),
(405,624,cs),
(75,75,ls),
(62,54,o),
(67,25,o),
(86,9,cs)
);
}
);
vertWidth = 0;
width = 490;
},
{
associatedMasterId = m01;
layerId = "97930EFF-4ECB-41E8-9E11-FCC2E8932513";
name = background;
shapes = (
{
closed = 1;
nodes = (
(256,339,l),
(127,630,ls),
(122,642,o),
(107,655,o),
(88,648,cs),
(71,642,o),
(73,629,o),
(80,613,cs),
(227,281,l)
);
},
{
closed = 1;
nodes = (
(412,624,o),
(411,638,o),
(402,645,cs),
(391,653,o),
(369,650,o),
(362,635,cs),
(92,38,ls),
(87,26,o),
(86,13,o),
(96,6,cs),
(107,-3,o),
(128,-4,o),
(135,11,cs),
(405,609,ls)
);
}
);
vertWidth = 0;
width = 454;
}
);
unicode = 89;
},
{
color = 6;
glyphname = Z;
layers = (
{
layerId = m01;
shapes = (
{
closed = 1;
nodes = (
(-5,21,o),
(6,0,o),
(29,0,c),
(47,13,l),
(445,609,ls),
(459,631,o),
(443,650,o),
(425,650,c),
(407,636,l),
(7,39,ls)
);
},
{
closed = 1;
nodes = (
(386,37,o),
(380,50,o),
(360,50,cs),
(46,50,l),
(29,0,l),
(363,0,ls),
(383,0,o),
(388,13,o),
(387,25,cs)
);
},
{
closed = 1;
nodes = (
(66,613,o),
(73,600,o),
(93,600,cs),
(407,600,l),
(425,650,l),
(90,650,ls),
(70,650,o),
(64,637,o),
(65,625,cs)
);
}
);
vertWidth = 0;
width = 449;
},
{
layerId = m002;
shapes = (
{
closed = 1;
nodes = (
(-18,42,o),
(-1,0,o),
(43,0,c),
(78,17,l),
(462,577,ls),
(483,608,o),
(468,653,o),
(425,653,c),
(384,633,l),
(1,70,ls)
);
},
{
closed = 1;
nodes = (
(411,70,o),
(391,90,o),
(361,90,cs),
(104,90,l),
(43,0,l),
(364,0,ls),
(396,0,o),
(411,19,o),
(411,43,c)
);
},
{
closed = 1;
nodes = (
(55,583,o),
(75,563,o),
(107,563,cs),
(353,563,l),
(425,653,l),
(100,653,ls),
(70,653,o),
(52,633,o),
(54,607,cs)
);
}
);
vertWidth = 0;
width = 460;
}
);
unicode = 90;
},
{
color = 6;
glyphname = K.ss01;
layers = (
{
layerId = m01;
shapes = (
{
closed = 1;
nodes = (
(464,600,ls),
(475,610,o),
(481,619,o),
(482,628,cs),
(482,640,o),
(474,650,o),
(461,650,cs),
(452,651,o),
(442,647,o),
(430,637,cs),
(113,360,l),
(114,348,l),
(171,344,l)
);
},
{
closed = 1;
nodes = (
(364,19,ls),
(370,12,o),
(387,0,o),
(408,0,cs),
(441,0,o),
(453,17,o),
(472,50,cs),
(488,79,o),
(491,86,o),
(490,94,cs),
(489,109,o),
(477,116,o),
(466,116,cs),
(454,116,o),
(446,108,o),
(444,104,cs),
(432,81,ls),
(420,59,o),
(413,46,o),
(410,46,cs),
(406,46,o),
(402,51,o),
(400,54,cs),
(170,354,l),
(113,356,l),
(114,345,l)
);
},
{
closed = 1;
nodes = (
(147,637,o),
(143,650,o),
(124,650,cs),
(104,650,o),
(97,639,o),
(95,623,cs),
(32,32,ls),
(30,17,o),
(39,0,o),
(57,0,cs),
(78,0,o),
(81,18,o),
(82,31,cs),
(145,619,ls)
);
}
);
vertWidth = 0;
width = 532;
},
{
layerId = m002;
shapes = (
{
closed = 1;
nodes = (
(518,562,ls),
(531,574,o),
(542,587,o),
(543,602,cs),
(544,625,o),
(525,650,o),
(496,650,cs),
(480,650,o),
(460,644,o),
(445,631,cs),
(142,368,l),
(145,326,l),
(239,320,l)
);
},
{
closed = 1;
nodes = (
(385,24,ls),
(395,12,o),
(419,0,o),
(443,0,cs),
(482,0,o),
(520,15,o),
(542,52,cs),
(559,81,o),
(562,98,o),
(559,110,cs),
(555,125,o),
(542,138,o),
(528,142,cs),
(516,145,o),
(504,141,o),
(497,132,cs),
(492,126,ls),
(486,119,o),
(474,93,o),
(469,93,cs),
(463,93,o),
(450,96,o),
(441,108,cs),
(242,368,l),
(141,382,l),
(144,338,l)
);
},
{
closed = 1;
nodes = (
(211,636,o),
(185,650,o),
(161,650,cs),
(135,650,o),
(111,637,o),
(108,609,cs),
(48,54,ls),
(45,24,o),
(68,0,o),
(100,0,cs),
(131,0,o),
(145,19,o),
(148,45,cs),
(207,597,ls)
);
}
);
vertWidth = 0;
width = 615;
}
);
},
{
color = 6;
glyphname = M.ss01;
layers = (
{
layerId = m01;
shapes = (
{
closed = 1;
nodes = (
(156,630,ls),
(153,639,o),
(143,650,o),
(122,650,c),
(118,589,l),
(322,18,ls),
(326,8,o),
(337,0,o),
(351,0,c),
(358,67,l)
);
},
{
closed = 1;
nodes = (
(123,650,l),
(101,650,o),
(96,639,o),
(94,623,cs),
(31,27,ls),
(29,12,o),
(38,0,o),
(56,0,cs),
(78,0,o),
(80,16,o),
(81,28,cs),
(143,612,l)
);
},
{
closed = 1;
nodes = (
(632,146,ls),
(625,78,o),
(632,0,o),
(702,0,cs),
(735,0,o),
(747,17,o),
(766,50,cs),
(782,79,o),
(785,86,o),
(784,94,cs),
(783,109,o),
(771,116,o),
(760,116,cs),
(748,116,o),
(740,108,o),
(738,104,cs),
(726,81,ls),
(714,59,o),
(705,46,o),
(698,46,cs),
(678,46,o),
(679,111,o),
(681,132,cs),
(733,619,ls),
(735,637,o),
(731,650,o),
(712,650,c),
(677,569,l)
);
},
{
closed = 1;
nodes = (
(350,0,l),
(364,0,o),
(369,8,o),
(375,18,cs),
(708,573,l),
(711,650,l),
(693,650,o),
(691,643,o),
(686,634,cs),
(343,62,l)
);
}
);
vertWidth = 0;
width = 876;
},
{
layerId = m002;
shapes = (
{
closed = 1;
nodes = (
(216,620,ls),
(208,641,o),
(182,650,o),
(156,650,c),
(160,491,l),
(328,35,ls),
(336,13,o),
(365,0,o),
(401,0,c),
(407,100,l)
);
},
{
closed = 1;
nodes = (
(159,650,l),
(127,650,o),
(110,636,o),
(107,609,cs),
(49,49,ls),
(46,21,o),
(66,0,o),
(95,0,cs),
(128,0,o),
(147,19,o),
(149,42,cs),
(196,498,l)
);
},
{
closed = 1;
nodes = (
(651,156,ls),
(642,72,o),
(663,0,o),
(742,0,cs),
(781,0,o),
(808,15,o),
(830,52,cs),
(847,81,o),
(848,94,o),
(845,106,cs),
(841,121,o),
(830,134,o),
(816,138,cs),
(804,141,o),
(790,141,o),
(783,132,cs),
(778,126,ls),
(772,119,o),
(766,89,o),
(753,89,cs),
(745,89,o),
(746,116,o),
(756,208,cs),
(797,597,ls),
(800,629,o),
(784,650,o),
(751,650,c),
(683,464,l)
);
},
{
closed = 1;
nodes = (
(395,0,l),
(431,0,o),
(448,13,o),
(461,35,cs),
(711,462,l),
(753,650,l),
(717,650,o),
(703,641,o),
(691,620,cs),
(388,103,l)
);
}
);
vertWidth = 0;
width = 952;
}
);
},
{
color = 6;
glyphname = Q.ss01;
layers = (
{
layerId = m01;
shapes = (
{
closed = 1;
nodes = (
(325,-26,ls),
(337,-37,o),
(354,-47,o),
(376,-47,cs),
(409,-47,o),
(421,-30,o),
(440,3,cs),
(456,32,o),
(459,39,o),
(458,47,cs),
(457,62,o),
(445,69,o),
(434,69,cs),
(422,69,o),
(414,61,o),
(412,57,cs),
(400,34,ls),
(388,12,o),
(383,-1,o),
(376,-1,cs),
(372,-1,o),
(365,7,o),
(360,11,cs),
(230,134,ls),
(217,146,o),
(198,149,o),
(187,135,cs),
(178,125,o),
(182,111,o),
(196,97,cs)
);
},
{
closed = 1;
nodes = (
(336,-4,o),
(441,250,o),
(459,438,cs),
(470,551,o),
(409,650,o),
(281,650,cs),
(158,650,o),
(105,557,o),
(73,409,cs),
(65,369,o),
(59,322,o),
(59,278,cs),
(56,143,o),
(88,-4,o),
(175,-4,cs)
);
},
{
closed = 1;
nodes = (
(124,42,o),
(108,178,o),
(108,268,cs),
(109,310,o),
(113,355,o),
(120,388,cs),
(148,526,o),
(190,604,o),
(277,604,cs),
(398,604,o),
(417,511,o),
(408,425,cs),
(391,263,o),
(292,42,o),
(171,42,cs)
);
}
);
vertWidth = 0;
width = 537;
},
{
layerId = m002;
shapes = (
{
closed = 1;
nodes = (
(364,-24,ls),
(378,-37,o),
(403,-48,o),
(422,-48,cs),
(461,-48,o),
(488,-29,o),
(510,8,cs),
(527,37,o),
(528,50,o),
(525,62,cs),
(521,77,o),
(510,90,o),
(496,94,cs),
(484,97,o),
(474,93,o),
(467,84,cs),
(462,78,ls),
(456,71,o),
(447,36,o),
(441,36,cs),
(435,36,o),
(429,42,o),
(418,52,cs),
(308,158,l),
(280,180,o),
(245,179,o),
(232,161,cs),
(217,143,o),
(216,118,o),
(241,94,cs)
);
},
{
closed = 1;
nodes = (
(383,-4,o),
(508,242,o),
(527,429,cs),
(539,548,o),
(450,652,o),
(322,652,cs),
(194,652,o),
(123,555,o),
(91,410,cs),
(83,370,o),
(77,325,o),
(77,283,cs),
(75,150,o),
(93,-4,o),
(213,-4,cs)
);
},
{
closed = 1;
nodes = (
(181,86,o),
(176,187,o),
(177,269,cs),
(177,308,o),
(181,348,o),
(187,378,cs),
(213,505,o),
(247,562,o),
(324,562,cs),
(428,562,o),
(432,482,o),
(426,425,cs),
(410,279,o),
(300,86,o),
(223,86,cs)
);
}
);
vertWidth = 0;
width = 606;
}
);
},
{
color = 6;
glyphname = R.ss01;
layers = (
{
layerId = m01;
shapes = (
{
closed = 1;
nodes = (
(288,304,o),
(450,321,o),
(466,476,cs),
(478,597,o),
(344,650,o),
(127,650,c),
(130,604,l),
(323,604,o),
(425,560,o),
(416,481,cs),
(404,368,o),
(263,350,o),
(102,350,c),
(98,304,l)
);
},
{
closed = 1;
nodes = (
(369,15,ls),
(375,8,o),
(392,-4,o),
(413,-4,cs),
(446,-4,o),
(458,13,o),
(477,46,cs),
(493,75,o),
(496,82,o),
(495,90,cs),
(494,105,o),
(482,112,o),
(471,112,cs),
(459,112,o),
(451,104,o),
(449,100,cs),
(437,77,ls),
(425,55,o),
(419,42,o),
(416,42,cs),
(412,42,o),
(408,47,o),
(405,50,cs),
(164,319,l),
(97,319,l)
);
},
{
closed = 1;
nodes = (
(146,637,o),
(144,650,o),
(123,650,cs),
(101,650,o),
(96,639,o),
(94,623,cs),
(32,33,ls),
(30,16,o),
(38,0,o),
(56,0,cs),
(78,0,o),
(80,16,o),
(82,31,cs),
(144,619,ls)
);
}
);
vertWidth = 0;
width = 537;
},
{
layerId = m002;
shapes = (
{
closed = 1;
nodes = (
(321,270,o),
(509,289,o),
(528,467,cs),
(543,602,o),
(403,650,o),
(156,650,c),
(162,559,l),
(378,562,o),
(435,533,o),
(428,470,cs),
(419,382,o),
(291,359,o),
(164,359,c),
(155,270,l)
);
},
{
closed = 1;
nodes = (
(396,20,ls),
(407,8,o),
(430,-4,o),
(454,-4,cs),
(493,-4,o),
(531,11,o),
(553,48,cs),
(570,77,o),
(573,94,o),
(570,106,cs),
(566,121,o),
(553,134,o),
(539,138,cs),
(527,141,o),
(515,137,o),
(508,128,cs),
(503,122,ls),
(497,115,o),
(486,89,o),
(481,89,cs),
(474,89,o),
(462,93,o),
(452,104,cs),
(287,291,l),
(158,285,l)
);
},
{
closed = 1;
nodes = (
(210,638,o),
(188,650,o),
(160,650,cs),
(129,650,o),
(110,637,o),
(107,609,cs),
(48,54,ls),
(45,24,o),
(59,0,o),
(91,0,cs),
(130,0,o),
(145,23,o),
(148,53,cs),
(206,597,ls)
);
}
);
vertWidth = 0;
width = 626;
}
);
},
{
color = 6;
glyphname = U.ss01;
layers = (
{
layerId = m01;
shapes = (
{
closed = 1;
nodes = (
(442,520,l),
(432,520,l),
(429,509,l),
(417,467,o),
(368,351,o),
(355,320,cs),
(296,192,o),
(181,42,o),
(131,42,cs),
(84,42,o),
(91,116,o),
(98,180,cs),
(148,622,ls),
(150,636,o),
(140,649,o),
(125,650,cs),
(109,650,o),
(99,636,o),
(97,620,cs),
(48,183,ls),
(33,52,o),
(69,-4,o),
(128,-4,cs),
(205,-4,o),
(314,118,o),
(391,283,c),
(414,327,l)
);
},
{
closed = 1;
nodes = (
(382,146,ls),
(375,78,o),
(382,0,o),
(452,0,cs),
(485,0,o),
(497,17,o),
(516,50,cs),
(532,79,o),
(535,86,o),
(534,94,cs),
(533,109,o),
(521,116,o),
(510,116,cs),
(498,116,o),
(490,108,o),
(488,104,cs),
(476,81,ls),
(464,59,o),
(455,46,o),
(448,46,cs),
(428,46,o),
(429,111,o),
(431,132,cs),
(483,623,ls),
(485,639,o),
(471,649,o),
(457,649,cs),
(446,649,o),
(435,643,o),
(433,628,cs)
);
}
);
vertWidth = 0;
width = 626;
},
{
layerId = m002;
shapes = (
{
closed = 1;
nodes = (
(458,543,l),
(439,543,l),
(433,510,ls),
(417,423,o),
(388,364,o),
(371,337,cs),
(328,265,o),
(224,86,o),
(177,86,cs),
(158,86,o),
(156,125,o),
(163,185,cs),
(209,600,ls),
(212,629,o),
(190,650,o),
(161,650,cs),
(128,651,o),
(111,624,o),
(109,606,cs),
(63,195,ls),
(48,57,o),
(94,-4,o),
(167,-4,cs),
(252,-4,o),
(335,76,o),
(419,215,c),
(435,385,l)
);
},
{
closed = 1;
nodes = (
(397,156,ls),
(388,73,o),
(409,0,o),
(488,0,cs),
(527,0,o),
(554,15,o),
(576,52,cs),
(593,81,o),
(594,94,o),
(591,106,cs),
(587,121,o),
(576,134,o),
(562,138,cs),
(550,141,o),
(538,139,o),
(529,132,c),
(524,126,ls),
(518,119,o),
(512,89,o),
(499,89,cs),
(491,89,o),
(492,115,o),
(502,208,cs),
(543,600,ls),
(546,632,o),
(522,651,o),
(494,651,cs),
(472,651,o),
(446,636,o),
(444,613,cs)
);
}
);
vertWidth = 0;
width = 698;
}
);
},
{
color = 6;
glyphname = a;
kernLeft = o_left;
kernRight = n_right;
layers = (
{
layerId = m01;
shapes = (
{
closed = 1;
nodes = (
(143,-4,o),
(188,49,o),
(224,113,c),
(233,224,l),
(180,93,o),
(126,46,o),
(97,46,cs),
(70,46,o),
(60,61,o),
(60,126,cs),
(60,184,o),
(93,300,o),
(164,300,cs),
(248,300,l),
(253,350,l),
(161,350,ls),
(58,350,o),
(10,211,o),
(10,121,cs),
(10,21,o),
(51,-4,o),
(89,-4,cs)
);
},
{
closed = 1;
nodes = (
(250,0,o),
(250,18,o),
(251,31,cs),
(283,323,ls),
(284,336,o),
(275,350,o),
(266,350,cs),
(236,350,l),
(201,27,ls),
(200,15,o),
(202,0,o),
(224,0,cs)
);
}
);
vertWidth = 0;
width = 334;
},
{
layerId = m002;
shapes = (
{
closed = 1;
nodes = (
(141,-4,o),
(179,34,o),
(205,67,c),
(215,180,l),
(176,114,o),
(144,83,o),
(110,83,cs),
(92,83,o),
(85,101,o),
(85,130,cs),
(85,184,o),
(107,267,o),
(199,267,c),
(226,267,l),
(235,350,l),
(195,350,l),
(39,350,o),
(-4,231,o),
(-4,120,cs),
(-4,48,o),
(39,-4,o),
(91,-4,cs)
);
},
{
closed = 1;
nodes = (
(263,0,o),
(273,22,o),
(275,37,cs),
(302,295,ls),
(305,325,o),
(286,350,o),
(261,350,cs),
(215,350,l),
(180,44,ls),
(177,21,o),
(195,0,o),
(227,0,cs)
);
}
);
vertWidth = 0;
width = 369;
}
);
unicode = 97;
},
{
color = 6;
glyphname = b;
kernLeft = h_left;
kernRight = o_right;
layers = (
{
layerId = m01;
shapes = (
{
closed = 1;
nodes = (
(8,10,o),
(15,0,o),
(27,0,c),
(58,0,l),
(124,621,ls),
(126,640,o),
(115,650,o),
(103,650,cs),
(90,650,o),
(76,641,o),
(74,621,cs),
(9,22,ls)
);
},
{
closed = 1;
nodes = (
(283,328,o),
(242,353,o),
(204,353,cs),
(150,353,o),
(104,297,o),
(69,230,c),
(58,119,l),
(111,250,o),
(167,303,o),
(196,303,cs),
(223,303,o),
(233,288,o),
(233,223,cs),
(233,165,o),
(200,50,o),
(129,50,cs),
(41,50,l),
(36,0,l),
(132,0,ls),
(235,0,o),
(283,138,o),
(283,228,cs)
);
}
);
vertWidth = 0;
width = 332;
},
{
layerId = m002;
shapes = (
{
closed = 1;
nodes = (
(7,18,o),
(26,0,o),
(53,0,cs),
(98,0,l),
(163,599,ls),
(167,632,o),
(148,650,o),
(121,650,cs),
(101,650,o),
(74,640,o),
(70,607,cs),
(10,44,ls)
);
},
{
closed = 1;
nodes = (
(323,312,o),
(282,354,o),
(227,354,cs),
(185,354,o),
(131,312,o),
(105,277,c),
(91,153,l),
(138,239,o),
(190,267,o),
(209,267,cs),
(227,267,o),
(237,249,o),
(237,221,cs),
(237,172,o),
(228,82,o),
(115,82,cs),
(66,82,l),
(56,0,l),
(118,0,ls),
(263,0,o),
(323,116,o),
(323,245,cs)
);
}
);
vertWidth = 0;
width = 383;
}
);
unicode = 98;
},
{
color = 6;
glyphname = c;
kernLeft = o_left;
layers = (
{
layerId = m01;
shapes = (
{
closed = 1;
nodes = (
(149,-4,o),
(203,60,o),
(239,131,cs),
(244,141,o),
(234,154,o),
(227,158,cs),
(219,162,o),
(201,165,o),
(195,154,cs),
(165,96,o),
(120,46,o),
(96,46,cs),
(68,46,o),
(60,77,o),
(61,105,cs),
(63,181,o),
(90,300,o),
(164,300,cs),
(182,300,o),
(207,296,o),
(220,294,cs),
(232,292,o),
(248,292,o),
(256,309,cs),
(263,324,o),
(259,337,o),
(245,340,cs),
(226,344,o),
(191,350,o),
(164,350,cs),
(51,350,o),
(11,207,o),
(10,95,cs),
(9,20,o),
(55,-4,o),
(96,-4,cs)
);
}
);
vertWidth = 0;
width = 286;
},
{
layerId = m002;
shapes = (
{
closed = 1;
nodes = (
(156,-4,o),
(213,56,o),
(248,121,cs),
(254,132,o),
(253,159,o),
(227,172,cs),
(201,185,o),
(175,179,o),
(167,164,cs),
(145,122,o),
(115,83,o),
(98,83,cs),
(84,83,o),
(75,99,o),
(77,118,cs),
(82,164,o),
(92,264,o),
(151,264,cs),
(162,264,o),
(191,262,o),
(213,259,cs),
(233,256,o),
(252,256,o),
(262,284,cs),
(273,315,o),
(260,334,o),
(244,340,cs),
(230,345,o),
(189,350,o),
(158,350,cs),
(28,350,o),
(0,233,o),
(-12,120,cs),
(-23,24,o),
(39,-4,o),
(88,-4,cs)
);
}
);
vertWidth = 0;
width = 308;
}
);
unicode = 99;
},
{
color = 6;
glyphname = d;
kernLeft = o_left;
layers = (
{
layerId = m01;
shapes = (
{
closed = 1;
nodes = (
(237,0,o),
(249,7,o),
(251,22,cs),
(315,624,ls),
(317,640,o),
(304,650,o),
(290,650,cs),
(279,650,o),
(267,644,o),
(265,629,cs),
(201,27,ls),
(199,9,o),
(212,0,o),
(226,0,cs)
);
},
{
closed = 1;
nodes = (
(10,21,o),
(51,-4,o),
(89,-4,cs),
(143,-4,o),
(188,51,o),
(224,115,c),
(233,225,l),
(180,94,o),
(126,46,o),
(97,46,cs),
(70,46,o),
(60,61,o),
(60,126,cs),
(60,184,o),
(93,300,o),
(164,300,cs),
(252,300,l),
(257,350,l),
(161,350,ls),
(58,350,o),
(10,211,o),
(10,121,cs)
);
}
);
vertWidth = 0;
width = 340;
},
{
layerId = m002;
shapes = (
{
closed = 1;
nodes = (
(246,0,o),
(271,15,o),
(274,44,cs),
(333,599,ls),
(336,631,o),
(314,650,o),
(286,650,cs),
(264,650,o),
(242,640,o),
(239,612,cs),
(182,50,ls),
(178,15,o),
(201,0,o),
(224,0,cs)
);
},
{
closed = 1;
nodes = (
(-8,21,o),
(45,-4,o),
(92,-4,cs),
(132,-4,o),
(176,27,o),
(203,63,c),
(214,183,l),
(165,101,o),
(130,83,o),
(108,83,cs),
(90,83,o),
(82,101,o),
(82,122,cs),
(82,175,o),
(96,263,o),
(197,263,c),
(224,263,l),
(233,350,l),
(193,350,l),
(37,350,o),
(-8,219,o),
(-8,104,cs)
);
}
);
vertWidth = 0;
width = 375;
},
{
associatedMasterId = m002;
layerId = "E9F6C407-A369-43B4-BB67-C7ADEE762928";
name = background;
shapes = (
{
closed = 0;
nodes = (
(17,120,l)
);
},
{
closed = 1;
nodes = (
(269,0,o),
(294,15,o),
(297,44,cs),
(356,599,ls),
(359,631,o),
(337,650,o),
(309,650,cs),
(287,650,o),
(265,640,o),
(262,612,cs),
(202,50,ls),
(198,15,o),
(224,0,o),
(247,0,cs)
);
},
{
closed = 1;
nodes = (
(6,21,o),
(68,-4,o),
(125,-4,cs),
(155,-4,o),
(193,17,o),
(224,47,c),
(238,195,l),
(189,112,o),
(153,83,o),
(131,83,cs),
(113,83,o),
(103,101,o),
(106,130,cs),
(111,175,o),
(107,263,o),
(220,263,c),
(247,263,l),
(256,350,l),
(216,350,l),
(60,350,o),
(32,261,o),
(17,120,c)
);
}
);
vertWidth = 0;
width = 500;
}
);
unicode = 100;
},
{
color = 6;
glyphname = e;
kernLeft = o_left;
layers = (
{
layerId = m01;
shapes = (
{
closed = 1;
nodes = (
(145,-4,o),
(195,39,o),
(215,70,cs),
(234,99,o),
(236,115,o),
(225,123,cs),
(214,131,o),
(198,130,o),
(185,113,cs),
(170,92,o),
(132,46,o),
(95,46,cs),
(77,46,o),
(62,69,o),
(63,98,cs),
(66,193,o),
(89,300,o),
(186,300,cs),
(204,300,o),
(217,292,o),
(216,284,cs),
(214,267,o),
(121,194,o),
(57,194,c),
(49,145,l),
(141,145,o),
(260,222,o),
(267,287,cs),
(271,328,o),
(228,350,o),
(177,350,cs),
(61,350,o),
(17,225,o),
(13,107,cs),
(9,19,o),
(54,-4,o),
(92,-4,cs)
);
}
);
vertWidth = 0;
width = 301;
},
{
layerId = m002;
shapes = (
{
closed = 1;
nodes = (
(177,-4,o),
(219,45,o),
(238,71,cs),
(261,102,o),
(247,130,o),
(232,141,cs),
(211,155,o),
(190,145,o),
(171,120,cs),
(160,106,o),
(137,81,o),
(99,81,cs),
(86,81,o),
(85,102,o),
(86,118,cs),
(89,177,o),
(113,281,o),
(168,281,cs),
(182,281,o),
(196,278,o),
(194,270,cs),
(183,230,o),
(93,202,o),
(58,202,c),
(50,136,l),
(156,136,o),
(246,180,o),
(275,251,cs),
(296,303,o),
(265,350,o),
(181,351,cs),
(51,352,o),
(2,247,o),
(0,117,cs),
(-1,19,o),
(45,-4,o),
(88,-4,cs)
);
}
);
vertWidth = 0;
width = 326;
}
);
unicode = 101;
},
{
color = 6;
glyphname = f;
layers = (
{
layerId = m01;
shapes = (
{
closed = 1;
nodes = (
(83,0,o),
(89,15,o),
(90,27,cs),
(142,518,ls),
(148,578,o),
(172,600,o),
(205,600,cs),
(216,600,o),
(227,599,o),
(237,596,cs),
(245,594,o),
(263,592,o),
(270,611,cs),
(277,629,o),
(265,639,o),
(257,642,cs),
(240,647,o),
(221,650,o),
(202,650,cs),
(152,650,o),
(102,616,o),
(93,527,cs),
(40,28,ls),
(39,16,o),
(48,0,o),
(66,0,cs)
);
},
{
closed = 1;
nodes = (
(-25,316,o),
(-17,305,o),
(3,305,cs),
(198,305,ls),
(218,305,o),
(222,316,o),
(222,328,cs),
(222,340,o),
(215,350,o),
(195,350,cs),
(0,350,ls),
(-20,350,o),
(-25,340,o),
(-25,328,cs)
);
}
);
vertWidth = 0;
width = 224;
},
{
layerId = m002;
shapes = (
{
closed = 1;
nodes = (
(98,-2,o),
(120,18,o),
(123,42,cs),
(172,502,ls),
(176,541,o),
(193,560,o),
(213,560,cs),
(229,560,o),
(244,556,o),
(252,553,cs),
(266,548,o),
(286,550,o),
(300,578,cs),
(313,604,o),
(309,624,o),
(289,634,cs),
(262,648,o),
(240,650,o),
(199,650,cs),
(148,650,o),
(88,614,o),
(78,519,cs),
(28,49,ls),
(26,26,o),
(37,-2,o),
(71,-2,cs)
);
},
{
closed = 1;
nodes = (
(-31,283,o),
(-12,265,o),
(19,265,cs),
(202,265,ls),
(232,265,o),
(250,281,o),
(249,307,cs),
(247,331,o),
(229,350,o),
(197,350,cs),
(14,350,ls),
(-17,350,o),
(-34,331,o),
(-32,307,cs)
);
}
);
vertWidth = 0;
width = 270;
}
);
unicode = 102;
},
{
color = 6;
glyphname = g;
kernLeft = o_left;
layers = (
{
layerId = m01;
shapes = (
{
closed = 1;
nodes = (
(10,21,o),
(51,-4,o),
(89,-4,cs),
(143,-4,o),
(189,59,o),
(225,124,c),
(236,241,l),
(183,110,o),
(126,46,o),
(97,46,cs),
(70,46,o),
(60,61,o),
(60,126,cs),
(60,184,o),
(93,300,o),
(164,300,cs),
(247,300,l),
(252,350,l),
(161,350,ls),
(58,350,o),
(10,211,o),
(10,121,cs)
);
},
{
closed = 1;
nodes = (
(-34,-252,o),
(-31,-266,o),
(-20,-274,cs),
(-2,-287,o),
(32,-300,o),
(68,-300,cs),
(119,-300,o),
(155,-287,o),
(180,-263,cs),
(217,-228,o),
(231,-169,o),
(239,-95,cs),
(284,326,ls),
(286,343,o),
(275,350,o),
(258,350,c),
(236,350,l),
(189,-95,ls),
(184,-143,o),
(176,-195,o),
(146,-224,cs),
(128,-243,o),
(98,-250,o),
(64,-250,cs),
(45,-250,o),
(22,-240,o),
(7,-233,cs),
(0,-230,o),
(-14,-228,o),
(-24,-240,cs)
);
}
);
vertWidth = 0;
width = 335;
},
{
layerId = m002;
shapes = (
{
closed = 1;
nodes = (
(-18,21,o),
(48,-4,o),
(93,-4,cs),
(135,-4,o),
(175,32,o),
(205,63,c),
(215,176,l),
(168,98,o),
(133,83,o),
(111,83,cs),
(93,83,o),
(79,101,o),
(82,130,cs),
(87,175,o),
(87,263,o),
(200,263,cs),
(227,263,l),
(236,350,l),
(196,350,ls),
(40,350,o),
(8,261,o),
(-7,120,cs)
);
},
{
closed = 1;
nodes = (
(-54,-243,o),
(-37,-268,o),
(-21,-278,cs),
(-7,-287,o),
(35,-300,o),
(83,-300,cs),
(138,-300,o),
(177,-276,o),
(214,-237,cs),
(258,-189,o),
(259,-112,o),
(268,-28,cs),
(305,305,l),
(307,335,o),
(279,350,o),
(252,350,cs),
(213,350,l),
(174,-20,ls),
(167,-83,o),
(163,-144,o),
(134,-174,cs),
(116,-193,o),
(95,-202,o),
(74,-202,cs),
(61,-202,o),
(43,-199,o),
(36,-196,cs),
(13,-185,o),
(-17,-181,o),
(-35,-211,cs)
);
}
);
vertWidth = 0;
width = 372;
}
);
unicode = 103;
},
{
color = 6;
glyphname = h;
kernLeft = h_left;
kernRight = n_right;
layers = (
{
layerId = m01;
shapes = (
{
closed = 1;
nodes = (
(259,0,o),
(259,18,o),
(260,31,cs),
(283,234,ls),
(289,291,o),
(263,354,o),
(205,354,cs),
(150,354,o),
(111,310,o),
(68,238,c),
(61,128,l),
(121,264,o),
(160,305,o),
(202,305,cs),
(225,305,o),
(237,272,o),
(233,234,cs),
(211,31,ls),
(209,15,o),
(211,0,o),
(233,0,c)
);
},
{
closed = 1;
nodes = (
(45,0,o),
(57,7,o),
(59,23,cs),
(123,623,ls),
(125,641,o),
(115,650,o),
(102,650,cs),
(89,650,o),
(75,641,o),
(73,623,cs),
(9,23,ls),
(7,8,o),
(19,0,o),
(32,0,cs)
);
}
);
vertWidth = 0;
width = 340;
},
{
layerId = m002;
shapes = (
{
closed = 1;
nodes = (
(305,0,o),
(318,18,o),
(320,38,cs),
(338,206,ls),
(348,301,o),
(305,354,o),
(236,354,cs),
(188,354,o),
(143,324,o),
(119,293,c),
(106,173,l),
(144,242,o),
(182,266,o),
(213,266,cs),
(240,266,o),
(246,239,o),
(243,214,cs),
(225,46,ls),
(222,22,o),
(237,0,o),
(269,0,cs)
);
},
{
closed = 1;
nodes = (
(81,-2,o),
(102,11,o),
(105,37,cs),
(164,601,ls),
(167,633,o),
(147,653,o),
(120,653,cs),
(96,653,o),
(72,637,o),
(69,609,cs),
(10,45,ls),
(7,17,o),
(30,-2,o),
(57,-2,cs)
);
}
);
vertWidth = 0;
width = 411;
}
);
unicode = 104;
},
{
color = 6;
glyphname = i;
layers = (
{
layerId = m01;
shapes = (
{
closed = 1;
nodes = (
(52,0,o),
(65,10,o),
(67,28,cs),
(98,320,ls),
(100,340,o),
(88,350,o),
(76,350,cs),
(63,350,o),
(50,341,o),
(48,323,cs),
(17,28,ls),
(15,9,o),
(27,0,o),
(40,0,cs)
);
},
{
closed = 1;
nodes = (
(101,426,o),
(116,444,o),
(116,461,cs),
(116,480,o),
(101,495,o),
(83,495,cs),
(66,495,o),
(49,480,o),
(49,461,cs),
(49,444,o),
(66,426,o),
(83,426,cs)
);
}
);
vertWidth = 0;
width = 159;
},
{
layerId = m002;
shapes = (
{
closed = 1;
nodes = (
(89,0,o),
(116,10,o),
(119,37,cs),
(146,294,ls),
(149,327,o),
(123,350,o),
(98,350,cs),
(74,350,o),
(50,332,o),
(47,305,cs),
(20,49,ls),
(17,19,o),
(41,0,o),
(67,0,cs)
);
},
{
closed = 1;
nodes = (
(146,414,o),
(168,437,o),
(168,466,cs),
(168,495,o),
(146,518,o),
(117,518,cs),
(89,518,o),
(62,495,o),
(62,466,cs),
(62,437,o),
(89,414,o),
(117,414,cs)
);
}
);
vertWidth = 0;
width = 236;
}
);
unicode = 105;
},
{
color = 6;
glyphname = j;
layers = (
{
layerId = m01;
shapes = (
{
closed = 1;
nodes = (
(-208,-252,o),
(-205,-266,o),
(-194,-274,cs),
(-176,-287,o),
(-142,-300,o),
(-106,-300,cs),
(-55,-300,o),
(-19,-287,o),
(6,-263,cs),
(47,-224,o),
(59,-156,o),
(65,-94,cs),
(109,327,ls),
(111,344,o),
(99,351,o),
(82,351,cs),
(71,351,o),
(60,340,o),
(59,329,cs),
(15,-94,ls),
(11,-129,o),
(3,-197,o),
(-27,-226,cs),
(-45,-245,o),
(-76,-250,o),
(-110,-250,cs),
(-129,-250,o),
(-152,-240,o),
(-167,-233,cs),
(-174,-230,o),
(-188,-228,o),
(-198,-240,cs)
);
},
{
closed = 1;
nodes = (
(116,426,o),
(129,442,o),
(129,462,cs),
(129,481,o),
(116,495,o),
(97,495,cs),
(79,495,o),
(62,481,o),
(62,462,cs),
(62,442,o),
(79,426,o),
(97,426,cs)
);
}
);
vertWidth = 0;
width = 172;
},
{
layerId = m002;
shapes = (
{
closed = 1;
nodes = (
(-212,-243,o),
(-193,-268,o),
(-177,-278,cs),
(-163,-287,o),
(-121,-300,o),
(-73,-300,cs),
(-18,-300,o),
(18,-276,o),
(54,-236,cs),
(97,-189,o),
(107,-78,o),
(112,-28,cs),
(147,305,ls),
(150,335,o),
(126,350,o),
(96,350,cs),
(68,350,o),
(50,335,o),
(47,306,cs),
(12,-20,ls),
(9,-51,o),
(0,-149,o),
(-24,-174,cs),
(-42,-193,o),
(-61,-202,o),
(-82,-202,cs),
(-95,-202,o),
(-113,-200,o),
(-120,-196,cs),
(-133,-189,o),
(-171,-181,o),
(-189,-208,cs)
);
},
{
closed = 1;
nodes = (
(143,416,o),
(165,443,o),
(165,473,cs),
(165,504,o),
(139,522,o),
(113,522,cs),
(83,522,o),
(57,498,o),
(57,469,cs),
(57,438,o),
(87,416,o),
(114,416,cs)
);
}
);
vertWidth = 0;
width = 233;
}
);
unicode = 106;
},
{
color = 6;
glyphname = k;
kernLeft = h_left;
layers = (
{
layerId = m01;
shapes = (
{
closed = 1;
nodes = (
(47,0,o),
(57,7,o),
(59,26,cs),
(123,621,ls),
(125,642,o),
(114,650,o),
(98,650,cs),
(83,650,o),
(75,639,o),
(73,622,cs),
(9,26,ls),
(7,10,o),
(18,0,o),
(31,0,cs)
);
},
{
closed = 1;
nodes = (
(248,-1,o),
(258,5,o),
(260,16,cs),
(261,23,o),
(263,32,o),
(254,42,cs),
(129,175,l),
(125,150,l),
(247,185,o),
(273,237,o),
(278,263,cs),
(286,309,o),
(254,354,o),
(207,354,c),
(174,354,o),
(119,324,o),
(65,245,c),
(56,166,l),
(117,259,o),
(172,305,o),
(200,305,cs),
(219,305,o),
(228,288,o),
(228,275,c),
(228,249,o),
(215,225,o),
(93,186,cs),
(82,182,o),
(76,157,o),
(88,145,cs),
(207,18,ls),
(216,8,o),
(225,-1,o),
(238,-1,cs)
);
}
);
vertWidth = 0;
width = 315;
},
{
layerId = m002;
shapes = (
{
closed = 1;
nodes = (
(80,-2,o),
(104,11,o),
(107,40,cs),
(165,599,ls),
(169,633,o),
(147,653,o),
(119,653,cs),
(94,653,o),
(72,638,o),
(69,608,cs),
(11,48,ls),
(8,19,o),
(26,-2,o),
(53,-2,cs)
);
},
{
closed = 1;
nodes = (
(273,0,o),
(294,13,o),
(298,33,cs),
(300,45,o),
(301,57,o),
(287,71,cs),
(202,158,l),
(187,133,l),
(267,145,o),
(324,207,o),
(328,242,cs),
(334,293,o),
(295,353,o),
(244,353,cs),
(194,353,o),
(115,301,o),
(83,266,c),
(102,186,l),
(111,206,o),
(201,275,o),
(235,275,cs),
(243,275,o),
(250,268,o),
(250,261,cs),
(250,236,o),
(175,195,o),
(114,184,cs),
(94,180,o),
(93,145,o),
(112,125,cs),
(204,27,ls),
(219,11,o),
(235,0,o),
(253,0,cs)
);
}
);
vertWidth = 0;
width = 389;
},
{
associatedMasterId = m01;
layerId = "77AB87CF-DFD9-4464-B3BE-FB0C2F81C02D";
name = background;
shapes = (
{
closed = 1;
nodes = (
(125,642,o),
(114,650,o),
(98,650,cs),
(83,650,o),
(75,639,o),
(73,622,cs),
(9,26,ls),
(7,10,o),
(18,0,o),
(31,0,cs),
(47,0,o),
(57,7,o),
(59,26,cs),
(123,621,ls)
);
},
{
closed = 1;
nodes = (
(61,175,l),
(207,18,ls),
(216,8,o),
(225,-1,o),
(238,-1,cs),
(248,-1,o),
(258,5,o),
(260,16,cs),
(261,23,o),
(263,32,o),
(254,42,cs),
(129,175,l)
);
},
{
closed = 1;
nodes = (
(67,167,o),
(81,189,o),
(88,197,cs),
(103,215,o),
(129,259,o),
(146,274,cs),
(165,290,o),
(185,305,o),
(205,305,cs),
(219,305,o),
(229,287,o),
(228,274,cs),
(225,248,o),
(208,236,o),
(180,219,cs),
(160,207,o),
(89,185,o),
(61,175,c),
(123,144,l),
(136,148,o),
(185,164,o),
(203,175,cs),
(238,196,o),
(274,225,o),
(277,254,cs),
(281,288,o),
(266,354,o),
(207,354,cs),
(174,354,o),
(142,336,o),
(113,311,cs),
(97,297,o),
(81,271,o),
(65,254,c),
(61,158,l)
);
}
);
vertWidth = 0;
width = 500;
}
);
unicode = 107;
},
{
color = 6;
glyphname = l;
kernLeft = h_left;
layers = (
{
layerId = m01;
shapes = (
{
closed = 1;
nodes = (
(61,0,o),
(73,7,o),
(74,22,cs),
(138,624,ls),
(140,640,o),
(126,650,o),
(112,650,cs),
(101,650,o),
(90,644,o),
(88,629,cs),
(24,27,ls),
(22,9,o),
(36,0,o),
(50,0,cs)
);
}
);
vertWidth = 0;
width = 173;
},
{
layerId = m002;
shapes = (
{
closed = 1;
nodes = (
(78,0,o),
(102,15,o),
(105,44,cs),
(163,599,ls),
(166,631,o),
(148,653,o),
(120,653,cs),
(98,653,o),
(72,640,o),
(69,612,cs),
(10,50,ls),
(6,15,o),
(33,0,o),
(56,0,cs)
);
}
);
vertWidth = 0;
width = 208;
}
);
unicode = 108;
},
{
color = 6;
glyphname = m;
kernLeft = n_left;
kernRight = n_right;
layers = (
{
layerId = m01;
shapes = (
{
closed = 1;
nodes = (
(56,0,o),
(58,18,o),
(59,30,cs),
(91,323,ls),
(93,340,o),
(90,350,o),
(73,350,c),
(54,350,o),
(43,342,o),
(41,323,cs),
(10,30,ls),
(8,15,o),
(11,0,o),
(33,0,cs)
);
},
{
closed = 1;
nodes = (
(243,0,o),
(246,18,o),
(247,30,cs),
(270,234,ls),
(276,291,o),
(253,354,o),
(195,354,cs),
(140,354,o),
(103,305,o),
(62,235,c),
(53,114,l),
(115,251,o),
(150,305,o),
(192,305,cs),
(217,305,o),
(223,261,o),
(220,234,cs),
(198,30,ls),
(196,15,o),
(198,0,o),
(220,0,cs)
);
},
{
closed = 1;
nodes = (
(432,0,o),
(434,18,o),
(435,30,cs),
(458,234,ls),
(464,291,o),
(441,354,o),
(383,354,cs),
(328,354,o),
(291,305,o),
(250,235,c),
(241,114,l),
(303,251,o),
(338,305,o),
(380,305,cs),
(405,305,o),
(411,261,o),
(408,234,cs),
(386,30,ls),
(384,15,o),
(386,0,o),
(408,0,cs)
);
}
);
vertWidth = 0;
width = 515;
},
{
layerId = m002;
shapes = (
{
closed = 1;
nodes = (
(81,0,o),
(92,23,o),
(94,37,cs),
(123,302,ls),
(126,331,o),
(113,350,o),
(84,350,cs),
(55,350,o),
(33,337,o),
(27,309,c),
(-1,43,ls),
(-4,15,o),
(15,0,o),
(44,0,cs)
);
},
{
closed = 1;
nodes = (
(282,0,o),
(295,23,o),
(297,38,cs),
(315,206,ls),
(325,301,o),
(294,354,o),
(216,354,cs),
(177,354,o),
(131,322,o),
(109,297,c),
(97,191,l),
(129,241,o),
(160,266,o),
(197,266,cs),
(213,266,o),
(223,239,o),
(220,214,cs),
(202,46,ls),
(199,22,o),
(214,0,o),
(246,0,cs)
);
},
{
closed = 1;
nodes = (
(485,0,o),
(498,23,o),
(500,38,cs),
(518,206,ls),
(528,301,o),
(497,354,o),
(419,354,cs),
(380,354,o),
(332,322,o),
(310,297,c),
(298,191,l),
(333,246,o),
(369,266,o),
(400,266,cs),
(416,266,o),
(426,239,o),
(423,214,cs),
(405,46,ls),
(402,22,o),
(417,0,o),
(449,0,cs)
);
}
);
vertWidth = 0;
width = 592;
}
);
unicode = 109;
},
{
color = 6;
glyphname = n;
kernLeft = n_left;
kernRight = n_right;
layers = (
{
layerId = m01;
shapes = (
{
closed = 1;
nodes = (
(57,0,o),
(55,18,o),
(57,31,cs),
(91,323,ls),
(93,340,o),
(90,350,o),
(73,350,cs),
(53,350,o),
(43,341,o),
(41,323,cs),
(8,31,ls),
(6,15,o),
(9,0,o),
(31,0,cs)
);
},
{
closed = 1;
nodes = (
(251,0,o),
(250,18,o),
(252,31,cs),
(277,234,ls),
(284,291,o),
(257,354,o),
(199,354,cs),
(144,354,o),
(101,305,o),
(63,226,c),
(53,114,l),
(116,252,o),
(154,305,o),
(196,305,cs),
(221,305,o),
(230,261,o),
(227,234,cs),
(203,31,ls),
(201,15,o),
(203,0,o),
(225,0,c)
);
}
);
vertWidth = 0;
width = 334;
},
{
layerId = m002;
shapes = (
{
closed = 1;
nodes = (
(80,0,o),
(92,22,o),
(94,37,cs),
(123,302,ls),
(126,332,o),
(114,350,o),
(78,350,cs),
(46,350,o),
(29,328,o),
(26,300,cs),
(-1,44,ls),
(-4,20,o),
(9,0,o),
(43,0,cs)
);
},
{
closed = 1;
nodes = (
(292,0,o),
(307,17,o),
(309,38,cs),
(327,206,ls),
(337,301,o),
(294,354,o),
(216,354,cs),
(165,354,o),
(128,322,o),
(109,289,c),
(96,173,l),
(131,237,o),
(170,266,o),
(204,266,cs),
(228,266,o),
(235,243,o),
(232,214,cs),
(214,46,ls),
(211,22,o),
(224,0,o),
(256,0,cs)
);
}
);
vertWidth = 0;
width = 400;
}
);
unicode = 110;
},
{
color = 6;
glyphname = o;
kernLeft = o_left;
kernRight = o_right;
layers = (
{
layerId = m01;
shapes = (
{
closed = 1;
nodes = (
(180,-4,o),
(267,157,o),
(277,248,cs),
(283,308,o),
(234,350,o),
(164,350,cs),
(51,350,o),
(11,207,o),
(10,95,cs),
(9,20,o),
(55,-4,o),
(96,-4,cs)
);
},
{
closed = 1;
nodes = (
(68,46,o),
(60,77,o),
(61,105,cs),
(63,181,o),
(90,300,o),
(164,300,cs),
(208,300,o),
(230,281,o),
(226,247,cs),
(216,163,o),
(133,46,o),
(96,46,cs)
);
}
);
vertWidth = 0;
width = 314;
},
{
layerId = m002;
shapes = (
{
closed = 1;
nodes = (
(207,-4,o),
(288,151,o),
(297,236,cs),
(306,313,o),
(244,350,o),
(168,350,cs),
(48,350,o),
(-7,242,o),
(-13,120,cs),
(-17,46,o),
(42,-4,o),
(98,-4,cs)
);
},
{
closed = 1;
nodes = (
(87,83,o),
(79,99,o),
(80,118,cs),
(85,185,o),
(105,264,o),
(161,264,cs),
(194,264,o),
(212,251,o),
(209,229,cs),
(204,184,o),
(144,83,o),
(108,83,cs)
);
}
);
vertWidth = 0;
width = 351;
}
);
unicode = 111;
},
{
color = 6;
glyphname = p;
kernLeft = n_left;
kernRight = o_right;
layers = (
{
layerId = m01;
shapes = (
{
closed = 1;
nodes = (
(14,-300,o),
(26,-292,o),
(28,-277,cs),
(93,327,ls),
(95,342,o),
(84,350,o),
(71,350,cs),
(59,350,o),
(45,342,o),
(43,327,cs),
(-22,-276,ls),
(-24,-292,o),
(-11,-300,o),
(2,-300,cs)
);
},
{
closed = 1;
nodes = (
(283,328,o),
(242,353,o),
(204,353,cs),
(150,353,o),
(106,304,o),
(70,240,c),
(60,124,l),
(113,255,o),
(161,305,o),
(196,305,cs),
(223,305,o),
(233,288,o),
(233,223,cs),
(233,132,o),
(197,50,o),
(129,50,cs),
(38,50,l),
(33,0,l),
(132,0,ls),
(228,0,o),
(283,111,o),
(283,228,cs)
);
}
);
vertWidth = 0;
width = 325;
},
{
layerId = m002;
shapes = (
{
closed = 1;
nodes = (
(36,-303,o),
(60,-288,o),
(63,-263,cs),
(122,299,ls),
(125,327,o),
(102,350,o),
(75,350,cs),
(52,350,o),
(30,335,o),
(27,310,cs),
(-32,-254,ls),
(-35,-283,o),
(-14,-303,o),
(13,-303,cs)
);
},
{
closed = 1;
nodes = (
(314,308,o),
(272,354,o),
(214,354,cs),
(166,354,o),
(116,304,o),
(94,277,c),
(80,155,l),
(129,238,o),
(179,267,o),
(198,267,cs),
(216,267,o),
(225,251,o),
(225,224,cs),
(225,160,o),
(205,82,o),
(98,82,cs),
(71,82,l),
(62,0,l),
(102,0,ls),
(231,0,o),
(314,77,o),
(314,241,cs)
);
}
);
vertWidth = 0;
width = 374;
}
);
unicode = 112;
},
{
color = 6;
glyphname = q;
kernLeft = o_left;
layers = (
{
layerId = m01;
shapes = (
{
closed = 1;
nodes = (
(307,-180,o),
(293,-182,o),
(287,-196,cs),
(271,-235,o),
(262,-252,o),
(247,-252,cs),
(227,-252,o),
(226,-226,o),
(230,-191,cs),
(284,327,ls),
(285,335,o),
(283,350,o),
(261,350,cs),
(239,350,l),
(180,-181,ls),
(171,-262,o),
(196,-300,o),
(245,-300,cs),
(292,-300,o),
(321,-246,o),
(330,-218,cs),
(335,-203,o),
(328,-191,o),
(318,-186,cs)
);
},
{
closed = 1;
nodes = (
(10,21,o),
(51,-4,o),
(89,-4,cs),
(143,-4,o),
(189,58,o),
(225,122,c),
(235,234,l),
(182,103,o),
(126,46,o),
(97,46,cs),
(70,46,o),
(60,61,o),
(60,126,cs),
(60,184,o),
(93,300,o),
(164,300,c),
(238,300,l),
(243,350,l),
(161,350,l),
(58,350,o),
(10,211,o),
(10,121,cs)
);
}
);
vertWidth = 0;
width = 336;
},
{
layerId = m002;
shapes = (
{
closed = 1;
nodes = (
(325,-154,o),
(303,-152,o),
(294,-172,cs),
(278,-208,o),
(267,-220,o),
(257,-218,cs),
(247,-216,o),
(242,-204,o),
(246,-171,cs),
(298,296,ls),
(302,328,o),
(284,350,o),
(251,350,cs),
(209,350,l),
(155,-140,ls),
(144,-244,o),
(165,-300,o),
(248,-300,cs),
(300,-300,o),
(348,-261,o),
(363,-217,cs),
(370,-198,o),
(359,-179,o),
(343,-167,cs)
);
},
{
closed = 1;
nodes = (
(-9,33,o),
(42,-4,o),
(89,-4,cs),
(129,-4,o),
(170,27,o),
(199,60,c),
(213,177,l),
(168,103,o),
(127,83,o),
(105,83,cs),
(87,83,o),
(81,101,o),
(81,130,cs),
(81,182,o),
(102,266,o),
(195,266,cs),
(222,266,l),
(230,350,l),
(190,350,ls),
(34,350,o),
(-9,220,o),
(-9,120,cs)
);
}
);
vertWidth = 0;
width = 375;
},
{
associatedMasterId = m01;
layerId = "7AA63940-7118-473E-AF75-F16CFB947EEE";
name = background;
shapes = (
{
closed = 1;
nodes = (
(188,-154,ls),
(181,-223,o),
(186,-300,o),
(256,-300,cs),
(307,-300,o),
(339,-218,o),
(338,-206,cs),
(337,-191,o),
(325,-184,o),
(314,-184,cs),
(302,-184,o),
(294,-192,o),
(292,-196,cs),
(266,-241,o),
(259,-252,o),
(252,-252,cs),
(232,-252,o),
(233,-203,o),
(237,-168,cs),
(289,327,ls),
(290,335,o),
(288,350,o),
(266,350,cs),
(241,350,l)
);
},
{
closed = 1;
nodes = (
(240,234,l),
(187,103,o),
(131,46,o),
(102,46,cs),
(75,46,o),
(65,61,o),
(65,126,cs),
(65,184,o),
(98,300,o),
(169,300,cs),
(182,300,o),
(235,300,o),
(243,300,c),
(248,350,l),
(236,350,o),
(182,350,o),
(166,350,cs),
(63,350,o),
(15,211,o),
(15,121,cs),
(15,21,o),
(56,-4,o),
(94,-4,cs),
(148,-4,o),
(194,58,o),
(230,122,c)
);
}
);
vertWidth = 0;
width = 500;
}
);
unicode = 113;
},
{
color = 6;
glyphname = r;
kernLeft = n_left;
layers = (
{
layerId = m01;
shapes = (
{
closed = 1;
nodes = (
(44,0,o),
(56,9,o),
(58,27,cs),
(89,320,ls),
(91,340,o),
(80,350,o),
(67,350,cs),
(55,350,o),
(41,341,o),
(39,323,cs),
(8,27,ls),
(6,9,o),
(18,0,o),
(31,0,cs)
);
},
{
closed = 1;
nodes = (
(267,258,o),
(275,268,o),
(271,287,cs),
(262,324,o),
(237,354,o),
(197,354,cs),
(142,354,o),
(102,310,o),
(61,224,c),
(51,114,l),
(113,251,o),
(152,305,o),
(194,305,cs),
(211,305,o),
(219,284,o),
(224,262,cs),
(226,251,o),
(244,247,o),
(256,253,cs)
);
}
);
vertWidth = 0;
width = 284;
},
{
layerId = m002;
shapes = (
{
closed = 1;
nodes = (
(67,-1,o),
(91,14,o),
(94,41,cs),
(120,297,ls),
(123,329,o),
(103,351,o),
(77,351,cs),
(55,351,o),
(29,336,o),
(26,309,cs),
(-1,48,ls),
(-4,18,o),
(18,-1,o),
(44,-1,cs)
);
},
{
closed = 1;
nodes = (
(297,242,o),
(308,266,o),
(301,290,cs),
(289,333,o),
(256,354,o),
(214,354,cs),
(166,354,o),
(131,318,o),
(108,295,c),
(95,173,l),
(130,237,o),
(170,266,o),
(193,266,cs),
(201,266,o),
(203,260,o),
(206,251,cs),
(216,225,o),
(243,217,o),
(271,230,cs)
);
}
);
vertWidth = 0;
width = 330;
}
);
unicode = 114;
},
{
color = 6;
glyphname = s;
layers = (
{
layerId = m01;
shapes = (
{
closed = 1;
nodes = (
(183,-4,o),
(228,22,o),
(236,73,cs),
(243,115,o),
(225,146,o),
(205,162,cs),
(180,183,o),
(152,201,o),
(126,216,cs),
(88,238,o),
(73,256,o),
(79,276,cs),
(85,296,o),
(107,302,o),
(132,302,cs),
(167,302,o),
(194,288,o),
(211,276,cs),
(227,265,o),
(242,262,o),
(251,276,cs),
(260,289,o),
(250,310,o),
(231,322,cs),
(198,343,o),
(166,351,o),
(139,351,cs),
(84,351,o),
(44,334,o),
(31,289,cs),
(18,244,o),
(49,204,o),
(95,176,cs),
(123,159,o),
(145,147,o),
(163,133,cs),
(177,122,o),
(192,102,o),
(187,80,cs),
(181,55,o),
(162,46,o),
(137,46,cs),
(100,46,o),
(63,69,o),
(48,81,cs),
(34,92,o),
(20,89,o),
(10,74,cs),
(0,59,o),
(11,47,o),
(28,34,cs),
(48,19,o),
(92,-4,o),
(135,-4,cs)
);
}
);
vertWidth = 0;
width = 296;
},
{
layerId = m002;
shapes = (
{
closed = 1;
nodes = (
(169,-4,o),
(229,21,o),
(235,88,cs),
(239,129,o),
(217,161,o),
(197,178,cs),
(184,189,o),
(159,205,o),
(138,218,cs),
(117,231,o),
(92,241,o),
(93,254,cs),
(94,264,o),
(110,266,o),
(128,266,cs),
(147,266,o),
(171,256,o),
(182,251,cs),
(207,239,o),
(240,238,o),
(251,260,cs),
(265,290,o),
(246,317,o),
(208,336,cs),
(181,347,o),
(149,353,o),
(122,353,cs),
(58,353,o),
(7,322,o),
(1,261,cs),
(-4,215,o),
(43,175,o),
(73,157,cs),
(86,149,o),
(108,134,o),
(117,128,cs),
(136,115,o),
(143,108,o),
(143,100,cs),
(142,90,o),
(134,83,o),
(114,83,cs),
(91,83,o),
(66,102,o),
(51,112,cs),
(31,125,o),
(-4,119,o),
(-14,95,cs),
(-25,68,o),
(-9,46,o),
(17,28,cs),
(40,12,o),
(87,-4,o),
(119,-4,cs)
);
}
);
vertWidth = 0;
width = 312;
},
{
associatedMasterId = m01;
layerId = "3C077978-C8FA-4731-8A37-B704D155BD4D";
name = background;
shapes = (
{
closed = 1;
nodes = (
(101,46,o),
(69,68,o),
(53,80,cs),
(38,90,o),
(16,85,o),
(10,73,cs),
(1,56,o),
(16,45,o),
(34,32,cs),
(70,7,o),
(109,-4,o),
(136,-4,cs),
(184,-4,o),
(232,22,o),
(238,80,cs),
(242,117,o),
(225,145,o),
(206,162,cs),
(182,184,o),
(155,197,o),
(127,216,cs),
(104,231,o),
(76,246,o),
(78,265,cs),
(80,287,o),
(111,300,o),
(143,300,cs),
(175,300,o),
(203,289,o),
(215,279,cs),
(228,269,o),
(252,272,o),
(258,284,cs),
(267,301,o),
(254,315,o),
(235,325,cs),
(198,346,o),
(167,350,o),
(140,350,cs),
(80,350,o),
(35,319,o),
(28,265,cs),
(24,226,o),
(65,194,o),
(96,176,cs),
(124,159,o),
(149,144,o),
(164,133,cs),
(177,122,o),
(190,102,o),
(188,83,cs),
(185,55,o),
(160,48,o),
(133,46,cs)
);
}
);
vertWidth = 0;
width = 500;
}
);
unicode = 115;
},
{
color = 6;
glyphname = t;
layers = (
{
layerId = m01;
shapes = (
{
closed = 1;
nodes = (
(104,0,o),
(114,7,o),
(116,23,cs),
(182,624,ls),
(184,642,o),
(170,652,o),
(156,652,cs),
(145,652,o),
(134,645,o),
(132,631,cs),
(66,24,ls),
(64,8,o),
(78,0,o),
(91,0,cs)
);
},
{
closed = 1;
nodes = (
(-3,316,o),
(5,305,o),
(25,305,cs),
(238,305,ls),
(258,305,o),
(262,316,o),
(262,328,cs),
(262,340,o),
(255,350,o),
(235,350,cs),
(22,350,ls),
(2,350,o),
(-3,340,o),
(-3,328,cs)
);
}
);
vertWidth = 0;
width = 259;
},
{
layerId = m002;
shapes = (
{
closed = 1;
nodes = (
(120,0,o),
(142,9,o),
(145,35,cs),
(203,602,ls),
(206,631,o),
(183,650,o),
(155,650,cs),
(127,650,o),
(105,631,o),
(103,611,cs),
(45,44,ls),
(42,12,o),
(69,0,o),
(95,0,cs)
);
},
{
closed = 1;
nodes = (
(-33,283,o),
(-13,265,o),
(19,265,cs),
(229,265,ls),
(261,265,o),
(277,283,o),
(277,307,cs),
(277,332,o),
(256,350,o),
(224,350,cs),
(14,350,ls),
(-18,350,o),
(-33,332,o),
(-33,307,cs)
);
}
);
vertWidth = 0;
width = 290;
},
{
associatedMasterId = m01;
layerId = "648C1299-5437-418A-B7CF-2594514ADB2F";
name = background;
shapes = (
{
closed = 1;
nodes = (
(184,642,o),
(170,652,o),
(156,652,cs),
(145,652,o),
(134,645,o),
(132,631,cs),
(66,24,ls),
(64,8,o),
(78,0,o),
(91,0,cs),
(104,0,o),
(114,7,o),
(116,23,cs),
(182,624,ls)
);
},
{
closed = 1;
nodes = (
(258,305,o),
(262,316,o),
(262,328,cs),
(262,340,o),
(255,350,o),
(235,350,cs),
(22,350,ls),
(2,350,o),
(-3,340,o),
(-3,328,cs),
(-3,316,o),
(5,305,o),
(25,305,cs),
(238,305,ls)
);
}
);
vertWidth = 0;
width = 500;
}
);
unicode = 116;
},
{
color = 6;
glyphname = u;
kernLeft = n_left;
kernRight = n_right;
layers = (
{
layerId = m01;
shapes = (
{
closed = 1;
nodes = (
(242,0,o),
(251,9,o),
(253,27,cs),
(284,321,ls),
(286,335,o),
(283,350,o),
(262,350,cs),
(241,350,o),
(236,334,o),
(235,323,cs),
(203,27,ls),
(201,10,o),
(205,0,o),
(222,0,cs)
);
},
{
closed = 1;
nodes = (
(149,-4,o),
(191,49,o),
(233,120,c),
(242,230,l),
(180,93,o),
(139,45,o),
(97,45,cs),
(72,45,o),
(62,76,o),
(66,116,cs),
(88,321,ls),
(90,335,o),
(88,350,o),
(66,350,cs),
(44,350,o),
(41,334,o),
(40,323,cs),
(16,116,ls),
(8,51,o),
(36,-4,o),
(94,-4,cs)
);
}
);
vertWidth = 0;
width = 340;
},
{
layerId = m002;
shapes = (
{
closed = 1;
nodes = (
(290,0,o),
(308,16,o),
(311,42,cs),
(339,306,ls),
(342,330,o),
(329,350,o),
(295,350,cs),
(258,350,o),
(246,328,o),
(244,313,cs),
(215,48,ls),
(212,18,o),
(224,0,o),
(256,0,cs)
);
},
{
closed = 1;
nodes = (
(149,-4,o),
(202,31,o),
(232,65,c),
(242,170,l),
(202,107,o),
(152,84,o),
(129,84,cs),
(113,84,o),
(101,103,o),
(104,136,cs),
(122,304,ls),
(125,328,o),
(107,350,o),
(75,350,cs),
(39,350,o),
(29,327,o),
(27,312,cs),
(9,144,ls),
(-1,49,o),
(32,-4,o),
(110,-4,cs)
);
}
);
vertWidth = 0;
width = 407;
}
);
unicode = 117;
},
{
color = 6;
glyphname = v;
kernLeft = v_left;
kernRight = v_right;
layers = (
{
layerId = m01;
shapes = (
{
closed = 1;
nodes = (
(133,-4,o),
(220,70,o),
(287,314,cs),
(293,336,o),
(289,350,o),
(269,350,cs),
(251,350,o),
(242,341,o),
(237,322,cs),
(188,147,o),
(116,47,o),
(82,47,cs),
(71,47,o),
(64,67,o),
(68,102,cs),
(91,323,ls),
(93,343,o),
(83,350,o),
(70,350,cs),
(55,350,o),
(43,342,o),
(41,326,cs),
(18,102,ls),
(13,49,o),
(31,-4,o),
(73,-4,cs)
);
}
);
vertWidth = 0;
width = 305;
},
{
layerId = m002;
shapes = (
{
closed = 1;
nodes = (
(202,-4,o),
(264,92,o),
(330,289,cs),
(343,329,o),
(322,350,o),
(287,350,cs),
(260,350,o),
(246,337,o),
(236,308,cs),
(174,125,o),
(125,79,o),
(117,79,cs),
(109,79,o),
(107,90,o),
(115,157,cs),
(131,298,ls),
(135,331,o),
(111,350,o),
(84,350,cs),
(62,350,o),
(34,335,o),
(31,308,cs),
(11,115,ls),
(4,47,o),
(31,-4,o),
(89,-4,cs)
);
}
);
vertWidth = 0;
width = 370;
},
{
associatedMasterId = m01;
layerId = "77C62327-0034-436F-80D8-E93656396981";
name = background;
shapes = (
{
closed = 1;
nodes = (
(93,340,o),
(83,350,o),
(70,350,cs),
(58,350,o),
(43,341,o),
(41,323,cs),
(18,102,ls),
(12,49,o),
(31,-4,o),
(73,-4,cs),
(133,-4,o),
(192,69,o),
(222,138,cs),
(244,189,o),
(273,269,o),
(287,314,cs),
(294,336,o),
(289,350,o),
(269,350,cs),
(251,350,o),
(242,336,o),
(237,322,cs),
(222,279,o),
(206,229,o),
(187,183,cs),
(170,142,o),
(116,47,o),
(82,47,cs),
(71,47,o),
(64,67,o),
(68,102,cs),
(91,320,ls)
);
}
);
vertWidth = 0;
width = 500;
},
{
associatedMasterId = m002;
layerId = "177D28A6-3EE6-40DA-9B01-C948EE4F150A";
name = background;
shapes = (
{
closed = 1;
nodes = (
(146,331,o),
(122,350,o),
(95,350,cs),
(73,350,o),
(45,335,o),
(42,308,cs),
(22,115,ls),
(16,56,o),
(37,-4,o),
(100,-4,cs),
(186,-4,o),
(237,55,o),
(276,129,cs),
(299,173,o),
(328,248,o),
(341,289,cs),
(357,340,o),
(320,350,o),
(298,350,cs),
(271,350,o),
(259,337,o),
(247,308,cs),
(241,293,o),
(231,262,o),
(215,223,cs),
(201,188,o),
(177,125,o),
(149,96,cs),
(139,86,o),
(133,79,o),
(128,79,cs),
(114,79,o),
(122,113,o),
(127,157,cs),
(142,298,ls)
);
}
);
vertWidth = 0;
width = 500;
}
);
unicode = 118;
},
{
color = 6;
glyphname = w;
kernLeft = v_left;
kernRight = v_right;
layers = (
{
layerId = m01;
shapes = (
{
closed = 1;
nodes = (
(133,-4,o),
(186,58,o),
(246,215,c),
(268,350,l),
(250,350,o),
(243,336,o),
(239,322,cs),
(180,136,o),
(119,47,o),
(82,47,cs),
(61,47,o),
(66,79,o),
(68,102,cs),
(91,320,ls),
(93,340,o),
(83,350,o),
(70,350,cs),
(58,350,o),
(43,341,o),
(41,323,cs),
(18,102,ls),
(12,49,o),
(31,-4,o),
(73,-4,cs)
);
},
{
closed = 1;
nodes = (
(331,-4,o),
(411,57,o),
(485,314,cs),
(491,336,o),
(487,350,o),
(467,350,cs),
(449,350,o),
(440,340,o),
(435,322,cs),
(383,126,o),
(314,47,o),
(280,47,cs),
(259,47,o),
(264,79,o),
(266,102,cs),
(287,320,ls),
(289,340,o),
(281,350,o),
(268,350,c),
(238,216,l),
(221,102,ls),
(212,41,o),
(229,-4,o),
(271,-4,cs)
);
}
);
vertWidth = 0;
width = 503;
},
{
layerId = m002;
shapes = (
{
closed = 1;
nodes = (
(173,-4,o),
(229,70,o),
(275,188,c),
(288,350,l),
(261,350,o),
(242,339,o),
(234,308,cs),
(184,117,o),
(131,79,o),
(117,79,cs),
(104,79,o),
(108,113,o),
(113,157,cs),
(128,298,ls),
(132,331,o),
(108,350,o),
(81,350,cs),
(59,350,o),
(34,335,o),
(31,308,cs),
(11,115,ls),
(5,56,o),
(24,-4,o),
(87,-4,cs)
);
},
{
closed = 1;
nodes = (
(377,-4,o),
(463,71,o),
(527,289,cs),
(539,329,o),
(516,350,o),
(484,350,cs),
(457,350,o),
(442,339,o),
(433,308,cs),
(377,115,o),
(327,79,o),
(316,79,cs),
(301,79,o),
(303,115,o),
(308,157,cs),
(325,298,ls),
(329,331,o),
(314,350,o),
(287,350,c),
(235,188,l),
(227,134,ls),
(214,41,o),
(234,-4,o),
(285,-4,cs)
);
}
);
vertWidth = 0;
width = 567;
},
{
associatedMasterId = m01;
layerId = "1D9990B2-E528-42BA-9000-4789CF1D95DF";
name = background;
shapes = (
{
closed = 1;
nodes = (
(133,-4,o),
(189,68,o),
(217,138,cs),
(240,195,l),
(268,350,l),
(250,350,o),
(244,336,o),
(239,322,cs),
(224,279,o),
(206,229,o),
(187,183,cs),
(170,142,o),
(116,47,o),
(82,47,cs),
(61,47,o),
(66,79,o),
(68,102,cs),
(91,320,ls),
(93,340,o),
(83,350,o),
(70,350,cs),
(58,350,o),
(43,341,o),
(41,323,cs),
(18,102,ls),
(12,49,o),
(31,-4,o),
(73,-4,cs)
);
},
{
closed = 1;
nodes = (
(331,-4,o),
(390,69,o),
(420,138,cs),
(442,189,o),
(471,269,o),
(485,314,cs),
(492,336,o),
(487,350,o),
(467,350,cs),
(449,350,o),
(440,336,o),
(435,322,cs),
(420,279,o),
(404,229,o),
(385,183,cs),
(368,142,o),
(314,47,o),
(280,47,cs),
(259,47,o),
(264,79,o),
(266,102,cs),
(287,320,ls),
(289,340,o),
(281,350,o),
(268,350,c),
(232,196,l),
(220,102,ls),
(212,41,o),
(229,-4,o),
(271,-4,cs)
);
}
);
vertWidth = 0;
width = 500;
},
{
associatedMasterId = m002;
layerId = "CF83E6AE-FC35-4BE6-9395-C9D8CBD20BE5";
name = background;
shapes = (
{
closed = 1;
nodes = (
(175,-4,o),
(228,54,o),
(265,129,cs),
(277,153,l),
(290,350,l),
(263,350,o),
(248,337,o),
(236,308,cs),
(230,293,o),
(220,262,o),
(204,223,cs),
(190,188,o),
(166,125,o),
(138,96,cs),
(98,53,o),
(110,99,o),
(116,157,cs),
(131,298,ls),
(135,331,o),
(111,350,o),
(84,350,cs),
(62,350,o),
(34,335,o),
(31,308,cs),
(11,115,ls),
(5,56,o),
(26,-4,o),
(89,-4,cs)
);
},
{
closed = 1;
nodes = (
(382,-4,o),
(433,55,o),
(472,129,cs),
(495,173,o),
(524,248,o),
(537,289,cs),
(553,340,o),
(516,350,o),
(494,350,cs),
(467,350,o),
(455,337,o),
(443,308,cs),
(437,293,o),
(427,262,o),
(411,223,cs),
(397,188,o),
(373,125,o),
(345,96,cs),
(305,53,o),
(317,99,o),
(323,157,cs),
(338,298,ls),
(342,331,o),
(316,350,o),
(289,350,c),
(221,148,l),
(218,115,ls),
(213,56,o),
(233,-4,o),
(296,-4,cs)
);
},
{
closed = 1;
nodes = (
(175,-4,o),
(228,54,o),
(265,129,cs),
(277,153,l),
(290,350,l),
(263,350,o),
(248,337,o),
(236,308,cs),
(230,293,o),
(220,262,o),
(204,223,cs),
(190,188,o),
(166,125,o),
(138,96,cs),
(98,53,o),
(110,99,o),
(116,157,cs),
(131,298,ls),
(135,331,o),
(111,350,o),
(84,350,cs),
(62,350,o),
(34,335,o),
(31,308,cs),
(11,115,ls),
(5,56,o),
(26,-4,o),
(89,-4,cs)
);
},
{
closed = 1;
nodes = (
(382,-4,o),
(433,55,o),
(472,129,cs),
(495,173,o),
(524,248,o),
(537,289,cs),
(553,340,o),
(516,350,o),
(494,350,cs),
(467,350,o),
(455,337,o),
(443,308,cs),
(437,293,o),
(427,262,o),
(411,223,cs),
(397,188,o),
(373,125,o),
(345,96,cs),
(305,53,o),
(317,99,o),
(323,157,cs),
(338,298,ls),
(342,331,o),
(316,350,o),
(289,350,c),
(221,148,l),
(218,115,ls),
(213,56,o),
(233,-4,o),
(296,-4,cs)
);
}
);
vertWidth = 0;
width = 500;
}
);
unicode = 119;
},
{
color = 6;
glyphname = x;
layers = (
{
layerId = m01;
shapes = (
{
closed = 1;
nodes = (
(12,0,o),
(19,6,o),
(28,18,cs),
(130,153,l),
(139,158,l),
(249,304,ls),
(257,314,o),
(261,323,o),
(261,330,cs),
(261,341,o),
(246,350,o),
(234,350,cs),
(227,350,o),
(219,347,o),
(212,338,cs),
(111,203,l),
(102,198,l),
(-9,49,ls),
(-20,34,o),
(-23,29,o),
(-23,22,cs),
(-23,10,o),
(-7,0,o),
(4,0,cs)
);
},
{
closed = 1;
nodes = (
(210,0,o),
(224,10,o),
(224,24,cs),
(224,30,o),
(218,41,o),
(214,49,cs),
(135,195,l),
(61,333,ls),
(55,343,o),
(46,350,o),
(36,350,cs),
(24,350,o),
(10,339,o),
(10,327,cs),
(10,321,o),
(14,314,o),
(17,309,cs),
(100,155,l),
(173,21,ls),
(182,5,o),
(189,0,o),
(197,0,cs)
);
}
);
vertWidth = 0;
width = 286;
},
{
layerId = m002;
shapes = (
{
closed = 1;
nodes = (
(37,0,o),
(53,9,o),
(63,23,cs),
(150,140,l),
(154,140,l),
(258,270,ls),
(270,285,o),
(275,296,o),
(275,309,cs),
(275,332,o),
(255,352,o),
(224,352,cs),
(213,352,o),
(195,345,o),
(184,330,cs),
(102,214,l),
(97,213,l),
(-5,84,ls),
(-19,67,o),
(-27,52,o),
(-27,44,cs),
(-27,19,o),
(-3,0,o),
(23,0,cs)
);
},
{
closed = 1;
nodes = (
(219,0,o),
(247,20,o),
(247,40,cs),
(247,49,o),
(241,62,o),
(232,78,cs),
(157,216,l),
(91,331,ls),
(82,347,o),
(67,352,o),
(53,352,cs),
(31,352,o),
(4,335,o),
(4,312,cs),
(4,299,o),
(12,288,o),
(16,281,cs),
(93,141,l),
(160,25,ls),
(173,2,o),
(190,0,o),
(198,0,cs)
);
}
);
vertWidth = 0;
width = 324;
},
{
associatedMasterId = m01;
layerId = "BB0C6294-7BE8-4710-A581-27AEF5DC7E6F";
name = background;
shapes = (
{
closed = 1;
nodes = (
(12,0,o),
(20,5,o),
(29,17,cs),
(243,304,ls),
(251,314,o),
(256,317,o),
(255,327,cs),
(255,333,o),
(252,339,o),
(247,344,cs),
(242,349,o),
(235,350,o),
(228,350,cs),
(221,349,o),
(213,347,o),
(206,338,cs),
(-9,49,ls),
(-20,34,o),
(-23,28,o),
(-21,21,cs),
(-20,16,o),
(-17,11,o),
(-12,6,cs),
(-8,2,o),
(-3,0,o),
(4,0,cs)
);
},
{
closed = 1;
nodes = (
(204,0,o),
(212,3,o),
(216,8,cs),
(221,13,o),
(225,20,o),
(224,27,cs),
(224,33,o),
(220,38,o),
(217,44,cs),
(59,336,ls),
(55,344,o),
(44,350,o),
(36,350,cs),
(29,350,o),
(23,347,o),
(18,343,cs),
(13,339,o),
(11,333,o),
(10,327,cs),
(11,321,o),
(14,314,o),
(17,309,cs),
(173,21,ls),
(182,5,o),
(192,0,o),
(197,0,cs)
);
}
);
vertWidth = 0;
width = 500;
},
{
associatedMasterId = m002;
layerId = "2DF84E01-681C-4898-8B16-8AD1B1ABA589";
name = background;
shapes = (
{
closed = 1;
nodes = (
(306,285,o),
(312,294,o),
(311,309,cs),
(311,321,o),
(306,331,o),
(296,340,cs),
(288,348,o),
(273,350,o),
(260,350,cs),
(249,350,o),
(232,345,o),
(225,337,cs),
(22,76,ls),
(12,64,o),
(7,52,o),
(10,38,cs),
(12,29,o),
(17,21,o),
(24,12,cs),
(32,4,o),
(46,0,o),
(59,0,cs),
(73,0,o),
(89,7,o),
(96,16,cs),
(299,277,ls)
);
},
{
closed = 1;
nodes = (
(116,345,o),
(101,350,o),
(87,350,cs),
(75,350,o),
(64,347,o),
(54,339,cs),
(46,332,o),
(41,321,o),
(40,310,cs),
(41,299,o),
(48,288,o),
(52,281,cs),
(200,18,ls),
(209,2,o),
(232,0,o),
(242,0,cs),
(254,0,o),
(265,7,o),
(271,14,cs),
(277,22,o),
(284,33,o),
(283,45,cs),
(282,54,o),
(277,62,o),
(272,71,cs),
(127,331,l)
);
}
);
vertWidth = 0;
width = 500;
}
);
unicode = 120;
},
{
color = 6;
glyphname = y;
kernLeft = n_left;
kernRight = n_right;
layers = (
{
layerId = m01;
shapes = (
{
closed = 1;
nodes = (
(152,-4,o),
(192,46,o),
(234,117,c),
(243,236,l),
(181,99,o),
(142,45,o),
(100,45,cs),
(75,45,o),
(65,80,o),
(69,116,cs),
(91,321,ls),
(93,335,o),
(89,351,o),
(69,350,cs),
(49,349,o),
(43,332,o),
(42,321,cs),
(19,116,ls),
(12,51,o),
(39,-4,o),
(97,-4,cs)
);
},
{
closed = 1;
nodes = (
(-28,-252,o),
(-26,-266,o),
(-15,-274,cs),
(3,-287,o),
(37,-300,o),
(78,-300,cs),
(178,-300,o),
(228,-246,o),
(244,-94,cs),
(288,327,ls),
(290,344,o),
(278,351,o),
(264,351,c),
(250,351,o),
(239,340,o),
(238,329,cs),
(194,-94,ls),
(180,-229,o),
(142,-250,o),
(75,-250,cs),
(50,-250,o),
(25,-240,o),
(12,-233,cs),
(3,-228,o),
(-10,-228,o),
(-19,-240,cs)
);
}
);
vertWidth = 0;
width = 343;
},
{
layerId = m002;
shapes = (
{
closed = 1;
nodes = (
(150,-4,o),
(194,18,o),
(220,35,c),
(232,150,l),
(192,87,o),
(146,84,o),
(123,84,cs),
(107,84,o),
(102,111,o),
(105,136,cs),
(123,304,ls),
(126,328,o),
(113,350,o),
(81,350,cs),
(45,350,o),
(30,327,o),
(28,312,cs),
(10,144,ls),
(0,49,o),
(33,-4,o),
(111,-4,cs)
);
},
{
closed = 1;
nodes = (
(-40,-251,o),
(-23,-268,o),
(-7,-278,cs),
(7,-287,o),
(49,-300,o),
(97,-300,cs),
(211,-300,o),
(275,-207,o),
(290,-65,cs),
(329,305,ls),
(332,335,o),
(308,350,o),
(278,350,cs),
(250,350,o),
(237,335,o),
(234,306,cs),
(196,-52,ls),
(185,-152,o),
(154,-206,o),
(94,-206,cs),
(75,-206,o),
(58,-199,o),
(41,-193,cs),
(21,-186,o),
(-12,-183,o),
(-26,-218,cs)
);
}
);
vertWidth = 0;
width = 397;
},
{
associatedMasterId = m01;
layerId = "EE904374-6635-4A47-8C21-A89B34F10F06";
name = background;
shapes = (
{
closed = 1;
nodes = (
(152,-4,o),
(192,46,o),
(234,117,c),
(243,236,l),
(181,99,o),
(142,45,o),
(100,45,cs),
(75,45,o),
(65,80,o),
(69,116,cs),
(91,321,ls),
(93,335,o),
(89,351,o),
(69,350,cs),
(49,349,o),
(43,332,o),
(42,321,cs),
(19,116,ls),
(12,51,o),
(39,-4,o),
(97,-4,cs)
);
},
{
closed = 1;
nodes = (
(-28,-252,o),
(-26,-266,o),
(-15,-274,cs),
(3,-287,o),
(37,-300,o),
(73,-300,cs),
(124,-300,o),
(160,-287,o),
(185,-263,cs),
(226,-224,o),
(238,-156,o),
(244,-94,cs),
(288,327,ls),
(290,344,o),
(278,351,o),
(264,351,c),
(250,351,o),
(239,340,o),
(238,329,cs),
(194,-94,ls),
(190,-129,o),
(182,-197,o),
(152,-226,cs),
(134,-245,o),
(103,-250,o),
(69,-250,cs),
(50,-250,o),
(25,-240,o),
(12,-233,cs),
(3,-228,o),
(-10,-228,o),
(-19,-240,cs)
);
}
);
vertWidth = 0;
width = 500;
}
);
unicode = 121;
},
{
color = 6;
glyphname = z;
layers = (
{
layerId = m01;
shapes = (
{
closed = 1;
nodes = (
(-28,26,o),
(-14,0,o),
(5,0,c),
(20,11,l),
(250,309,ls),
(265,329,o),
(251,350,o),
(231,350,c),
(214,341,l),
(-14,44,ls)
);
},
{
closed = 1;
nodes = (
(226,37,o),
(219,50,o),
(199,50,cs),
(40,50,l),
(5,0,l),
(202,0,ls),
(222,0,o),
(226,13,o),
(226,25,cs)
);
},
{
closed = 1;
nodes = (
(11,313,o),
(19,300,o),
(39,300,cs),
(196,300,l),
(231,350,l),
(36,350,ls),
(16,350,o),
(11,337,o),
(11,325,cs)
);
}
);
vertWidth = 0;
width = 280;
},
{
background = {
shapes = (
{
closed = 1;
nodes = (
(204,599,ls),
(207,632,o),
(182,650,o),
(155,650,cs),
(135,650,o),
(108,640,o),
(104,607,cs),
(44,44,ls),
(41,18,o),
(60,0,o),
(87,0,cs),
(141,0,l)
);
},
{
closed = 1;
nodes = (
(385,631,o),
(363,650,o),
(335,650,cs),
(313,650,o),
(291,640,o),
(288,612,cs),
(228,50,ls),
(224,15,o),
(250,0,o),
(273,0,cs),
(295,0,o),
(320,15,o),
(323,44,cs),
(382,599,ls)
);
}
);
};
layerId = m002;
shapes = (
{
closed = 1;
nodes = (
(-33,46,o),
(-11,0,o),
(27,0,c),
(65,16,l),
(268,271,ls),
(297,307,o),
(268,350,o),
(234,350,c),
(201,337,l),
(-9,75,ls)
);
},
{
closed = 1;
nodes = (
(256,67,o),
(237,85,o),
(207,85,cs),
(97,85,l),
(27,0,l),
(213,0,ls),
(243,0,o),
(260,19,o),
(258,43,cs)
);
},
{
closed = 1;
nodes = (
(8,281,o),
(28,260,o),
(58,260,cs),
(169,260,l),
(234,350,l),
(52,350,ls),
(22,350,o),
(5,329,o),
(7,305,cs)
);
}
);
vertWidth = 0;
width = 321;
}
);
unicode = 122;
},
{
color = 6;
glyphname = a.ss01;
layers = (
{
layerId = m01;
shapes = (
{
closed = 1;
nodes = (
(241,241,l),
(188,110,o),
(131,46,o),
(102,46,cs),
(75,46,o),
(65,61,o),
(65,126,cs),
(65,184,o),
(98,300,o),
(169,300,cs),
(182,300,o),
(235,300,o),
(243,300,c),
(248,350,l),
(236,350,o),
(182,350,o),
(166,350,cs),
(63,350,o),
(15,211,o),
(15,121,cs),
(15,21,o),
(56,-4,o),
(94,-4,cs),
(148,-4,o),
(192,45,o),
(228,109,c)
);
},
{
closed = 1;
nodes = (
(290,336,o),
(282,350,o),
(240,350,c),
(219,146,ls),
(212,78,o),
(219,0,o),
(289,0,cs),
(322,0,o),
(334,17,o),
(353,50,cs),
(369,79,o),
(372,86,o),
(371,94,cs),
(370,109,o),
(358,116,o),
(347,116,cs),
(335,116,o),
(327,108,o),
(325,104,cs),
(313,81,ls),
(301,59,o),
(292,46,o),
(285,46,cs),
(265,46,o),
(267,124,o),
(268,132,cs),
(288,316,ls)
);
}
);
vertWidth = 0;
width = 389;
},
{
layerId = m002;
shapes = (
{
closed = 1;
nodes = (
(238,195,l),
(189,112,o),
(153,83,o),
(131,83,cs),
(113,83,o),
(103,101,o),
(106,130,cs),
(111,175,o),
(107,263,o),
(220,263,cs),
(226,263,o),
(240,263,o),
(247,263,c),
(256,350,l),
(248,350,o),
(223,350,o),
(216,350,cs),
(60,350,o),
(32,261,o),
(17,120,cs),
(6,21,o),
(68,-4,o),
(125,-4,cs),
(155,-4,o),
(193,17,o),
(224,47,c)
);
},
{
closed = 1;
nodes = (
(327,337,o),
(312,350,o),
(233,350,c),
(212,156,ls),
(203,72,o),
(221,0,o),
(300,0,cs),
(339,0,o),
(366,15,o),
(388,52,cs),
(405,81,o),
(406,94,o),
(403,106,cs),
(399,121,o),
(388,134,o),
(374,138,cs),
(362,141,o),
(350,139,o),
(341,132,c),
(336,126,ls),
(330,119,o),
(324,89,o),
(311,89,cs),
(303,89,o),
(306,116,o),
(315,208,cs),
(324,301,ls)
);
}
);
vertWidth = 0;
width = 445;
}
);
},
{
color = 6;
glyphname = d.ss01;
layers = (
{
layerId = m01;
shapes = (
{
closed = 1;
nodes = (
(241,241,l),
(188,110,o),
(131,43,o),
(102,43,cs),
(75,43,o),
(65,61,o),
(65,126,cs),
(65,182,o),
(98,300,o),
(169,300,cs),
(182,300,o),
(235,300,o),
(243,300,c),
(248,350,l),
(236,350,o),
(182,350,o),
(166,350,cs),
(63,350,o),
(15,211,o),
(15,121,cs),
(15,21,o),
(56,-4,o),
(94,-4,cs),
(148,-4,o),
(192,45,o),
(228,109,c)
);
},
{
closed = 1;
nodes = (
(301,59,o),
(292,46,o),
(285,46,cs),
(265,46,o),
(267,124,o),
(268,132,cs),
(320,623,ls),
(322,642,o),
(312,650,o),
(299,650,cs),
(286,650,o),
(271,640,o),
(269,623,c),
(219,146,ls),
(212,78,o),
(219,0,o),
(289,0,cs),
(322,0,o),
(334,17,o),
(353,50,cs),
(369,79,o),
(372,86,o),
(371,94,cs),
(370,109,o),
(358,116,o),
(347,116,cs),
(335,116,o),
(327,108,o),
(325,104,cs),
(313,81,ls)
);
}
);
vertWidth = 0;
width = 389;
},
{
layerId = m002;
shapes = (
{
closed = 1;
nodes = (
(238,195,l),
(189,112,o),
(153,83,o),
(131,83,cs),
(113,83,o),
(103,101,o),
(106,130,cs),
(111,175,o),
(107,263,o),
(220,263,cs),
(226,263,o),
(240,263,o),
(247,263,c),
(256,350,l),
(248,350,o),
(223,350,o),
(216,350,cs),
(60,350,o),
(29,261,o),
(17,120,cs),
(9,21,o),
(68,-4,o),
(125,-4,cs),
(179,-4,o),
(216,39,o),
(247,69,c)
);
},
{
closed = 1;
nodes = (
(336,119,o),
(330,89,o),
(317,89,cs),
(309,89,o),
(310,116,o),
(320,208,cs),
(362,598,ls),
(366,631,o),
(342,650,o),
(315,650,cs),
(291,650,o),
(269,633,o),
(266,605,cs),
(218,156,ls),
(209,72,o),
(227,0,o),
(306,0,cs),
(345,0,o),
(372,15,o),
(394,52,cs),
(411,81,o),
(412,94,o),
(409,106,cs),
(405,121,o),
(394,134,o),
(380,138,cs),
(368,141,o),
(356,139,o),
(347,132,c),
(342,126,ls)
);
}
);
vertWidth = 0;
width = 451;
}
);
},
{
color = 6;
glyphname = f.ss01;
layers = (
{
layerId = m01;
shapes = (
{
closed = 1;
nodes = (
(289,594,o),
(307,592,o),
(314,611,cs),
(321,629,o),
(309,639,o),
(301,642,cs),
(284,647,o),
(265,650,o),
(246,650,cs),
(196,650,o),
(146,616,o),
(137,527,cs),
(52,-273,ls),
(51,-285,o),
(60,-301,o),
(78,-301,cs),
(95,-301,o),
(101,-286,o),
(102,-274,cs),
(186,518,ls),
(192,578,o),
(216,600,o),
(249,600,cs),
(260,600,o),
(271,599,o),
(281,596,cs)
);
},
{
closed = 1;
nodes = (
(262,305,o),
(266,316,o),
(266,328,cs),
(266,340,o),
(259,350,o),
(239,350,cs),
(44,350,ls),
(24,350,o),
(19,340,o),
(19,328,cs),
(19,316,o),
(27,305,o),
(47,305,cs),
(242,305,ls)
);
}
);
vertWidth = 0;
width = 268;
},
{
layerId = m002;
shapes = (
{
closed = 1;
nodes = (
(326,548,o),
(346,550,o),
(360,578,cs),
(373,604,o),
(369,624,o),
(349,634,cs),
(322,648,o),
(300,650,o),
(259,650,cs),
(208,650,o),
(148,614,o),
(138,519,cs),
(56,-249,ls),
(54,-272,o),
(75,-300,o),
(109,-300,cs),
(136,-300,o),
(153,-280,o),
(156,-256,cs),
(237,502,ls),
(241,541,o),
(255,560,o),
(273,560,cs),
(293,560,o),
(304,556,o),
(312,553,cs)
);
},
{
closed = 1;
nodes = (
(292,265,o),
(310,281,o),
(309,307,cs),
(307,331,o),
(289,350,o),
(257,350,cs),
(74,350,ls),
(43,350,o),
(26,331,o),
(28,307,cs),
(29,283,o),
(48,265,o),
(79,265,cs),
(262,265,ls)
);
}
);
vertWidth = 0;
width = 340;
}
);
},
{
color = 6;
glyphname = h.ss01;
layers = (
{
layerId = m01;
shapes = (
{
closed = 1;
nodes = (
(222,131,ls),
(215,66,o),
(218,0,o),
(284,0,cs),
(317,0,o),
(330,17,o),
(351,50,cs),
(370,79,o),
(373,86,o),
(373,94,cs),
(373,109,o),
(361,116,o),
(350,116,cs),
(338,116,o),
(330,108,o),
(327,104,cs),
(312,81,ls),
(298,59,o),
(290,48,o),
(283,48,cs),
(269,48,o),
(266,78,o),
(272,129,cs),
(283,234,ls),
(289,291,o),
(263,354,o),
(205,354,cs),
(150,354,o),
(113,313,o),
(69,246,c),
(59,114,l),
(121,251,o),
(160,305,o),
(202,305,cs),
(227,305,o),
(236,261,o),
(233,234,cs)
);
},
{
closed = 1;
nodes = (
(125,641,o),
(115,650,o),
(102,650,cs),
(89,650,o),
(75,641,o),
(73,623,cs),
(9,23,ls),
(7,8,o),
(19,0,o),
(32,0,cs),
(45,0,o),
(57,7,o),
(59,23,cs),
(123,623,ls)
);
}
);
vertWidth = 0;
width = 391;
},
{
layerId = m002;
shapes = (
{
closed = 1;
nodes = (
(226,156,ls),
(217,72,o),
(239,0,o),
(318,0,cs),
(357,0,o),
(384,15,o),
(406,52,cs),
(423,81,o),
(424,94,o),
(421,106,cs),
(417,121,o),
(406,134,o),
(392,138,cs),
(380,141,o),
(368,139,o),
(359,132,c),
(354,126,ls),
(348,119,o),
(342,89,o),
(329,89,cs),
(321,89,o),
(322,115,o),
(328,169,cs),
(332,206,ls),
(342,301,o),
(309,354,o),
(231,354,cs),
(192,354,o),
(160,332,o),
(134,315,c),
(121,173,l),
(161,236,o),
(196,266,o),
(219,266,cs),
(235,266,o),
(235,239,o),
(232,214,cs)
);
},
{
closed = 1;
nodes = (
(187,633,o),
(162,653,o),
(135,653,cs),
(111,653,o),
(87,637,o),
(84,609,cs),
(25,45,ls),
(22,17,o),
(45,-2,o),
(72,-2,cs),
(96,-2,o),
(122,11,o),
(125,37,cs),
(184,601,ls)
);
}
);
vertWidth = 0;
width = 463;
}
);
},
{
color = 6;
glyphname = i.ss01;
layers = (
{
layerId = m01;
shapes = (
{
closed = 1;
nodes = (
(24,147,ls),
(17,79,o),
(24,1,o),
(94,1,cs),
(127,1,o),
(139,18,o),
(158,51,cs),
(174,80,o),
(177,87,o),
(176,95,cs),
(175,110,o),
(163,117,o),
(152,117,cs),
(140,117,o),
(132,109,o),
(130,105,cs),
(118,82,ls),
(106,60,o),
(97,47,o),
(90,47,cs),
(70,47,o),
(71,112,o),
(73,133,cs),
(93,320,ls),
(95,340,o),
(83,350,o),
(71,350,cs),
(58,350,o),
(45,341,o),
(43,323,cs)
);
},
{
closed = 1;
nodes = (
(99,440,o),
(111,454,o),
(111,468,cs),
(111,483,o),
(99,495,o),
(84,495,cs),
(70,495,o),
(56,483,o),
(56,468,cs),
(56,454,o),
(70,440,o),
(84,440,cs)
);
}
);
vertWidth = 0;
width = 194;
},
{
layerId = m002;
shapes = (
{
closed = 1;
nodes = (
(37,155,ls),
(29,71,o),
(49,-1,o),
(128,-1,cs),
(167,-1,o),
(194,14,o),
(216,51,cs),
(233,80,o),
(234,93,o),
(231,105,cs),
(227,120,o),
(216,133,o),
(202,137,cs),
(190,140,o),
(178,138,o),
(169,131,c),
(164,125,ls),
(158,118,o),
(152,88,o),
(139,88,cs),
(131,88,o),
(132,115,o),
(142,207,cs),
(151,294,ls),
(154,327,o),
(128,350,o),
(103,350,cs),
(79,350,o),
(55,332,o),
(52,305,cs)
);
},
{
closed = 1;
nodes = (
(149,417,o),
(169,439,o),
(169,466,cs),
(169,493,o),
(149,515,o),
(122,515,cs),
(96,515,o),
(71,493,o),
(71,466,cs),
(71,439,o),
(96,417,o),
(122,417,cs)
);
}
);
vertWidth = 0;
width = 273;
}
);
},
{
color = 6;
glyphname = k.ss01;
layers = (
{
layerId = m01;
shapes = (
{
closed = 1;
nodes = (
(125,642,o),
(114,650,o),
(98,650,cs),
(83,650,o),
(75,639,o),
(73,622,cs),
(9,26,ls),
(7,10,o),
(18,0,o),
(31,0,cs),
(47,0,o),
(57,7,o),
(59,26,cs),
(123,621,ls)
);
},
{
closed = 1;
nodes = (
(216,9,o),
(233,0,o),
(255,0,cs),
(288,0,o),
(300,17,o),
(319,50,cs),
(335,79,o),
(338,86,o),
(337,94,cs),
(336,109,o),
(324,116,o),
(313,116,cs),
(301,116,o),
(293,108,o),
(291,104,cs),
(279,81,ls),
(267,59,o),
(260,46,o),
(253,46,cs),
(249,46,o),
(243,54,o),
(239,58,cs),
(129,175,l),
(61,175,l),
(204,21,ls)
);
},
{
closed = 1;
nodes = (
(67,167,o),
(81,189,o),
(88,197,cs),
(103,215,o),
(129,259,o),
(146,274,cs),
(165,290,o),
(185,305,o),
(205,305,cs),
(219,305,o),
(229,287,o),
(228,274,cs),
(225,248,o),
(208,236,o),
(180,219,cs),
(160,207,o),
(89,185,o),
(61,175,c),
(123,144,l),
(136,148,o),
(185,164,o),
(203,175,cs),
(238,196,o),
(274,225,o),
(277,254,cs),
(281,288,o),
(266,354,o),
(207,354,cs),
(174,354,o),
(142,336,o),
(113,311,cs),
(97,297,o),
(81,271,o),
(65,254,c),
(61,158,l)
);
}
);
vertWidth = 0;
width = 355;
},
{
layerId = m002;
shapes = (
{
closed = 1;
nodes = (
(188,633,o),
(162,650,o),
(134,650,cs),
(109,650,o),
(87,638,o),
(84,608,cs),
(26,48,ls),
(23,19,o),
(45,0,o),
(72,0,cs),
(99,0,o),
(123,11,o),
(126,40,cs),
(184,599,ls)
);
},
{
closed = 1;
nodes = (
(228,6,o),
(247,-4,o),
(273,-4,cs),
(312,-4,o),
(339,15,o),
(361,52,cs),
(378,81,o),
(379,94,o),
(376,106,cs),
(372,121,o),
(361,134,o),
(347,138,cs),
(335,141,o),
(325,137,o),
(318,128,cs),
(313,122,ls),
(307,115,o),
(297,78,o),
(288,78,cs),
(285,78,o),
(279,83,o),
(268,94,cs),
(201,164,l),
(87,153,l),
(215,20,ls)
);
},
{
closed = 1;
nodes = (
(130,176,o),
(134,183,o),
(139,189,cs),
(145,196,o),
(186,246,o),
(198,256,cs),
(215,271,o),
(231,275,o),
(239,275,cs),
(246,275,o),
(254,268,o),
(254,261,cs),
(254,251,o),
(239,240,o),
(216,228,cs),
(185,212,o),
(143,199,o),
(113,190,c),
(181,128,l),
(193,131,o),
(239,146,o),
(256,157,cs),
(289,177,o),
(328,207,o),
(332,242,cs),
(336,279,o),
(318,353,o),
(248,353,cs),
(212,353,o),
(178,346,o),
(152,323,cs),
(133,308,o),
(118,279,o),
(102,266,c),
(125,168,l)
);
}
);
vertWidth = 0;
width = 418;
}
);
},
{
color = 6;
glyphname = l.ss01;
layers = (
{
layerId = m01;
shapes = (
{
closed = 1;
nodes = (
(22,147,ls),
(15,79,o),
(22,1,o),
(92,1,cs),
(125,1,o),
(137,18,o),
(156,51,cs),
(172,80,o),
(175,87,o),
(174,95,cs),
(173,110,o),
(161,117,o),
(150,117,cs),
(138,117,o),
(130,109,o),
(128,105,cs),
(116,82,ls),
(104,60,o),
(95,47,o),
(88,47,cs),
(68,47,o),
(69,112,o),
(71,133,cs),
(123,624,ls),
(125,640,o),
(111,650,o),
(97,650,cs),
(86,650,o),
(75,644,o),
(73,629,cs)
);
}
);
vertWidth = 0;
width = 192;
},
{
layerId = m002;
shapes = (
{
closed = 1;
nodes = (
(37,155,ls),
(28,72,o),
(49,-1,o),
(128,-1,cs),
(167,-1,o),
(194,14,o),
(216,51,cs),
(233,80,o),
(234,93,o),
(231,105,cs),
(227,120,o),
(216,133,o),
(202,137,cs),
(190,140,o),
(178,138,o),
(169,131,c),
(164,125,ls),
(158,118,o),
(152,88,o),
(139,88,cs),
(131,88,o),
(132,114,o),
(142,207,cs),
(183,599,ls),
(186,631,o),
(162,650,o),
(134,650,cs),
(112,650,o),
(86,635,o),
(84,612,cs)
);
}
);
vertWidth = 0;
width = 273;
}
);
},
{
color = 6;
glyphname = m.ss01;
layers = (
{
layerId = m01;
shapes = (
{
closed = 1;
nodes = (
(93,340,o),
(90,350,o),
(73,350,c),
(54,350,o),
(43,342,o),
(41,323,cs),
(9,23,ls),
(8,15,o),
(11,0,o),
(33,0,cs),
(59,0,o),
(58,18,o),
(59,23,cs),
(91,323,ls)
);
},
{
closed = 1;
nodes = (
(53,114,l),
(115,251,o),
(154,305,o),
(196,305,cs),
(221,305,o),
(230,261,o),
(227,234,cs),
(204,23,ls),
(203,15,o),
(205,0,o),
(227,0,c),
(253,0,o),
(253,18,o),
(254,23,cs),
(277,234,ls),
(283,291,o),
(257,354,o),
(199,354,cs),
(144,354,o),
(107,313,o),
(63,246,c)
);
},
{
closed = 1;
nodes = (
(412,146,ls),
(404,72,o),
(412,0,o),
(482,0,cs),
(515,0,o),
(527,17,o),
(546,50,cs),
(562,79,o),
(565,86,o),
(564,94,cs),
(563,109,o),
(551,116,o),
(540,116,cs),
(528,116,o),
(520,108,o),
(518,104,cs),
(506,81,ls),
(494,59,o),
(485,46,o),
(478,46,cs),
(458,46,o),
(459,111,o),
(461,132,cs),
(472,234,ls),
(478,291,o),
(452,354,o),
(394,354,cs),
(339,354,o),
(302,313,o),
(258,246,c),
(248,114,l),
(310,251,o),
(349,305,o),
(391,305,cs),
(416,305,o),
(425,261,o),
(422,234,cs)
);
}
);
vertWidth = 0;
width = 582;
},
{
layerId = m002;
shapes = (
{
closed = 1;
nodes = (
(156,331,o),
(138,350,o),
(109,350,cs),
(80,350,o),
(58,337,o),
(52,309,c),
(24,43,ls),
(21,15,o),
(40,0,o),
(69,0,cs),
(106,0,o),
(122,23,o),
(124,37,cs),
(153,302,ls)
);
},
{
closed = 1;
nodes = (
(121,173,l),
(161,236,o),
(196,266,o),
(219,266,cs),
(235,266,o),
(235,239,o),
(232,214,cs),
(214,46,ls),
(211,22,o),
(229,0,o),
(261,0,cs),
(297,0,o),
(312,23,o),
(314,38,cs),
(332,206,ls),
(342,301,o),
(309,354,o),
(231,354,cs),
(192,354,o),
(160,332,o),
(134,315,c)
);
},
{
closed = 1;
nodes = (
(407,156,ls),
(398,71,o),
(419,0,o),
(498,0,cs),
(537,0,o),
(564,15,o),
(586,52,cs),
(603,81,o),
(604,94,o),
(601,106,cs),
(597,121,o),
(586,134,o),
(572,138,cs),
(560,141,o),
(548,139,o),
(539,132,c),
(534,126,ls),
(528,119,o),
(522,89,o),
(509,89,cs),
(503,89,o),
(502,100,o),
(507,150,cs),
(513,206,ls),
(523,301,o),
(490,354,o),
(412,354,cs),
(373,354,o),
(341,332,o),
(315,315,c),
(302,173,l),
(342,236,o),
(377,266,o),
(400,266,cs),
(416,266,o),
(416,239,o),
(413,214,cs)
);
}
);
vertWidth = 0;
width = 643;
}
);
},
{
color = 6;
glyphname = n.ss01;
layers = (
{
layerId = m01;
shapes = (
{
closed = 1;
nodes = (
(93,340,o),
(90,350,o),
(73,350,cs),
(53,350,o),
(43,341,o),
(41,323,cs),
(9,23,ls),
(8,15,o),
(11,0,o),
(33,0,cs),
(59,0,o),
(58,18,o),
(59,23,cs),
(91,323,ls)
);
},
{
closed = 1;
nodes = (
(217,146,ls),
(209,72,o),
(217,0,o),
(287,0,cs),
(320,0,o),
(332,17,o),
(351,50,cs),
(367,79,o),
(370,86,o),
(369,94,cs),
(368,109,o),
(356,116,o),
(345,116,cs),
(333,116,o),
(325,108,o),
(323,104,cs),
(311,81,ls),
(299,59,o),
(290,46,o),
(283,46,cs),
(263,46,o),
(264,110,o),
(266,132,cs),
(277,234,ls),
(283,291,o),
(257,354,o),
(199,354,cs),
(144,354,o),
(107,313,o),
(63,246,c),
(53,114,l),
(115,251,o),
(154,305,o),
(196,305,cs),
(221,305,o),
(230,261,o),
(227,234,cs)
);
}
);
vertWidth = 0;
width = 387;
},
{
layerId = m002;
shapes = (
{
closed = 1;
nodes = (
(156,332,o),
(139,350,o),
(107,350,cs),
(65,350,o),
(53,320,o),
(52,308,cs),
(24,44,ls),
(21,20,o),
(34,0,o),
(68,0,cs),
(105,0,o),
(122,22,o),
(124,37,cs),
(153,302,ls)
);
},
{
closed = 1;
nodes = (
(227,156,ls),
(220,72,o),
(239,0,o),
(318,0,cs),
(357,0,o),
(384,15,o),
(406,52,cs),
(423,81,o),
(424,94,o),
(421,106,cs),
(417,121,o),
(406,134,o),
(392,138,cs),
(380,141,o),
(366,141,o),
(359,132,cs),
(354,126,ls),
(348,119,o),
(342,89,o),
(329,89,cs),
(322,89,o),
(321,102,o),
(327,159,cs),
(332,206,ls),
(342,301,o),
(309,354,o),
(231,354,cs),
(192,354,o),
(160,332,o),
(134,315,c),
(121,173,l),
(161,236,o),
(196,266,o),
(219,266,cs),
(235,266,o),
(234,239,o),
(232,214,cs)
);
}
);
vertWidth = 0;
width = 463;
}
);
},
{
color = 6;
glyphname = o.ss01;
layers = (
{
layerId = m01;
shapes = (
{
closed = 1;
nodes = (
(183,-4,o),
(270,157,o),
(280,248,cs),
(286,308,o),
(237,350,o),
(167,350,cs),
(54,350,o),
(14,207,o),
(13,95,cs),
(13,20,o),
(58,-4,o),
(99,-4,cs)
);
},
{
closed = 1;
nodes = (
(71,46,o),
(63,77,o),
(64,105,cs),
(66,181,o),
(93,300,o),
(167,300,cs),
(207,300,o),
(233,287,o),
(229,247,cs),
(220,163,o),
(136,46,o),
(99,46,cs)
);
},
{
closed = 1;
nodes = (
(216,288,l),
(291,264,ls),
(303,261,o),
(316,261,o),
(326,268,cs),
(334,274,o),
(338,284,o),
(333,296,cs),
(331,302,o),
(326,307,o),
(314,311,cs),
(222,340,l)
);
}
);
vertWidth = 0;
width = 358;
},
{
layerId = m002;
shapes = (
{
closed = 1;
nodes = (
(236,-4,o),
(317,151,o),
(326,236,cs),
(335,313,o),
(273,350,o),
(197,350,cs),
(67,350,o),
(39,233,o),
(27,120,cs),
(16,24,o),
(78,-4,o),
(127,-4,cs)
);
},
{
closed = 1;
nodes = (
(123,83,o),
(114,99,o),
(116,118,cs),
(121,164,o),
(131,264,o),
(190,264,cs),
(210,264,o),
(233,254,o),
(231,235,cs),
(226,184,o),
(165,83,o),
(137,83,cs)
);
},
{
closed = 1;
nodes = (
(233,254,l),
(308,230,ls),
(347,217,o),
(371,216,o),
(386,231,cs),
(395,240,o),
(399,265,o),
(397,278,cs),
(393,299,o),
(372,305,o),
(339,315,cs),
(247,344,l)
);
}
);
vertWidth = 0;
width = 425;
}
);
},
{
color = 6;
glyphname = t.ss01;
layers = (
{
layerId = m01;
shapes = (
{
closed = 1;
nodes = (
(90,146,ls),
(83,78,o),
(90,0,o),
(160,0,cs),
(193,0,o),
(205,17,o),
(224,50,cs),
(240,79,o),
(243,86,o),
(242,94,cs),
(241,109,o),
(229,116,o),
(218,116,cs),
(206,116,o),
(198,108,o),
(196,104,cs),
(184,81,ls),
(172,59,o),
(163,46,o),
(156,46,cs),
(136,46,o),
(137,111,o),
(139,132,cs),
(192,622,ls),
(194,640,o),
(180,650,o),
(166,650,cs),
(155,650,o),
(144,643,o),
(142,629,cs)
);
},
{
closed = 1;
nodes = (
(269,305,o),
(273,316,o),
(273,328,cs),
(273,340,o),
(266,350,o),
(246,350,cs),
(22,350,ls),
(2,350,o),
(-3,340,o),
(-3,328,cs),
(-3,316,o),
(5,305,o),
(25,305,cs),
(249,305,ls)
);
}
);
vertWidth = 0;
width = 320;
},
{
layerId = m002;
shapes = (
{
closed = 1;
nodes = (
(97,155,ls),
(88,70,o),
(109,-1,o),
(188,-1,cs),
(227,-1,o),
(254,14,o),
(276,51,cs),
(293,80,o),
(294,93,o),
(291,105,cs),
(287,120,o),
(276,133,o),
(262,137,cs),
(250,140,o),
(236,140,o),
(229,131,cs),
(224,125,ls),
(218,118,o),
(212,88,o),
(199,88,cs),
(193,88,o),
(192,105,o),
(197,157,cs),
(243,602,ls),
(246,631,o),
(223,650,o),
(195,650,cs),
(167,650,o),
(145,631,o),
(143,611,cs)
);
},
{
closed = 1;
nodes = (
(301,265,o),
(317,283,o),
(317,307,cs),
(317,332,o),
(296,350,o),
(264,350,cs),
(54,350,ls),
(22,350,o),
(7,332,o),
(7,307,cs),
(7,283,o),
(27,265,o),
(59,265,cs),
(269,265,ls)
);
}
);
vertWidth = 0;
width = 374;
}
);
},
{
color = 6;
glyphname = u.ss01;
layers = (
{
layerId = m01;
shapes = (
{
closed = 1;
nodes = (
(218,146,ls),
(210,70,o),
(218,0,o),
(288,0,cs),
(321,0,o),
(333,17,o),
(352,50,cs),
(368,79,o),
(371,86,o),
(370,94,cs),
(369,109,o),
(357,116,o),
(346,116,cs),
(334,116,o),
(326,108,o),
(324,104,cs),
(312,81,ls),
(300,59,o),
(291,46,o),
(284,46,cs),
(264,46,o),
(265,111,o),
(267,132,cs),
(288,327,ls),
(289,335,o),
(287,350,o),
(265,350,cs),
(239,350,o),
(239,332,o),
(238,327,cs)
);
},
{
closed = 1;
nodes = (
(243,236,l),
(181,99,o),
(142,45,o),
(100,45,cs),
(75,45,o),
(66,89,o),
(69,116,cs),
(92,327,ls),
(93,335,o),
(91,350,o),
(69,350,c),
(43,350,o),
(43,332,o),
(42,327,cs),
(19,116,ls),
(13,59,o),
(39,-4,o),
(97,-4,cs),
(152,-4,o),
(189,37,o),
(233,104,c)
);
}
);
vertWidth = 0;
width = 388;
},
{
layerId = m002;
shapes = (
{
closed = 1;
nodes = (
(227,156,ls),
(218,72,o),
(239,0,o),
(318,0,cs),
(357,0,o),
(384,15,o),
(406,52,cs),
(423,81,o),
(424,94,o),
(421,106,cs),
(417,121,o),
(406,134,o),
(392,138,cs),
(380,141,o),
(368,139,o),
(359,132,c),
(354,126,ls),
(348,119,o),
(342,89,o),
(329,89,cs),
(322,89,o),
(321,111,o),
(329,181,cs),
(343,306,ls),
(346,330,o),
(333,350,o),
(299,350,cs),
(262,350,o),
(245,328,o),
(243,313,cs)
);
},
{
closed = 1;
nodes = (
(246,177,l),
(206,114,o),
(171,84,o),
(148,84,cs),
(132,84,o),
(132,111,o),
(135,136,cs),
(153,304,ls),
(156,328,o),
(138,350,o),
(106,350,cs),
(70,350,o),
(55,327,o),
(53,312,cs),
(35,144,ls),
(25,49,o),
(58,-4,o),
(136,-4,cs),
(175,-4,o),
(228,30,o),
(254,47,c)
);
}
);
vertWidth = 0;
width = 463;
}
);
},
{
color = 6;
glyphname = v.ss01;
layers = (
{
layerId = m01;
shapes = (
{
closed = 1;
nodes = (
(93,340,o),
(83,350,o),
(70,350,cs),
(58,350,o),
(43,341,o),
(41,323,cs),
(18,102,ls),
(12,49,o),
(31,-4,o),
(73,-4,cs),
(133,-4,o),
(192,69,o),
(222,138,cs),
(244,189,o),
(273,269,o),
(287,314,cs),
(294,336,o),
(289,350,o),
(269,350,cs),
(251,350,o),
(242,336,o),
(237,322,cs),
(222,279,o),
(206,229,o),
(187,183,cs),
(170,142,o),
(116,47,o),
(82,47,cs),
(61,47,o),
(66,79,o),
(68,102,cs),
(91,320,ls)
);
},
{
closed = 1;
nodes = (
(271,297,l),
(321,282,ls),
(333,278,o),
(346,279,o),
(356,286,cs),
(364,292,o),
(368,302,o),
(363,314,cs),
(361,320,o),
(356,325,o),
(344,329,cs),
(277,349,l)
);
}
);
vertWidth = 0;
width = 386;
},
{
layerId = m002;
shapes = (
{
closed = 1;
nodes = (
(156,331,o),
(132,350,o),
(105,350,cs),
(83,350,o),
(55,335,o),
(52,308,cs),
(32,115,ls),
(26,56,o),
(47,-4,o),
(110,-4,cs),
(196,-4,o),
(247,55,o),
(286,129,cs),
(309,173,o),
(338,248,o),
(351,289,cs),
(367,340,o),
(330,350,o),
(308,350,cs),
(281,350,o),
(269,337,o),
(257,308,cs),
(251,293,o),
(241,262,o),
(225,223,cs),
(211,188,o),
(187,125,o),
(159,96,cs),
(119,53,o),
(131,99,o),
(137,157,cs),
(152,298,ls)
);
},
{
closed = 1;
nodes = (
(319,255,l),
(354,244,ls),
(393,232,o),
(417,230,o),
(432,245,cs),
(441,254,o),
(445,279,o),
(443,292,cs),
(439,313,o),
(413,321,o),
(380,331,cs),
(328,347,l)
);
}
);
vertWidth = 0;
width = 469;
}
);
},
{
color = 6;
glyphname = w.ss01;
layers = (
{
layerId = m01;
shapes = (
{
closed = 1;
nodes = (
(93,340,o),
(83,350,o),
(70,350,cs),
(58,350,o),
(43,341,o),
(41,323,cs),
(18,102,ls),
(12,49,o),
(31,-4,o),
(73,-4,cs),
(133,-4,o),
(194,68,o),
(222,138,cs),
(245,195,l),
(269,350,l),
(251,350,o),
(242,336,o),
(237,322,cs),
(222,279,o),
(206,229,o),
(187,183,cs),
(170,142,o),
(116,47,o),
(82,47,cs),
(61,47,o),
(66,79,o),
(68,102,cs),
(91,320,ls)
);
},
{
closed = 1;
nodes = (
(291,340,o),
(281,350,o),
(268,350,c),
(226,196,l),
(216,102,ls),
(210,49,o),
(229,-4,o),
(271,-4,cs),
(331,-4,o),
(390,69,o),
(420,138,cs),
(442,189,o),
(471,269,o),
(485,314,cs),
(492,336,o),
(487,350,o),
(467,350,cs),
(449,350,o),
(440,336,o),
(435,322,cs),
(420,279,o),
(404,229,o),
(385,183,cs),
(368,142,o),
(314,47,o),
(280,47,cs),
(259,47,o),
(264,79,o),
(266,102,cs),
(289,320,ls)
);
},
{
closed = 1;
nodes = (
(469,297,l),
(519,282,ls),
(531,278,o),
(544,279,o),
(554,286,cs),
(562,292,o),
(566,302,o),
(561,314,cs),
(559,320,o),
(554,325,o),
(542,329,cs),
(475,349,l)
);
}
);
vertWidth = 0;
width = 569;
},
{
layerId = m002;
shapes = (
{
closed = 1;
nodes = (
(156,331,o),
(132,350,o),
(105,350,cs),
(83,350,o),
(55,335,o),
(52,308,cs),
(32,115,ls),
(26,56,o),
(47,-4,o),
(110,-4,cs),
(196,-4,o),
(249,54,o),
(286,129,cs),
(298,153,l),
(311,350,l),
(284,350,o),
(269,337,o),
(257,308,cs),
(251,293,o),
(241,262,o),
(225,223,cs),
(211,188,o),
(187,125,o),
(159,96,cs),
(119,53,o),
(131,99,o),
(137,157,cs),
(152,298,ls)
);
},
{
closed = 1;
nodes = (
(363,331,o),
(337,350,o),
(310,350,c),
(242,148,l),
(239,115,ls),
(234,56,o),
(254,-4,o),
(317,-4,cs),
(403,-4,o),
(454,55,o),
(493,129,cs),
(516,173,o),
(545,248,o),
(558,289,cs),
(574,340,o),
(537,350,o),
(515,350,cs),
(488,350,o),
(476,337,o),
(464,308,cs),
(458,293,o),
(448,262,o),
(432,223,cs),
(418,188,o),
(394,125,o),
(366,96,cs),
(326,53,o),
(338,99,o),
(344,157,cs),
(359,298,ls)
);
},
{
closed = 1;
nodes = (
(526,255,l),
(561,244,ls),
(600,232,o),
(624,230,o),
(639,245,cs),
(648,254,o),
(652,279,o),
(650,292,cs),
(646,313,o),
(620,321,o),
(587,331,cs),
(535,347,l)
);
}
);
vertWidth = 0;
width = 676;
}
);
},
{
color = 6;
glyphname = x.ss01;
layers = (
{
layerId = m01;
shapes = (
{
closed = 1;
nodes = (
(276,314,o),
(281,317,o),
(280,327,cs),
(280,333,o),
(277,339,o),
(272,344,cs),
(267,349,o),
(260,350,o),
(253,350,cs),
(246,349,o),
(238,347,o),
(234,341,cs),
(11,43,ls),
(5,34,o),
(2,28,o),
(4,21,cs),
(5,16,o),
(8,11,o),
(13,6,cs),
(17,2,o),
(22,0,o),
(29,0,cs),
(37,0,o),
(45,5,o),
(49,10,cs),
(272,308,ls)
);
},
{
closed = 1;
nodes = (
(200,20,ls),
(208,6,o),
(229,-4,o),
(251,-4,cs),
(284,-4,o),
(296,13,o),
(315,46,cs),
(331,75,o),
(334,82,o),
(333,90,cs),
(332,105,o),
(320,112,o),
(309,112,cs),
(297,112,o),
(289,104,o),
(287,100,cs),
(275,77,ls),
(263,55,o),
(256,42,o),
(249,42,cs),
(246,42,o),
(238,50,o),
(236,54,cs),
(84,336,ls),
(80,344,o),
(69,350,o),
(61,350,cs),
(54,350,o),
(48,347,o),
(43,343,cs),
(38,339,o),
(36,333,o),
(35,327,c),
(36,321,o),
(39,314,o),
(42,309,cs)
);
}
);
vertWidth = 0;
width = 351;
},
{
layerId = m002;
shapes = (
{
closed = 1;
nodes = (
(316,285,o),
(322,294,o),
(321,309,cs),
(321,321,o),
(316,331,o),
(306,340,cs),
(298,348,o),
(283,350,o),
(270,350,cs),
(259,350,o),
(242,345,o),
(235,337,cs),
(32,76,ls),
(22,64,o),
(17,52,o),
(20,38,cs),
(22,29,o),
(27,21,o),
(34,12,cs),
(42,4,o),
(56,0,o),
(69,0,cs),
(83,0,o),
(99,7,o),
(106,16,cs),
(309,277,ls)
);
},
{
closed = 1;
nodes = (
(210,20,ls),
(218,6,o),
(242,-4,o),
(268,-4,cs),
(307,-4,o),
(334,15,o),
(356,52,cs),
(373,81,o),
(374,94,o),
(371,106,cs),
(367,121,o),
(356,134,o),
(342,138,cs),
(330,141,o),
(320,137,o),
(313,128,cs),
(308,122,ls),
(302,115,o),
(292,78,o),
(283,78,cs),
(281,78,o),
(277,81,o),
(273,88,cs),
(137,331,l),
(126,345,o),
(111,350,o),
(97,350,cs),
(85,350,o),
(74,347,o),
(64,339,cs),
(56,332,o),
(51,321,o),
(50,310,c),
(51,299,o),
(58,288,o),
(62,281,cs)
);
}
);
vertWidth = 0;
width = 413;
}
);
},
{
color = 6;
glyphname = z.ss01;
layers = (
{
layerId = m01;
shapes = (
{
closed = 1;
nodes = (
(293,326,o),
(287,337,o),
(280,344,cs),
(275,349,o),
(268,350,o),
(261,350,cs),
(254,349,o),
(246,347,o),
(242,341,cs),
(16,44,ls),
(6,31,o),
(8,19,o),
(19,6,cs),
(23,2,o),
(28,0,o),
(35,0,cs),
(43,0,o),
(50,6,o),
(54,11,cs),
(280,309,ls)
);
},
{
closed = 1;
nodes = (
(248,58,o),
(238,46,o),
(231,46,cs),
(194,46,o),
(182,62,o),
(147,62,cs),
(129,62,o),
(88,50,o),
(70,50,c),
(33,0,l),
(63,0,o),
(116,16,o),
(146,16,cs),
(185,16,o),
(183,0,o),
(231,0,cs),
(264,0,o),
(276,17,o),
(295,50,cs),
(311,79,o),
(314,86,o),
(313,94,cs),
(312,109,o),
(300,116,o),
(289,116,cs),
(277,116,o),
(272,108,o),
(270,104,cs),
(259,81,ls)
);
},
{
closed = 1;
nodes = (
(263,350,l),
(66,350,ls),
(46,350,o),
(41,337,o),
(41,325,cs),
(41,313,o),
(49,300,o),
(69,300,cs),
(226,300,l)
);
}
);
vertWidth = 0;
width = 331;
},
{
layerId = m002;
shapes = (
{
closed = 1;
nodes = (
(333,296,o),
(333,321,o),
(315,340,cs),
(306,348,o),
(292,350,o),
(279,350,cs),
(267,350,o),
(253,345,o),
(246,337,cs),
(36,75,ls),
(21,57,o),
(20,34,o),
(38,12,cs),
(46,4,o),
(60,0,o),
(73,0,cs),
(87,0,o),
(102,7,o),
(110,16,cs),
(318,277,ls)
);
},
{
closed = 1;
nodes = (
(279,110,o),
(287,80,o),
(254,80,cs),
(238,80,o),
(223,100,o),
(207,100,cs),
(186,100,o),
(163,88,o),
(142,85,c),
(72,0,l),
(116,4,o),
(157,19,o),
(201,19,cs),
(218,19,o),
(237,2,o),
(254,0,c),
(293,0,o),
(319,19,o),
(341,56,cs),
(358,85,o),
(359,98,o),
(356,110,cs),
(352,125,o),
(341,138,o),
(327,142,cs),
(315,145,o),
(305,141,o),
(298,132,cs),
(293,126,ls)
);
},
{
closed = 1;
nodes = (
(280,350,l),
(97,350,ls),
(67,350,o),
(50,329,o),
(52,305,cs),
(53,281,o),
(73,260,o),
(103,260,cs),
(214,260,l)
);
}
);
vertWidth = 0;
width = 397;
}
);
},
{
color = 6;
glyphname = a.sc;
layers = (
{
layerId = m01;
shapes = (
{
closed = 1;
nodes = (
(177,365,l),
(180,381,o),
(169,396,o),
(151,396,cs),
(136,396,o),
(132,387,o),
(128,377,cs),
(-26,35,ls),
(-34,18,o),
(-21,0,o),
(-4,0,cs),
(11,0,o),
(17,6,o),
(24,21,cs),
(176,359,l)
);
},
{
closed = 1;
nodes = (
(189,175,l),
(182,216,l),
(68,216,l),
(48,175,l)
);
},
{
closed = 1;
nodes = (
(130,358,l),
(182,25,ls),
(184,13,o),
(191,0,o),
(210,0,cs),
(225,0,o),
(235,10,o),
(232,28,cs),
(178,378,l)
);
}
);
vertWidth = 0;
width = 269;
},
{
layerId = m002;
shapes = (
{
closed = 1;
nodes = (
(216,348,l),
(222,380,o),
(203,396,o),
(172,396,cs),
(148,396,o),
(137,383,o),
(130,367,cs),
(-6,65,ls),
(-19,34,o),
(-7,0,o),
(26,0,cs),
(48,0,o),
(62,9,o),
(72,31,cs),
(201,317,l)
);
},
{
closed = 1;
nodes = (
(237,151,l),
(226,221,l),
(86,221,l),
(47,151,l)
);
},
{
closed = 1;
nodes = (
(152,326,l),
(189,45,ls),
(193,18,o),
(206,0,o),
(234,0,cs),
(261,0,o),
(276,21,o),
(271,50,cs),
(216,371,l)
);
}
);
vertWidth = 0;
width = 326;
}
);
metricLeft = A;
metricRight = A;
},
{
color = 6;
glyphname = b.sc;
layers = (
{
layerId = m01;
shapes = (
{
closed = 1;
nodes = (
(118,384,o),
(107,396,o),
(92,396,cs),
(77,396,o),
(68,387,o),
(66,369,cs),
(31,32,ls),
(29,15,o),
(41,0,o),
(57,0,cs),
(69,0,o),
(79,8,o),
(81,27,cs),
(116,363,ls)
);
},
{
closed = 1;
nodes = (
(213,-1,o),
(276,18,o),
(285,92,cs),
(293,175,o),
(200,224,o),
(90,224,c),
(86,171,l),
(184,171,o),
(240,144,o),
(236,100,cs),
(231,59,o),
(170,49,o),
(60,50,c),
(55,0,l)
);
},
{
closed = 1;
nodes = (
(265,171,o),
(297,212,o),
(304,281,cs),
(313,360,o),
(210,396,o),
(91,396,c),
(85,345,l),
(188,346,o),
(259,329,o),
(254,286,cs),
(251,247,o),
(233,224,o),
(94,224,c),
(89,171,l)
);
}
);
vertWidth = 0;
width = 348;
},
{
layerId = m002;
shapes = (
{
closed = 1;
nodes = (
(179,374,o),
(155,396,o),
(126,396,cs),
(101,396,o),
(83,380,o),
(80,352,cs),
(48,54,ls),
(45,25,o),
(69,0,o),
(99,0,cs),
(121,0,o),
(141,16,o),
(144,43,cs),
(175,340,ls)
);
},
{
closed = 1;
nodes = (
(241,0,o),
(322,12,o),
(330,95,cs),
(340,193,o),
(224,236,o),
(150,236,c),
(142,153,l),
(202,153,o),
(243,141,o),
(241,115,cs),
(239,91,o),
(189,80,o),
(105,80,c),
(97,0,l)
);
},
{
closed = 1;
nodes = (
(300,153,o),
(338,197,o),
(347,270,cs),
(357,364,o),
(247,396,o),
(124,396,c),
(113,317,l),
(208,317,o),
(261,302,o),
(258,280,cs),
(255,253,o),
(245,236,o),
(153,236,c),
(145,153,l)
);
}
);
vertWidth = 0;
width = 388;
}
);
metricLeft = B;
metricRight = B;
},
{
color = 6;
glyphname = c.sc;
layers = (
{
layerId = m01;
shapes = (
{
closed = 1;
nodes = (
(289,141,o),
(279,154,o),
(272,158,cs),
(264,162,o),
(246,165,o),
(240,154,cs),
(210,96,o),
(164,46,o),
(138,46,cs),
(105,46,o),
(90,119,o),
(90,169,cs),
(90,227,o),
(129,346,o),
(208,346,cs),
(226,346,o),
(256,343,o),
(269,338,cs),
(281,333,o),
(297,335,o),
(305,352,cs),
(312,367,o),
(308,378,o),
(294,383,cs),
(275,390,o),
(235,396,o),
(208,396,cs),
(95,396,o),
(40,249,o),
(40,169,cs),
(40,62,o),
(82,-4,o),
(138,-4,cs),
(191,-4,o),
(248,60,o),
(284,131,cs)
);
}
);
vertWidth = 0;
width = 322;
},
{
layerId = m002;
shapes = (
{
closed = 1;
nodes = (
(311,132,o),
(310,159,o),
(284,172,cs),
(258,185,o),
(233,178,o),
(225,163,cs),
(203,121,o),
(166,86,o),
(148,86,cs),
(129,86,o),
(121,138,o),
(126,183,cs),
(130,218,o),
(145,302,o),
(204,302,cs),
(215,302,o),
(255,301,o),
(265,299,cs),
(287,296,o),
(310,299,o),
(325,332,cs),
(339,363,o),
(325,372,o),
(301,382,cs),
(290,386,o),
(253,392,o),
(211,392,cs),
(81,392,o),
(46,275,o),
(36,185,cs),
(23,66,o),
(79,-4,o),
(152,-4,cs),
(196,-4,o),
(270,56,o),
(305,121,cs)
);
}
);
vertWidth = 0;
width = 338;
}
);
metricLeft = C;
metricRight = C;
},
{
color = 6;
glyphname = d.sc;
layers = (
{
layerId = m01;
shapes = (
{
closed = 1;
nodes = (
(94,0,ls),
(195,0,o),
(285,78,o),
(298,210,cs),
(309,315,o),
(219,396,o),
(113,396,cs),
(92,396,l),
(107,342,l),
(120,342,ls),
(197,342,o),
(256,287,o),
(248,214,cs),
(238,107,o),
(166,50,o),
(91,50,cs),
(76,50,l),
(57,0,l)
);
},
{
closed = 1;
nodes = (
(119,377,o),
(111,396,o),
(93,396,cs),
(76,396,o),
(69,388,o),
(67,369,cs),
(31,29,ls),
(29,14,o),
(40,0,o),
(58,0,cs),
(76,0,o),
(80,12,o),
(81,22,cs),
(117,359,ls)
);
}
);
vertWidth = 0;
width = 334;
},
{
layerId = m002;
shapes = (
{
closed = 1;
nodes = (
(133,0,ls),
(234,0,o),
(329,78,o),
(343,205,cs),
(353,313,o),
(254,396,o),
(146,396,cs),
(128,396,l),
(144,316,l),
(155,316,ls),
(212,316,o),
(253,270,o),
(247,216,cs),
(240,129,o),
(185,74,o),
(128,74,cs),
(118,74,l),
(100,0,l)
);
},
{
closed = 1;
nodes = (
(180,367,o),
(160,396,o),
(128,396,cs),
(105,396,o),
(85,385,o),
(82,353,cs),
(50,52,ls),
(47,24,o),
(70,0,o),
(101,0,cs),
(128,0,o),
(143,17,o),
(145,38,cs),
(177,336,ls)
);
}
);
vertWidth = 0;
width = 382;
}
);
metricLeft = D;
metricRight = D;
},
{
color = 6;
glyphname = e.sc;
layers = (
{
layerId = m01;
shapes = (
{
closed = 1;
nodes = (
(119,385,o),
(112,396,o),
(94,396,cs),
(77,396,o),
(69,387,o),
(68,374,cs),
(31,29,ls),
(29,13,o),
(40,0,o),
(57,0,cs),
(74,0,o),
(80,12,o),
(81,23,cs),
(117,368,ls)
);
},
{
closed = 1;
nodes = (
(253,0,ls),
(268,0,o),
(276,12,o),
(276,26,cs),
(276,39,o),
(266,51,o),
(249,51,cs),
(73,51,l),
(55,0,l)
);
},
{
closed = 1;
nodes = (
(261,190,ls),
(278,190,o),
(284,201,o),
(284,214,cs),
(284,227,o),
(274,238,o),
(257,238,cs),
(93,238,l),
(89,190,l)
);
},
{
closed = 1;
nodes = (
(291,346,ls),
(307,346,o),
(315,358,o),
(315,372,cs),
(315,384,o),
(305,396,o),
(287,396,cs),
(96,396,l),
(107,346,l)
);
}
);
vertWidth = 0;
width = 313;
},
{
layerId = m002;
shapes = (
{
closed = 1;
nodes = (
(185,374,o),
(160,396,o),
(130,396,cs),
(99,396,o),
(84,377,o),
(82,355,cs),
(50,52,ls),
(47,25,o),
(64,0,o),
(96,0,cs),
(126,0,o),
(147,19,o),
(149,39,cs),
(181,339,ls)
);
},
{
closed = 1;
nodes = (
(280,0,ls),
(309,0,o),
(326,18,o),
(326,44,cs),
(326,69,o),
(305,85,o),
(276,85,cs),
(137,85,l),
(96,0,l)
);
},
{
closed = 1;
nodes = (
(282,150,ls),
(312,150,o),
(331,169,o),
(331,194,cs),
(331,220,o),
(307,238,o),
(279,238,cs),
(155,238,l),
(144,150,l)
);
},
{
closed = 1;
nodes = (
(313,303,ls),
(341,303,o),
(358,325,o),
(358,351,cs),
(358,377,o),
(336,396,o),
(307,396,cs),
(129,396,l),
(160,303,l)
);
}
);
vertWidth = 0;
width = 360;
}
);
metricLeft = E;
metricRight = E;
},
{
color = 6;
glyphname = f.sc;
layers = (
{
layerId = m01;
shapes = (
{
closed = 1;
nodes = (
(119,384,o),
(110,396,o),
(93,396,cs),
(76,396,o),
(69,387,o),
(68,374,cs),
(31,29,ls),
(29,14,o),
(39,0,o),
(56,0,cs),
(74,0,o),
(79,13,o),
(80,23,cs),
(117,368,ls)
);
},
{
closed = 1;
nodes = (
(256,190,ls),
(272,190,o),
(279,200,o),
(279,214,cs),
(279,228,o),
(268,238,o),
(252,238,cs),
(89,238,l),
(85,190,l)
);
},
{
closed = 1;
nodes = (
(292,346,ls),
(309,346,o),
(315,360,o),
(315,374,cs),
(315,387,o),
(305,396,o),
(288,396,cs),
(93,396,l),
(104,346,l)
);
}
);
vertWidth = 0;
width = 290;
},
{
layerId = m002;
shapes = (
{
closed = 1;
nodes = (
(183,374,o),
(158,396,o),
(128,396,cs),
(101,396,o),
(84,380,o),
(81,354,cs),
(50,54,ls),
(47,28,o),
(64,0,o),
(94,0,cs),
(124,0,o),
(146,16,o),
(149,45,cs),
(179,339,ls)
);
},
{
closed = 1;
nodes = (
(280,150,ls),
(309,150,o),
(325,169,o),
(325,194,cs),
(325,220,o),
(302,238,o),
(274,238,cs),
(151,238,l),
(142,150,l)
);
},
{
closed = 1;
nodes = (
(309,303,ls),
(337,303,o),
(357,323,o),
(357,350,cs),
(357,377,o),
(333,396,o),
(305,396,cs),
(128,396,l),
(155,303,l)
);
}
);
vertWidth = 0;
width = 359;
}
);
metricLeft = F;
metricRight = F;
},
{
color = 6;
glyphname = g.sc;
layers = (
{
layerId = m01;
shapes = (
{
closed = 1;
nodes = (
(251,225,o),
(250,230,o),
(212,164,cs),
(193,132,o),
(143,48,o),
(110,48,cs),
(98,48,o),
(93,64,o),
(91,89,cs),
(88,125,o),
(91,188,o),
(93,211,cs),
(95,236,o),
(96,346,o),
(222,346,cs),
(244,346,o),
(252,342,o),
(256,325,cs),
(259,312,o),
(275,304,o),
(288,308,cs),
(302,311,o),
(305,325,o),
(302,337,cs),
(293,377,o),
(257,396,o),
(217,396,cs),
(47,396,o),
(45,230,o),
(43,214,cs),
(41,195,o),
(38,129,o),
(41,92,cs),
(44,49,o),
(64,-4,o),
(111,-4,cs),
(159,-4,o),
(202,52,o),
(243,115,c),
(266,225,l)
);
},
{
closed = 1;
nodes = (
(291,214,o),
(281,225,o),
(266,225,cs),
(248,225,o),
(240,214,o),
(240,199,c),
(221,29,ls),
(219,15,o),
(228,1,o),
(245,0,cs),
(263,-1,o),
(270,12,o),
(271,25,cs),
(289,196,ls)
);
}
);
vertWidth = 0;
width = 336;
},
{
layerId = m002;
shapes = (
{
closed = 1;
nodes = (
(233,236,o),
(220,210,o),
(193,165,cs),
(159,106,o),
(135,84,o),
(128,84,cs),
(123,84,o),
(124,105,o),
(123,130,cs),
(122,156,o),
(124,176,o),
(126,197,cs),
(129,220,o),
(129,305,o),
(203,305,cs),
(208,304,o),
(226,304,o),
(229,295,cs),
(234,282,o),
(261,269,o),
(286,280,cs),
(310,290,o),
(317,310,o),
(309,336,cs),
(297,370,o),
(274,396,o),
(217,396,cs),
(65,396,o),
(44,289,o),
(34,209,cs),
(34,208,o),
(27,135,o),
(29,102,cs),
(32,59,o),
(58,-4,o),
(113,-4,cs),
(161,-4,o),
(210,52,o),
(251,115,c),
(269,236,l)
);
},
{
closed = 1;
nodes = (
(310,204,o),
(295,236,o),
(268,236,cs),
(266,236,o),
(233,229,o),
(230,213,cs),
(203,45,ls),
(200,28,o),
(213,0,o),
(251,0,cs),
(275,0,o),
(291,22,o),
(292,36,cs),
(308,188,ls)
);
}
);
vertWidth = 0;
width = 357;
}
);
metricLeft = G;
metricRight = G;
},
{
color = 6;
glyphname = h.sc;
layers = (
{
layerId = m01;
shapes = (
{
closed = 1;
nodes = (
(119,386,o),
(108,396,o),
(94,396,cs),
(78,396,o),
(69,388,o),
(68,374,cs),
(31,29,ls),
(29,13,o),
(40,0,o),
(57,0,cs),
(74,0,o),
(80,12,o),
(81,23,cs),
(117,368,ls)
);
},
{
closed = 1;
nodes = (
(257,190,l),
(262,238,l),
(92,238,l),
(87,190,l)
);
},
{
closed = 1;
nodes = (
(316,385,o),
(306,396,o),
(289,396,cs),
(274,396,o),
(266,389,o),
(265,377,cs),
(228,29,ls),
(226,14,o),
(234,0,o),
(253,0,cs),
(268,0,o),
(276,11,o),
(277,22,cs),
(314,369,ls)
);
}
);
vertWidth = 0;
width = 350;
},
{
layerId = m002;
shapes = (
{
closed = 1;
nodes = (
(183,372,o),
(161,396,o),
(133,396,cs),
(106,396,o),
(83,377,o),
(81,354,cs),
(50,51,ls),
(47,20,o),
(73,0,o),
(101,0,cs),
(129,0,o),
(147,18,o),
(149,39,cs),
(180,340,ls)
);
},
{
closed = 1;
nodes = (
(253,153,l),
(263,238,l),
(154,238,l),
(144,153,l)
);
},
{
closed = 1;
nodes = (
(359,373,o),
(335,396,o),
(306,396,cs),
(281,396,o),
(259,378,o),
(257,356,cs),
(226,50,ls),
(223,22,o),
(245,0,o),
(276,0,cs),
(301,0,o),
(322,16,o),
(324,37,cs),
(356,340,ls)
);
}
);
vertWidth = 0;
width = 408;
}
);
metricLeft = H;
metricRight = H;
},
{
color = 6;
glyphname = i.sc;
layers = (
{
layerId = m01;
shapes = (
{
closed = 1;
nodes = (
(140,387,o),
(130,396,o),
(113,396,cs),
(97,396,o),
(90,390,o),
(88,374,cs),
(51,29,ls),
(49,14,o),
(59,0,o),
(76,0,cs),
(96,0,o),
(100,16,o),
(101,22,cs),
(138,368,ls)
);
}
);
vertWidth = 0;
width = 193;
},
{
layerId = m002;
shapes = (
{
closed = 1;
nodes = (
(203,373,o),
(180,396,o),
(150,396,cs),
(124,396,o),
(103,379,o),
(100,354,cs),
(68,51,ls),
(65,23,o),
(85,0,o),
(115,0,cs),
(144,0,o),
(165,17,o),
(167,38,cs),
(199,339,ls)
);
}
);
vertWidth = 0;
width = 272;
}
);
metricLeft = I;
metricRight = I;
},
{
color = 6;
glyphname = j.sc;
layers = (
{
layerId = m01;
shapes = (
{
closed = 1;
nodes = (
(129,128,ls),
(126,100,o),
(122,74,o),
(107,59,cs),
(99,50,o),
(85,46,o),
(67,46,cs),
(54,46,o),
(45,54,o),
(36,65,cs),
(23,81,o),
(5,85,o),
(-6,75,cs),
(-17,64,o),
(-16,50,o),
(-1,32,cs),
(16,13,o),
(38,-4,o),
(70,-4,cs),
(101,-4,o),
(123,6,o),
(140,21,cs),
(163,43,o),
(174,80,o),
(179,124,cs),
(205,366,ls),
(207,384,o),
(198,396,o),
(180,396,cs),
(165,396,o),
(158,389,o),
(155,373,c)
);
}
);
vertWidth = 0;
width = 242;
},
{
layerId = m002;
shapes = (
{
closed = 1;
nodes = (
(125,172,ls),
(123,149,o),
(119,111,o),
(109,100,cs),
(102,93,o),
(97,91,o),
(88,91,cs),
(78,91,o),
(72,98,o),
(67,103,cs),
(45,122,o),
(9,121,o),
(-8,95,cs),
(-19,79,o),
(-15,54,o),
(0,39,cs),
(9,32,o),
(35,-4,o),
(97,-4,cs),
(132,-4,o),
(159,10,o),
(183,34,cs),
(213,68,o),
(220,134,o),
(223,160,cs),
(241,337,ls),
(245,371,o),
(224,396,o),
(192,396,cs),
(161,396,o),
(147,374,o),
(144,351,cs)
);
}
);
vertWidth = 0;
width = 283;
}
);
metricLeft = J;
metricRight = J;
},
{
color = 6;
glyphname = k.sc;
layers = (
{
layerId = m01;
shapes = (
{
closed = 1;
nodes = (
(303,347,ls),
(312,355,o),
(316,365,o),
(316,374,cs),
(316,383,o),
(307,395,o),
(296,396,cs),
(285,396,o),
(278,393,o),
(269,385,cs),
(81,226,l),
(83,203,l),
(129,199,l)
);
},
{
closed = 1;
nodes = (
(81,228,l),
(83,207,l),
(229,16,ls),
(236,6,o),
(245,0,o),
(256,0,cs),
(266,0,o),
(275,7,o),
(278,18,cs),
(279,26,o),
(275,34,o),
(269,42,cs),
(129,227,l)
);
},
{
closed = 1;
nodes = (
(119,382,o),
(111,396,o),
(94,396,cs),
(78,396,o),
(70,388,o),
(68,368,cs),
(32,32,ls),
(30,15,o),
(42,0,o),
(58,0,cs),
(75,0,o),
(81,14,o),
(82,27,cs),
(117,362,ls)
);
}
);
vertWidth = 0;
width = 284;
},
{
layerId = m002;
shapes = (
{
closed = 1;
nodes = (
(337,307,ls),
(350,319,o),
(355,332,o),
(356,343,cs),
(358,369,o),
(336,393,o),
(307,393,cs),
(295,393,o),
(278,388,o),
(266,378,cs),
(163,294,l),
(153,171,l),
(179,171,l)
);
},
{
closed = 1;
nodes = (
(159,240,l),
(148,133,l),
(231,23,ls),
(242,8,o),
(259,0,o),
(277,0,cs),
(297,0,o),
(318,12,o),
(322,34,cs),
(324,46,o),
(321,60,o),
(312,72,cs),
(183,240,l)
);
},
{
closed = 1;
nodes = (
(182,375,o),
(154,393,o),
(130,393,cs),
(104,393,o),
(82,377,o),
(80,354,cs),
(48,54,ls),
(45,25,o),
(68,0,o),
(99,0,cs),
(124,0,o),
(144,15,o),
(147,41,cs),
(178,339,ls)
);
}
);
vertWidth = 0;
width = 341;
}
);
metricLeft = K;
metricRight = K;
},
{
color = 6;
glyphname = l.sc;
layers = (
{
layerId = m01;
shapes = (
{
closed = 1;
nodes = (
(119,385,o),
(111,396,o),
(94,396,cs),
(80,396,o),
(70,391,o),
(68,374,cs),
(31,29,ls),
(29,13,o),
(40,0,o),
(57,0,cs),
(74,0,o),
(79,13,o),
(80,23,cs),
(117,368,ls)
);
},
{
closed = 1;
nodes = (
(255,0,ls),
(271,0,o),
(278,13,o),
(278,26,cs),
(278,39,o),
(267,51,o),
(251,51,cs),
(73,51,l),
(50,0,l)
);
}
);
vertWidth = 0;
width = 304;
},
{
layerId = m002;
shapes = (
{
closed = 1;
nodes = (
(181,373,o),
(159,396,o),
(129,396,cs),
(100,396,o),
(82,376,o),
(80,353,cs),
(48,50,ls),
(45,22,o),
(66,0,o),
(95,0,cs),
(123,0,o),
(143,17,o),
(145,38,cs),
(177,339,ls)
);
},
{
closed = 1;
nodes = (
(278,0,ls),
(306,0,o),
(324,21,o),
(324,46,cs),
(324,71,o),
(300,91,o),
(272,91,cs),
(131,91,l),
(94,0,l)
);
}
);
vertWidth = 0;
width = 350;
}
);
metricLeft = L;
metricRight = L;
},
{
color = 6;
glyphname = m.sc;
layers = (
{
layerId = m01;
shapes = (
{
closed = 1;
nodes = (
(123,379,ls),
(120,390,o),
(109,396,o),
(93,396,c),
(82,352,l),
(202,17,ls),
(206,6,o),
(213,0,o),
(227,0,c),
(240,51,l)
);
},
{
closed = 1;
nodes = (
(94,396,l),
(81,396,o),
(70,392,o),
(68,374,cs),
(31,29,ls),
(29,14,o),
(39,0,o),
(56,0,cs),
(74,0,o),
(80,13,o),
(81,25,cs),
(116,368,l)
);
},
{
closed = 1;
nodes = (
(415,0,o),
(421,12,o),
(422,23,cs),
(458,368,ls),
(460,386,o),
(451,396,o),
(436,396,c),
(406,345,l),
(372,29,ls),
(370,14,o),
(381,0,o),
(397,0,cs)
);
},
{
closed = 1;
nodes = (
(226,0,l),
(238,0,o),
(244,4,o),
(250,15,cs),
(444,339,l),
(437,396,l),
(429,396,o),
(417,393,o),
(412,385,cs),
(212,50,l)
);
}
);
vertWidth = 0;
width = 494;
},
{
layerId = m002;
shapes = (
{
closed = 1;
nodes = (
(184,362,ls),
(175,387,o),
(155,396,o),
(127,396,c),
(111,283,l),
(203,34,ls),
(211,11,o),
(228,0,o),
(261,0,c),
(288,77,l)
);
},
{
closed = 1;
nodes = (
(128,396,l),
(100,396,o),
(85,383,o),
(82,353,cs),
(50,51,ls),
(48,20,o),
(72,0,o),
(99,0,cs),
(127,0,o),
(147,18,o),
(149,41,cs),
(175,290,l)
);
},
{
closed = 1;
nodes = (
(450,0,o),
(465,16,o),
(467,39,cs),
(499,339,ls),
(504,377,o),
(483,396,o),
(453,396,c),
(394,278,l),
(369,49,ls),
(366,24,o),
(389,0,o),
(423,0,cs)
);
},
{
closed = 1;
nodes = (
(257,0,l),
(290,0,o),
(305,6,o),
(317,28,cs),
(454,262,l),
(454,396,l),
(427,396,o),
(412,387,o),
(400,367,cs),
(233,83,l)
);
}
);
vertWidth = 0;
width = 552;
}
);
metricLeft = M;
metricRight = M;
},
{
color = 6;
glyphname = n.sc;
layers = (
{
layerId = m01;
shapes = (
{
closed = 1;
nodes = (
(125,377,ls),
(122,384,o),
(114,396,o),
(94,396,c),
(91,327,l),
(214,17,ls),
(219,5,o),
(230,0,o),
(251,0,c),
(254,52,l)
);
},
{
closed = 1;
nodes = (
(95,396,l),
(75,396,o),
(69,384,o),
(68,374,cs),
(31,29,ls),
(29,13,o),
(40,0,o),
(57,0,cs),
(74,0,o),
(80,12,o),
(81,25,cs),
(113,325,l)
);
},
{
closed = 1;
nodes = (
(272,0,o),
(277,16,o),
(278,22,cs),
(314,368,ls),
(315,379,o),
(311,396,o),
(291,396,cs),
(272,396,o),
(265,381,o),
(264,368,cs),
(229,37,l),
(249,0,l)
);
}
);
vertWidth = 0;
width = 350;
},
{
layerId = m002;
shapes = (
{
closed = 1;
nodes = (
(182,365,ls),
(176,380,o),
(158,396,o),
(126,396,c),
(123,279,l),
(226,28,ls),
(233,10,o),
(255,0,o),
(281,0,c),
(275,140,l)
);
},
{
closed = 1;
nodes = (
(128,396,l),
(94,396,o),
(83,376,o),
(81,353,cs),
(49,51,ls),
(46,20,o),
(65,0,o),
(92,0,cs),
(120,0,o),
(146,18,o),
(148,41,cs),
(172,271,l)
);
},
{
closed = 1;
nodes = (
(314,0,o),
(322,19,o),
(324,39,cs),
(356,339,ls),
(359,369,o),
(338,396,o),
(307,396,cs),
(281,396,o),
(259,376,o),
(257,354,cs),
(235,138,l),
(279,0,l)
);
}
);
vertWidth = 0;
width = 409;
}
);
metricLeft = N;
metricRight = N;
},
{
color = 6;
glyphname = o.sc;
layers = (
{
layerId = m01;
shapes = (
{
closed = 1;
nodes = (
(252,0,o),
(303,155,o),
(314,265,cs),
(322,332,o),
(276,396,o),
(194,396,cs),
(80,396,o),
(59,269,o),
(59,175,cs),
(57,94,o),
(83,0,o),
(149,0,cs)
);
},
{
closed = 1;
nodes = (
(124,50,o),
(107,122,o),
(109,167,cs),
(113,252,o),
(120,346,o),
(194,346,cs),
(255,346,o),
(267,295,o),
(264,266,cs),
(255,175,o),
(211,50,o),
(149,50,cs)
);
}
);
vertWidth = 0;
width = 352;
},
{
layerId = m002;
shapes = (
{
closed = 1;
nodes = (
(267,0,o),
(328,149,o),
(337,251,cs),
(346,328,o),
(319,396,o),
(196,396,cs),
(92,396,o),
(55,267,o),
(54,178,cs),
(53,100,o),
(75,0,o),
(161,0,cs)
);
},
{
closed = 1;
nodes = (
(157,90,o),
(143,124,o),
(144,167,cs),
(144,211,o),
(149,305,o),
(211,305,cs),
(252,305,o),
(250,284,o),
(247,258,cs),
(239,184,o),
(193,90,o),
(171,90,cs)
);
}
);
vertWidth = 0;
width = 382;
}
);
metricLeft = O;
metricRight = O;
},
{
color = 6;
glyphname = p.sc;
layers = (
{
layerId = m01;
shapes = (
{
closed = 1;
nodes = (
(191,187,o),
(295,184,o),
(306,287,cs),
(314,368,o),
(213,396,o),
(94,396,c),
(98,350,l),
(205,350,o),
(261,331,o),
(256,294,cs),
(251,235,o),
(174,238,o),
(92,238,c),
(89,187,l)
);
},
{
closed = 1;
nodes = (
(119,387,o),
(112,396,o),
(94,396,cs),
(77,396,o),
(69,387,o),
(68,376,cs),
(31,31,ls),
(29,14,o),
(41,0,o),
(57,0,cs),
(75,0,o),
(80,14,o),
(81,25,cs),
(117,370,ls)
);
}
);
vertWidth = 0;
width = 291;
},
{
layerId = m002;
shapes = (
{
closed = 1;
nodes = (
(208,165,o),
(337,168,o),
(348,272,cs),
(358,370,o),
(249,396,o),
(128,396,c),
(135,305,l),
(231,309,o),
(254,303,o),
(251,283,cs),
(248,255,o),
(203,250,o),
(136,250,c),
(130,165,l)
);
},
{
closed = 1;
nodes = (
(181,379,o),
(155,396,o),
(128,396,cs),
(101,396,o),
(83,382,o),
(80,357,cs),
(48,54,ls),
(45,26,o),
(67,0,o),
(99,0,cs),
(126,0,o),
(144,17,o),
(146,41,cs),
(177,342,ls)
);
}
);
vertWidth = 0;
width = 349;
}
);
metricLeft = P;
metricRight = P;
},
{
color = 6;
glyphname = q.sc;
layers = (
{
layerId = m01;
shapes = (
{
closed = 1;
nodes = (
(179,116,o),
(163,115,o),
(153,103,cs),
(147,94,o),
(148,80,o),
(162,67,cs),
(242,-9,ls),
(255,-21,o),
(270,-23,o),
(280,-15,cs),
(290,-7,o),
(289,12,o),
(277,24,cs),
(193,103,ls)
);
},
{
closed = 1;
nodes = (
(252,0,o),
(303,155,o),
(314,265,cs),
(322,332,o),
(276,396,o),
(194,396,cs),
(80,396,o),
(59,269,o),
(59,175,cs),
(57,94,o),
(83,0,o),
(149,0,cs)
);
},
{
closed = 1;
nodes = (
(124,50,o),
(107,122,o),
(109,167,cs),
(113,252,o),
(120,346,o),
(194,346,cs),
(255,346,o),
(267,295,o),
(264,266,cs),
(255,175,o),
(211,50,o),
(149,50,cs)
);
}
);
vertWidth = 0;
width = 352;
},
{
layerId = m002;
shapes = (
{
closed = 1;
nodes = (
(207,148,o),
(184,153,o),
(169,133,cs),
(154,116,o),
(165,90,o),
(187,68,cs),
(256,1,ls),
(277,-20,o),
(298,-21,o),
(314,-5,cs),
(334,13,o),
(325,36,o),
(303,57,cs),
(231,127,l)
);
},
{
closed = 1;
nodes = (
(267,0,o),
(328,149,o),
(337,251,cs),
(346,328,o),
(319,396,o),
(196,396,cs),
(92,396,o),
(55,267,o),
(54,178,cs),
(53,100,o),
(75,0,o),
(161,0,cs)
);
},
{
closed = 1;
nodes = (
(157,90,o),
(143,124,o),
(144,167,cs),
(144,211,o),
(149,305,o),
(211,305,cs),
(252,305,o),
(250,284,o),
(247,258,cs),
(239,184,o),
(193,90,o),
(171,90,cs)
);
}
);
vertWidth = 0;
width = 382;
}
);
metricLeft = Q;
metricRight = Q;
},
{
color = 6;
glyphname = r.sc;
layers = (
{
layerId = m01;
shapes = (
{
closed = 1;
nodes = (
(188,186,o),
(296,182,o),
(307,285,cs),
(315,366,o),
(234,396,o),
(94,396,c),
(91,345,l),
(211,346,o),
(262,330,o),
(258,292,cs),
(251,232,o),
(171,238,o),
(93,238,c),
(90,187,l)
);
},
{
closed = 1;
nodes = (
(74,219,l),
(230,14,ls),
(238,4,o),
(246,0,o),
(254,0,cs),
(264,0,o),
(273,6,o),
(277,14,cs),
(280,19,o),
(280,30,o),
(273,39,cs),
(141,213,l)
);
},
{
closed = 1;
nodes = (
(119,387,o),
(111,396,o),
(94,396,cs),
(77,396,o),
(71,390,o),
(69,374,cs),
(32,32,ls),
(30,13,o),
(42,0,o),
(57,0,cs),
(75,0,o),
(81,13,o),
(82,27,cs),
(118,368,l)
);
}
);
vertWidth = 0;
width = 333;
},
{
layerId = m002;
shapes = (
{
closed = 1;
nodes = (
(178,150,o),
(335,146,o),
(348,269,cs),
(359,367,o),
(235,396,o),
(129,396,c),
(136,302,l),
(224,304,o),
(254,299,o),
(251,269,cs),
(248,242,o),
(166,238,o),
(138,238,c),
(141,150,l)
);
},
{
closed = 1;
nodes = (
(121,177,l),
(237,21,ls),
(248,6,o),
(265,0,o),
(280,0,cs),
(299,0,o),
(319,12,o),
(324,31,cs),
(327,45,o),
(324,58,o),
(315,70,cs),
(236,177,l)
);
},
{
closed = 1;
nodes = (
(183,373,o),
(160,396,o),
(129,396,cs),
(102,396,o),
(84,378,o),
(81,353,cs),
(49,54,ls),
(45,21,o),
(68,0,o),
(96,0,cs),
(123,0,o),
(145,20,o),
(148,47,cs),
(179,339,ls)
);
}
);
vertWidth = 0;
width = 368;
}
);
metricLeft = R;
metricRight = R;
},
{
color = 6;
glyphname = s.sc;
layers = (
{
layerId = m01;
shapes = (
{
closed = 1;
nodes = (
(80,47,o),
(63,60,o),
(60,73,cs),
(57,85,o),
(41,93,o),
(28,89,cs),
(14,86,o),
(11,72,o),
(14,60,cs),
(24,19,o),
(61,-4,o),
(104,-4,cs),
(190,-4,o),
(254,31,o),
(262,109,cs),
(268,166,o),
(214,205,o),
(170,233,cs),
(126,261,o),
(87,278,o),
(88,294,cs),
(91,322,o),
(140,345,o),
(182,345,cs),
(226,345,o),
(237,338,o),
(239,323,cs),
(241,310,o),
(260,303,o),
(273,307,cs),
(286,310,o),
(289,324,o),
(287,336,cs),
(275,380,o),
(242,396,o),
(178,396,cs),
(100,396,o),
(44,351,o),
(39,303,cs),
(34,258,o),
(78,231,o),
(128,202,cs),
(175,175,o),
(217,154,o),
(213,116,cs),
(208,70,o),
(168,47,o),
(101,47,cs)
);
}
);
vertWidth = 0;
width = 305;
},
{
layerId = m002;
shapes = (
{
closed = 1;
nodes = (
(104,87,o),
(92,94,o),
(85,107,cs),
(78,117,o),
(59,131,o),
(33,124,cs),
(9,119,o),
(-3,97,o),
(4,72,cs),
(15,25,o),
(54,-4,o),
(99,-4,cs),
(184,-4,o),
(262,32,o),
(270,111,cs),
(278,186,o),
(209,218,o),
(186,234,cs),
(169,246,o),
(123,265,o),
(120,282,cs),
(119,291,o),
(146,305,o),
(164,305,cs),
(184,305,o),
(202,298,o),
(207,288,cs),
(213,274,o),
(237,260,o),
(263,268,cs),
(287,277,o),
(297,297,o),
(291,321,cs),
(277,372,o),
(235,396,o),
(177,396,cs),
(89,396,o),
(20,344,o),
(24,280,cs),
(28,230,o),
(72,202,o),
(104,183,cs),
(132,167,o),
(176,140,o),
(174,123,cs),
(173,101,o),
(154,87,o),
(128,87,cs)
);
}
);
vertWidth = 0;
width = 309;
}
);
metricLeft = S;
metricRight = S;
},
{
color = 6;
glyphname = t.sc;
layers = (
{
layerId = m01;
shapes = (
{
closed = 1;
nodes = (
(114,357,l),
(80,35,ls),
(77,11,o),
(88,0,o),
(105,0,cs),
(123,0,o),
(128,13,o),
(129,23,cs),
(164,357,l)
);
},
{
closed = 1;
nodes = (
(257,345,o),
(265,357,o),
(265,371,cs),
(265,383,o),
(255,396,o),
(238,396,cs),
(41,396,ls),
(24,396,o),
(18,384,o),
(18,371,cs),
(18,357,o),
(28,345,o),
(45,345,cs),
(242,345,ls)
);
}
);
vertWidth = 0;
width = 230;
},
{
layerId = m002;
shapes = (
{
closed = 1;
nodes = (
(109,330,l),
(78,50,ls),
(74,22,o),
(98,-1,o),
(128,-1,cs),
(154,-1,o),
(173,15,o),
(175,38,cs),
(206,321,l)
);
},
{
closed = 1;
nodes = (
(274,305,o),
(291,325,o),
(290,350,cs),
(288,376,o),
(266,396,o),
(237,396,cs),
(73,396,ls),
(45,396,o),
(26,376,o),
(28,350,cs),
(29,325,o),
(51,305,o),
(80,305,cs),
(244,305,ls)
);
}
);
vertWidth = 0;
width = 272;
}
);
metricLeft = T;
metricRight = T;
},
{
color = 6;
glyphname = u.sc;
layers = (
{
layerId = m01;
shapes = (
{
closed = 1;
nodes = (
(252,224,l),
(248,215,o),
(244,208,o),
(241,203,cs),
(209,144,o),
(134,46,o),
(96,46,cs),
(81,46,o),
(84,76,o),
(88,113,cs),
(116,370,ls),
(118,384,o),
(108,395,o),
(92,396,cs),
(78,396,o),
(68,387,o),
(66,373,cs),
(38,119,ls),
(29,37,o),
(53,-4,o),
(95,-4,cs),
(133,-4,o),
(190,39,o),
(240,106,c)
);
},
{
closed = 1;
nodes = (
(315,387,o),
(306,396,o),
(289,396,cs),
(274,396,o),
(264,389,o),
(263,376,cs),
(227,34,ls),
(224,10,o),
(236,0,o),
(253,0,cs),
(265,0,o),
(275,8,o),
(276,22,cs),
(313,371,ls)
);
}
);
vertWidth = 0;
width = 349;
},
{
layerId = m002;
shapes = (
{
closed = 1;
nodes = (
(265,222,l),
(263,218,o),
(261,215,o),
(259,212,cs),
(233,173,o),
(169,88,o),
(159,88,cs),
(149,88,o),
(152,108,o),
(155,137,cs),
(178,342,ls),
(182,376,o),
(165,396,o),
(137,396,cs),
(109,397,o),
(90,376,o),
(87,351,cs),
(63,130,ls),
(53,42,o),
(86,-4,o),
(130,-4,cs),
(172,-4,o),
(214,23,o),
(251,62,c)
);
},
{
closed = 1;
nodes = (
(366,376,o),
(347,396,o),
(315,396,cs),
(290,396,o),
(275,376,o),
(273,357,cs),
(241,51,ls),
(238,19,o),
(255,0,o),
(282,0,cs),
(308,0,o),
(329,16,o),
(331,38,cs),
(363,343,ls)
);
}
);
vertWidth = 0;
width = 415;
}
);
metricLeft = U;
metricRight = U;
},
{
color = 6;
glyphname = v.sc;
layers = (
{
layerId = m01;
shapes = (
{
closed = 1;
nodes = (
(139,0,o),
(145,8,o),
(151,20,cs),
(306,364,ls),
(314,383,o),
(302,396,o),
(285,396,cs),
(269,396,o),
(263,390,o),
(258,380,cs),
(114,60,l),
(125,0,l)
);
},
{
closed = 1;
nodes = (
(112,374,ls),
(111,387,o),
(100,396,o),
(83,396,cs),
(68,396,o),
(60,389,o),
(62,373,cs),
(98,27,ls),
(99,13,o),
(111,0,o),
(127,0,c),
(145,60,l)
);
}
);
vertWidth = 0;
width = 308;
},
{
layerId = m002;
shapes = (
{
closed = 1;
nodes = (
(150,0,o),
(169,8,o),
(179,29,cs),
(321,330,ls),
(339,367,o),
(313,396,o),
(279,396,cs),
(253,396,o),
(238,382,o),
(229,364,cs),
(104,101,l),
(131,0,l)
);
},
{
closed = 1;
nodes = (
(145,352,ls),
(142,379,o),
(119,396,o),
(93,396,cs),
(63,396,o),
(47,374,o),
(50,345,cs),
(81,43,ls),
(84,14,o),
(112,0,o),
(135,0,c),
(170,103,l)
);
}
);
vertWidth = 0;
width = 315;
}
);
metricLeft = V;
metricRight = V;
},
{
color = 6;
glyphname = w.sc;
layers = (
{
layerId = m01;
shapes = (
{
closed = 1;
nodes = (
(342,0,o),
(346,8,o),
(352,20,cs),
(507,364,ls),
(512,375,o),
(511,396,o),
(485,396,cs),
(471,396,o),
(464,390,o),
(459,380,cs),
(315,60,l),
(325,0,l)
);
},
{
closed = 1;
nodes = (
(112,375,ls),
(111,386,o),
(101,396,o),
(83,396,cs),
(68,396,o),
(60,386,o),
(62,372,cs),
(99,26,ls),
(101,10,o),
(112,0,o),
(129,0,c),
(146,57,l)
);
},
{
closed = 1;
nodes = (
(143,0,o),
(147,12,o),
(152,22,cs),
(292,332,l),
(283,396,l),
(270,396,o),
(262,387,o),
(258,379,cs),
(112,55,l),
(128,0,l)
);
},
{
closed = 1;
nodes = (
(313,375,ls),
(312,388,o),
(299,396,o),
(282,396,c),
(267,332,l),
(300,21,ls),
(301,14,o),
(311,0,o),
(327,0,c),
(346,63,l)
);
}
);
vertWidth = 0;
width = 508;
},
{
layerId = m002;
shapes = (
{
closed = 1;
nodes = (
(359,0,o),
(373,8,o),
(383,29,cs),
(518,330,ls),
(531,361,o),
(511,396,o),
(473,396,cs),
(447,396,o),
(438,385,o),
(426,361,cs),
(318,125,l),
(340,0,l)
);
},
{
closed = 1;
nodes = (
(146,352,ls),
(143,376,o),
(122,396,o),
(93,396,cs),
(66,396,o),
(47,374,o),
(51,345,cs),
(97,43,ls),
(102,12,o),
(125,0,o),
(152,0,c),
(183,121,l)
);
},
{
closed = 1;
nodes = (
(175,0,o),
(185,10,o),
(194,29,cs),
(304,268,l),
(286,396,l),
(252,396,o),
(245,381,o),
(238,365,cs),
(128,121,l),
(148,0,l)
);
},
{
closed = 1;
nodes = (
(335,352,ls),
(331,380,o),
(316,396,o),
(284,396,c),
(252,267,l),
(286,36,ls),
(290,12,o),
(318,0,o),
(343,0,c),
(370,125,l)
);
}
);
vertWidth = 0;
width = 510;
}
);
metricLeft = W;
metricRight = W;
},
{
color = 6;
glyphname = x.sc;
layers = (
{
layerId = m01;
shapes = (
{
closed = 1;
nodes = (
(276,368,o),
(273,384,o),
(263,392,cs),
(252,400,o),
(235,399,o),
(226,385,cs),
(-7,40,ls),
(-14,30,o),
(-13,16,o),
(-2,6,cs),
(9,-3,o),
(27,-3,o),
(36,10,cs),
(267,355,ls)
);
},
{
closed = 1;
nodes = (
(68,397,o),
(52,399,o),
(40,395,cs),
(28,391,o),
(24,377,o),
(31,361,cs),
(188,17,ls),
(195,2,o),
(213,-5,o),
(227,3,cs),
(238,9,o),
(239,24,o),
(233,36,cs),
(75,381,ls)
);
}
);
vertWidth = 0;
width = 270;
},
{
layerId = m002;
shapes = (
{
closed = 1;
nodes = (
(309,338,o),
(308,366,o),
(288,384,cs),
(268,403,o),
(229,398,o),
(213,375,cs),
(9,72,ls),
(-5,52,o),
(-3,31,o),
(16,13,cs),
(35,-4,o),
(76,-7,o),
(92,16,cs),
(296,319,ls)
);
},
{
closed = 1;
nodes = (
(112,389,o),
(83,401,o),
(58,393,cs),
(32,383,o),
(22,357,o),
(36,328,cs),
(180,27,ls),
(193,0,o),
(228,-6,o),
(251,5,cs),
(272,17,o),
(279,39,o),
(268,63,cs),
(123,366,ls)
);
}
);
vertWidth = 0;
width = 284;
}
);
metricLeft = X;
metricRight = X;
},
{
color = 6;
glyphname = y.sc;
layers = (
{
layerId = m01;
shapes = (
{
closed = 1;
nodes = (
(216,230,l),
(143,377,ls),
(137,390,o),
(120,401,o),
(104,394,cs),
(90,387,o),
(90,372,o),
(96,359,cs),
(182,187,l)
);
},
{
closed = 1;
nodes = (
(343,366,o),
(340,383,o),
(330,391,cs),
(320,398,o),
(304,398,o),
(293,382,cs),
(65,39,ls),
(57,28,o),
(58,14,o),
(70,6,cs),
(80,-3,o),
(97,-3,o),
(106,10,cs),
(334,353,ls)
);
}
);
vertWidth = 0;
width = 343;
},
{
layerId = m002;
shapes = (
{
closed = 1;
nodes = (
(232,251,l),
(168,368,ls),
(149,401,o),
(117,401,o),
(102,393,cs),
(73,383,o),
(70,354,o),
(83,333,cs),
(168,177,l)
);
},
{
closed = 1;
nodes = (
(390,345,o),
(382,368,o),
(363,385,cs),
(343,402,o),
(310,401,o),
(293,378,cs),
(59,72,ls),
(43,52,o),
(47,31,o),
(66,13,cs),
(85,-4,o),
(121,-7,o),
(140,17,cs),
(372,323,ls)
);
}
);
vertWidth = 0;
width = 371;
}
);
metricLeft = Y;
metricRight = Y;
},
{
color = 6;
glyphname = z.sc;
layers = (
{
layerId = m01;
shapes = (
{
closed = 1;
nodes = (
(285,362,o),
(287,375,o),
(281,384,cs),
(277,391,o),
(267,396,o),
(256,396,cs),
(249,396,o),
(243,391,o),
(239,385,cs),
(8,41,ls),
(3,34,o),
(-1,22,o),
(5,13,cs),
(10,5,o),
(19,0,o),
(33,0,cs),
(38,0,o),
(44,5,o),
(51,15,cs),
(279,354,ls)
);
},
{
closed = 1;
nodes = (
(226,0,ls),
(243,0,o),
(250,13,o),
(249,25,cs),
(248,39,o),
(237,50,o),
(222,50,cs),
(66,50,l),
(32,0,l)
);
},
{
closed = 1;
nodes = (
(258,396,l),
(63,396,ls),
(46,396,o),
(39,384,o),
(40,371,cs),
(41,357,o),
(50,346,o),
(67,346,cs),
(222,346,l)
);
}
);
vertWidth = 0;
width = 284;
},
{
layerId = m002;
shapes = (
{
closed = 1;
nodes = (
(326,335,o),
(327,355,o),
(317,371,cs),
(308,386,o),
(290,396,o),
(269,396,cs),
(256,396,o),
(242,388,o),
(233,376,cs),
(2,73,ls),
(-8,59,o),
(-11,41,o),
(-2,24,cs),
(6,10,o),
(25,0,o),
(48,0,cs),
(63,0,o),
(77,9,o),
(84,17,cs),
(313,319,ls)
);
},
{
closed = 1;
nodes = (
(244,0,ls),
(273,0,o),
(292,19,o),
(290,44,cs),
(288,70,o),
(266,91,o),
(238,91,cs),
(116,91,l),
(47,0,l)
);
},
{
closed = 1;
nodes = (
(273,396,l),
(71,396,ls),
(43,396,o),
(24,376,o),
(26,350,cs),
(27,325,o),
(49,305,o),
(78,305,cs),
(202,305,l)
);
}
);
vertWidth = 0;
width = 313;
}
);
metricLeft = Z;
metricRight = Z;
},
{
color = 6;
glyphname = zero;
layers = (
{
layerId = m01;
shapes = (
{
closed = 1;
nodes = (
(266,-3,o),
(416,202,o),
(416,385,cs),
(416,472,o),
(374,568,o),
(268,568,cs),
(112,568,o),
(30,346,o),
(30,178,cs),
(30,75,o),
(76,-5,o),
(151,-4,cs)
);
},
{
closed = 1;
nodes = (
(116,47,o),
(82,88,o),
(82,170,cs),
(82,298,o),
(142,517,o),
(274,517,cs),
(335,517,o),
(364,468,o),
(364,396,cs),
(364,220,o),
(226,47,o),
(147,47,cs)
);
}
);
vertWidth = 0;
width = 445;
},
{
layerId = m002;
shapes = (
{
closed = 1;
nodes = (
(301,-3,o),
(450,223,o),
(438,395,cs),
(433,471,o),
(394,568,o),
(274,568,cs),
(74,568,o),
(19,290,o),
(27,172,cs),
(33,91,o),
(76,-4,o),
(166,-4,cs)
);
},
{
closed = 1;
nodes = (
(144,88,o),
(131,107,o),
(126,168,cs),
(118,281,o),
(173,476,o),
(283,476,cs),
(325,476,o),
(336,449,o),
(339,398,cs),
(351,225,o),
(210,88,o),
(160,88,cs)
);
}
);
vertWidth = 0;
width = 476;
},
{
associatedMasterId = m01;
layerId = "8543755A-E0FE-465D-87BE-535F6D4CAE80";
name = background;
shapes = (
{
closed = 1;
nodes = (
(266,-3,o),
(419,228,o),
(407,402,cs),
(402,477,o),
(366,568,o),
(260,568,cs),
(71,568,o),
(14,280,o),
(23,160,cs),
(28,81,o),
(68,-4,o),
(143,-4,cs)
);
},
{
closed = 1;
nodes = (
(108,47,o),
(80,84,o),
(75,155,cs),
(66,279,o),
(129,517,o),
(266,517,cs),
(331,517,o),
(351,463,o),
(355,405,cs),
(368,212,o),
(204,47,o),
(139,47,cs)
);
}
);
vertWidth = 0;
width = 500;
}
);
unicode = 48;
},
{
color = 6;
glyphname = one;
layers = (
{
layerId = m01;
shapes = (
{
closed = 1;
nodes = (
(106,0,o),
(119,6,o),
(120,23,cs),
(176,543,ls),
(178,560,o),
(166,568,o),
(153,568,cs),
(140,568,o),
(127,561,o),
(125,543,cs),
(70,28,ls),
(68,9,o),
(81,0,o),
(94,0,cs)
);
}
);
vertWidth = 0;
width = 251;
},
{
layerId = m002;
shapes = (
{
closed = 1;
nodes = (
(121,0,o),
(145,12,o),
(148,39,cs),
(200,518,ls),
(203,548,o),
(177,568,o),
(150,568,cs),
(127,568,o),
(102,554,o),
(99,526,cs),
(48,51,ls),
(45,18,o),
(72,0,o),
(99,0,cs)
);
}
);
vertWidth = 0;
width = 243;
}
);
unicode = 49;
},
{
color = 6;
glyphname = two;
layers = (
{
layerId = m01;
shapes = (
{
closed = 1;
nodes = (
(23,0,l),
(68,49,l),
(120,115,o),
(248,263,o),
(282,306,cs),
(332,369,o),
(357,421,o),
(357,463,cs),
(357,500,o),
(338,530,o),
(300,552,cs),
(278,565,o),
(252,570,o),
(225,570,cs),
(162,570,o),
(92,541,o),
(50,505,cs),
(28,486,o),
(32,473,o),
(41,463,cs),
(49,454,o),
(65,451,o),
(89,471,cs),
(123,500,o),
(181,519,o),
(228,519,cs),
(248,519,o),
(266,516,o),
(280,508,cs),
(296,499,o),
(302,485,o),
(302,468,cs),
(302,429,o),
(268,374,o),
(235,332,cs),
(211,301,o),
(71,128,o),
(-8,35,cs),
(-20,21,o),
(-8,0,o),
(10,0,cs)
);
},
{
closed = 1;
nodes = (
(282,0,ls),
(302,0,o),
(307,13,o),
(306,25,cs),
(305,37,o),
(299,50,o),
(279,50,cs),
(28,50,l),
(10,0,l)
);
}
);
vertWidth = 0;
width = 376;
},
{
layerId = m002;
shapes = (
{
closed = 1;
nodes = (
(75,0,l),
(115,49,l),
(165,112,o),
(261,225,o),
(293,265,cs),
(357,345,o),
(388,404,o),
(388,451,cs),
(388,491,o),
(365,521,o),
(321,547,cs),
(296,562,o),
(265,569,o),
(233,569,cs),
(167,569,o),
(97,541,o),
(57,504,cs),
(30,479,o),
(34,457,o),
(48,438,cs),
(61,421,o),
(95,413,o),
(124,439,cs),
(156,466,o),
(202,482,o),
(239,482,cs),
(254,482,o),
(268,479,o),
(278,473,cs),
(285,469,o),
(288,462,o),
(288,453,cs),
(288,427,o),
(262,384,o),
(230,343,cs),
(206,313,o),
(116,207,o),
(15,80,cs),
(-16,41,o),
(0,0,o),
(40,0,cs)
);
},
{
closed = 1;
nodes = (
(295,0,ls),
(325,0,o),
(344,14,o),
(342,41,cs),
(340,65,o),
(321,86,o),
(289,86,cs),
(33,86,l),
(39,0,l)
);
}
);
vertWidth = 0;
width = 426;
}
);
unicode = 50;
},
{
color = 6;
glyphname = three;
layers = (
{
layerId = m01;
shapes = (
{
closed = 1;
nodes = (
(221,-4,o),
(352,92,o),
(352,214,cs),
(352,292,o),
(302,353,o),
(209,353,c),
(105,324,l),
(105,273,l),
(144,293,o),
(182,305,o),
(219,305,cs),
(280,305,o),
(302,261,o),
(302,216,cs),
(302,120,o),
(194,47,o),
(109,47,cs),
(79,47,o),
(58,56,o),
(38,70,cs),
(21,82,o),
(8,76,o),
(1,66,cs),
(-5,56,o),
(-6,45,o),
(11,31,cs),
(29,16,o),
(72,-4,o),
(111,-4,cs)
);
},
{
closed = 1;
nodes = (
(221,353,o),
(334,437,o),
(330,499,cs),
(327,542,o),
(286,568,o),
(227,568,cs),
(179,568,o),
(118,553,o),
(57,508,cs),
(42,497,o),
(42,480,o),
(49,470,cs),
(56,460,o),
(72,455,o),
(85,464,cs),
(143,505,o),
(199,522,o),
(236,522,cs),
(263,522,o),
(280,513,o),
(280,499,cs),
(280,461,o),
(156,365,o),
(74,316,cs),
(59,307,o),
(60,290,o),
(66,280,cs),
(72,270,o),
(86,263,o),
(105,273,c)
);
}
);
vertWidth = 0;
width = 385;
},
{
layerId = m002;
shapes = (
{
closed = 1;
nodes = (
(235,-4,o),
(375,98,o),
(375,235,cs),
(375,309,o),
(320,369,o),
(228,369,c),
(132,327,l),
(132,246,l),
(171,275,o),
(196,279,o),
(224,279,cs),
(255,279,o),
(277,258,o),
(277,224,cs),
(277,142,o),
(183,86,o),
(107,86,cs),
(89,86,o),
(77,91,o),
(54,106,cs),
(28,123,o),
(-5,113,o),
(-15,93,cs),
(-24,76,o),
(-25,54,o),
(10,28,cs),
(38,7,o),
(75,-4,o),
(112,-4,cs)
);
},
{
closed = 1;
nodes = (
(240,325,o),
(356,418,o),
(353,484,cs),
(351,535,o),
(297,568,o),
(239,568,cs),
(175,568,o),
(116,550,o),
(58,510,cs),
(33,492,o),
(29,466,o),
(43,445,cs),
(57,424,o),
(91,418,o),
(113,433,cs),
(166,470,o),
(209,486,o),
(231,486,cs),
(247,486,o),
(255,481,o),
(255,470,cs),
(255,453,o),
(148,374,o),
(73,323,cs),
(47,305,o),
(48,280,o),
(59,260,cs),
(73,233,o),
(106,227,o),
(132,246,cs)
);
}
);
vertWidth = 0;
width = 423;
},
{
associatedMasterId = m01;
layerId = "716C666E-F55F-44EC-BD0D-934AB2712F13";
name = background;
shapes = (
{
closed = 1;
nodes = (
(153,296,o),
(191,305,o),
(219,305,cs),
(278,305,o),
(299,266,o),
(302,225,cs),
(309,125,o),
(197,47,o),
(109,47,cs),
(85,47,o),
(62,53,o),
(44,66,cs),
(19,84,o),
(6,72,o),
(1,65,cs),
(-3,58,o),
(-7,45,o),
(19,25,cs),
(45,5,o),
(77,-4,o),
(111,-4,cs),
(225,-4,o),
(361,98,o),
(352,226,cs),
(347,303,o),
(292,354,o),
(209,354,cs),
(173,354,o),
(132,345,o),
(87,324,c),
(107,275,l)
);
},
{
closed = 1;
nodes = (
(222,355,o),
(334,437,o),
(330,499,cs),
(327,542,o),
(286,568,o),
(227,568,cs),
(179,568,o),
(118,551,o),
(61,511,cs),
(37,495,o),
(44,478,o),
(49,470,cs),
(56,460,o),
(72,455,o),
(85,464,cs),
(143,505,o),
(199,522,o),
(236,522,cs),
(263,522,o),
(279,513,o),
(280,499,cs),
(282,466,o),
(154,368,o),
(74,316,cs),
(58,305,o),
(62,288,o),
(66,280,cs),
(72,270,o),
(91,263,o),
(105,273,cs)
);
}
);
vertWidth = 0;
width = 500;
},
{
associatedMasterId = m002;
layerId = "3F1AC077-732A-415E-9B2E-3882532D6788";
name = background;
shapes = (
{
closed = 1;
nodes = (
(177,279,o),
(196,282,o),
(224,282,cs),
(263,282,o),
(281,262,o),
(277,228,cs),
(268,145,o),
(182,86,o),
(107,86,cs),
(89,86,o),
(76,90,o),
(62,100,cs),
(29,124,o),
(-5,113,o),
(-15,93,cs),
(-24,76,o),
(-25,54,o),
(10,28,cs),
(38,7,o),
(75,-4,o),
(112,-4,cs),
(232,-4,o),
(360,96,o),
(374,229,cs),
(383,313,o),
(320,379,o),
(228,379,cs),
(185,379,o),
(135,366,o),
(84,339,c),
(123,250,l)
);
},
{
closed = 1;
nodes = (
(240,334,o),
(345,410,o),
(353,481,cs),
(360,535,o),
(297,568,o),
(229,568,cs),
(175,568,o),
(116,550,o),
(58,510,cs),
(27,489,o),
(30,463,o),
(43,445,cs),
(56,423,o),
(85,424,o),
(107,439,cs),
(160,476,o),
(209,488,o),
(240,488,cs),
(247,488,o),
(257,487,o),
(256,481,cs),
(254,465,o),
(146,381,o),
(73,333,cs),
(47,316,o),
(48,290,o),
(59,270,cs),
(72,249,o),
(106,237,o),
(132,256,cs)
);
},
{
closed = 1;
nodes = (
(-24,76,o),
(-25,54,o),
(10,28,cs),
(38,7,o),
(75,-4,o),
(112,-4,cs),
(232,-4,o),
(360,96,o),
(374,229,cs),
(383,313,o),
(320,379,o),
(228,379,c),
(132,337,l),
(132,256,l),
(169,282,o),
(196,289,o),
(224,289,cs),
(263,289,o),
(281,262,o),
(277,228,cs),
(268,145,o),
(182,86,o),
(107,86,cs),
(89,86,o),
(76,90,o),
(62,100,cs),
(29,124,o),
(-5,113,o),
(-15,93,cs)
);
},
{
closed = 1;
nodes = (
(72,249,o),
(106,237,o),
(132,256,cs),
(240,334,o),
(356,418,o),
(353,484,cs),
(351,535,o),
(297,568,o),
(239,568,cs),
(175,568,o),
(116,550,o),
(58,510,cs),
(27,489,o),
(30,463,o),
(43,445,cs),
(56,423,o),
(85,424,o),
(107,439,cs),
(160,476,o),
(209,488,o),
(231,488,cs),
(247,488,o),
(255,481,o),
(255,470,cs),
(255,459,o),
(146,381,o),
(73,333,cs),
(47,316,o),
(48,290,o),
(59,270,cs)
);
}
);
vertWidth = 0;
width = 500;
}
);
unicode = 51;
},
{
color = 6;
glyphname = four;
layers = (
{
layerId = m01;
shapes = (
{
closed = 1;
nodes = (
(36,147,o),
(46,135,o),
(64,135,c),
(88,160,l),
(129,540,ls),
(131,558,o),
(118,568,o),
(106,568,cs),
(94,568,o),
(81,562,o),
(79,544,cs),
(37,159,ls)
);
},
{
closed = 1;
nodes = (
(214,-1,o),
(228,6,o),
(230,26,cs),
(259,282,ls),
(261,299,o),
(249,310,o),
(237,311,cs),
(224,312,o),
(211,306,o),
(209,289,cs),
(180,31,ls),
(177,11,o),
(189,1,o),
(202,0,cs)
);
},
{
closed = 1;
nodes = (
(388,170,o),
(376,180,o),
(360,180,cs),
(64,180,l),
(64,135,l),
(364,135,ls),
(380,135,o),
(388,146,o),
(388,158,cs)
);
}
);
vertWidth = 0;
width = 383;
},
{
layerId = m002;
shapes = (
{
closed = 1;
nodes = (
(22,145,o),
(44,122,o),
(76,122,c),
(124,164,l),
(162,519,ls),
(165,551,o),
(140,568,o),
(115,568,cs),
(91,568,o),
(66,555,o),
(63,527,cs),
(25,170,ls)
);
},
{
closed = 1;
nodes = (
(273,0,o),
(291,16,o),
(293,44,cs),
(314,279,ls),
(317,308,o),
(302,330,o),
(275,331,cs),
(247,332,o),
(225,320,o),
(222,292,cs),
(199,59,ls),
(195,26,o),
(210,0,o),
(241,0,cs)
);
},
{
closed = 1;
nodes = (
(416,192,o),
(398,212,o),
(370,212,cs),
(84,212,l),
(76,122,l),
(369,122,ls),
(397,122,o),
(414,142,o),
(415,168,cs)
);
}
);
vertWidth = 0;
width = 432;
}
);
unicode = 52;
},
{
color = 6;
glyphname = five;
layers = (
{
layerId = m01;
shapes = (
{
closed = 1;
nodes = (
(252,-3,o),
(340,96,o),
(340,201,cs),
(340,296,o),
(262,354,o),
(163,354,cs),
(135,354,o),
(96,342,o),
(75,333,c),
(75,286,l),
(120,299,o),
(145,304,o),
(170,304,cs),
(243,304,o),
(289,264,o),
(289,201,cs),
(289,118,o),
(221,47,o),
(128,47,cs),
(103,47,o),
(80,53,o),
(65,67,cs),
(58,74,o),
(51,76,o),
(42,76,cs),
(31,76,o),
(21,67,o),
(21,54,cs),
(21,45,o),
(26,37,o),
(36,28,cs),
(58,8,o),
(92,-3,o),
(131,-3,cs)
);
},
{
closed = 1;
nodes = (
(45,295,o),
(60,282,o),
(75,286,c),
(95,310,l),
(122,542,l),
(104,568,l),
(84,568,o),
(74,560,o),
(72,541,cs),
(47,310,ls)
);
},
{
closed = 1;
nodes = (
(352,557,o),
(344,568,o),
(324,568,cs),
(104,568,l),
(104,523,l),
(325,523,ls),
(345,523,o),
(352,533,o),
(352,545,cs)
);
}
);
vertWidth = 0;
width = 373;
},
{
layerId = m002;
shapes = (
{
closed = 1;
nodes = (
(252,-3,o),
(352,98,o),
(352,203,cs),
(352,293,o),
(279,372,o),
(170,372,cs),
(138,372,o),
(98,366,o),
(86,364,c),
(86,265,l),
(117,276,o),
(132,281,o),
(168,281,cs),
(228,281,o),
(251,238,o),
(251,196,cs),
(251,135,o),
(194,83,o),
(125,83,cs),
(107,83,o),
(92,86,o),
(81,93,cs),
(69,101,o),
(55,110,o),
(42,110,cs),
(21,110,o),
(1,97,o),
(1,72,cs),
(1,58,o),
(9,45,o),
(24,31,cs),
(49,8,o),
(89,-3,o),
(130,-3,cs)
);
},
{
closed = 1;
nodes = (
(22,281,o),
(58,257,o),
(86,265,c),
(128,304,l),
(151,529,l),
(118,571,l),
(75,571,o),
(54,555,o),
(50,524,cs),
(26,312,ls)
);
},
{
closed = 1;
nodes = (
(382,556,o),
(359,571,o),
(329,571,cs),
(118,571,l),
(109,487,l),
(335,487,ls),
(367,487,o),
(380,505,o),
(381,529,cs)
);
}
);
vertWidth = 0;
width = 386;
},
{
associatedMasterId = m01;
layerId = "8D67719A-8FC5-4BD8-AAFD-5B60171133D1";
name = background;
shapes = (
{
closed = 1;
nodes = (
(120,299,o),
(148,304,o),
(173,304,cs),
(252,304,o),
(289,252,o),
(292,211,cs),
(297,149,o),
(228,47,o),
(131,47,cs),
(106,47,o),
(83,54,o),
(68,67,cs),
(61,74,o),
(54,76,o),
(47,76,cs),
(34,76,o),
(23,67,o),
(24,54,cs),
(25,46,o),
(29,37,o),
(39,28,cs),
(61,8,o),
(95,-3,o),
(134,-3,cs),
(265,-3,o),
(348,125,o),
(342,212,cs),
(337,287,o),
(268,354,o),
(166,354,cs),
(138,354,o),
(101,346,o),
(78,338,c),
(75,286,l)
);
},
{
closed = 1;
nodes = (
(107,568,l),
(97,568,o),
(89,566,o),
(85,562,cs),
(80,558,o),
(76,551,o),
(75,541,cs),
(50,310,ls),
(48,295,o),
(62,286,o),
(75,286,c),
(101,310,l),
(126,541,l)
);
},
{
closed = 1;
nodes = (
(353,523,ls),
(373,523,o),
(379,533,o),
(378,545,cs),
(377,557,o),
(370,568,o),
(350,568,cs),
(106,568,l),
(109,523,l)
);
}
);
vertWidth = 0;
width = 500;
}
);
unicode = 53;
},
{
color = 6;
glyphname = six;
layers = (
{
layerId = m01;
shapes = (
{
closed = 1;
nodes = (
(76,113,l),
(69,209,o),
(98,288,o),
(161,387,cs),
(185,425,o),
(229,471,o),
(299,523,cs),
(309,531,o),
(313,540,o),
(313,548,cs),
(311,559,o),
(302,568,o),
(289,568,cs),
(283,568,o),
(276,566,o),
(269,562,cs),
(224,535,o),
(146,460,o),
(115,412,cs),
(54,316,o),
(21,214,o),
(27,113,c)
);
},
{
closed = 1;
nodes = (
(249,0,o),
(343,138,o),
(343,244,cs),
(343,315,o),
(305,353,o),
(226,353,cs),
(139,353,o),
(82,306,o),
(51,244,c),
(27,113,l),
(31,52,o),
(83,0,o),
(151,0,cs)
);
},
{
closed = 1;
nodes = (
(113,50,o),
(80,78,o),
(76,135,cs),
(70,215,o),
(125,303,o),
(228,303,cs),
(277,303,o),
(293,282,o),
(293,243,cs),
(293,165,o),
(214,50,o),
(146,50,cs)
);
}
);
vertWidth = 0;
width = 393;
},
{
layerId = m002;
shapes = (
{
closed = 1;
nodes = (
(93,126,l),
(92,210,o),
(136,275,o),
(199,371,cs),
(223,408,o),
(261,447,o),
(324,494,cs),
(341,506,o),
(348,521,o),
(346,537,cs),
(344,559,o),
(323,576,o),
(298,576,cs),
(288,576,o),
(277,573,o),
(266,568,c),
(220,540,o),
(147,465,o),
(115,421,cs),
(60,344,o),
(7,220,o),
(9,126,c)
);
},
{
closed = 1;
nodes = (
(249,-1,o),
(365,135,o),
(365,238,cs),
(365,308,o),
(318,354,o),
(236,354,cs),
(145,354,o),
(75,297,o),
(51,235,cs),
(9,126,l),
(9,75,o),
(64,-1,o),
(145,-1,cs)
);
},
{
closed = 1;
nodes = (
(119,87,o),
(105,99,o),
(102,140,cs),
(98,204,o),
(163,266,o),
(235,266,cs),
(265,266,o),
(272,247,o),
(272,230,cs),
(272,176,o),
(184,87,o),
(146,87,cs)
);
}
);
vertWidth = 0;
width = 411;
}
);
unicode = 54;
},
{
color = 6;
glyphname = seven;
layers = (
{
layerId = m01;
shapes = (
{
closed = 1;
nodes = (
(232,0,o),
(245,8,o),
(247,26,cs),
(303,544,ls),
(304,556,o),
(297,568,o),
(277,568,cs),
(266,568,o),
(255,560,o),
(254,549,cs),
(197,26,ls),
(195,8,o),
(207,0,o),
(220,0,cs)
);
},
{
closed = 1;
nodes = (
(7,534,o),
(16,523,o),
(34,523,cs),
(281,523,l),
(278,568,l),
(31,568,ls),
(13,568,o),
(5,557,o),
(6,546,cs)
);
}
);
vertWidth = 0;
width = 345;
},
{
layerId = m002;
shapes = (
{
closed = 1;
nodes = (
(248,0,o),
(272,15,o),
(275,42,cs),
(326,524,ls),
(329,551,o),
(319,568,o),
(276,568,cs),
(254,568,o),
(232,558,o),
(229,537,cs),
(178,50,ls),
(175,20,o),
(198,0,o),
(225,0,cs)
);
},
{
closed = 1;
nodes = (
(-2,503,o),
(20,488,o),
(50,488,cs),
(283,488,l),
(277,568,l),
(44,568,ls),
(14,568,o),
(-4,551,o),
(-3,527,cs)
);
}
);
vertWidth = 0;
width = 380;
}
);
unicode = 55;
},
{
color = 6;
glyphname = eight;
layers = (
{
layerId = m01;
shapes = (
{
closed = 1;
nodes = (
(109,45,o),
(70,91,o),
(70,137,cs),
(70,201,o),
(95,240,o),
(172,296,cs),
(249,352,o),
(341,423,o),
(341,488,cs),
(341,542,o),
(269,568,o),
(202,568,cs),
(129,568,o),
(51,533,o),
(51,448,cs),
(51,387,o),
(107,335,o),
(134,308,cs),
(149,293,ls),
(185,257,o),
(255,194,o),
(255,149,cs),
(255,101,o),
(217,45,o),
(159,45,cs)
);
},
{
closed = 1;
nodes = (
(244,-4,o),
(306,58,o),
(306,149,cs),
(306,199,o),
(251,265,o),
(194,320,cs),
(164,349,ls),
(140,373,o),
(102,406,o),
(102,451,c),
(102,504,o),
(155,518,o),
(199,518,cs),
(248,518,o),
(294,506,o),
(294,488,cs),
(294,462,o),
(210,386,o),
(140,335,cs),
(43,264,o),
(21,209,o),
(21,133,cs),
(21,54,o),
(80,-4,o),
(156,-4,cs)
);
}
);
vertWidth = 0;
width = 359;
},
{
layerId = m002;
shapes = (
{
closed = 1;
nodes = (
(144,81,o),
(120,108,o),
(118,148,cs),
(116,177,o),
(121,221,o),
(214,289,cs),
(292,346,o),
(381,405,o),
(376,472,cs),
(371,539,o),
(281,569,o),
(219,569,cs),
(142,569,o),
(46,526,o),
(53,428,cs),
(58,355,o),
(120,314,o),
(142,292,cs),
(161,273,ls),
(197,237,o),
(244,191,o),
(247,148,cs),
(249,114,o),
(218,81,o),
(177,81,cs)
);
},
{
closed = 1;
nodes = (
(293,-4,o),
(347,87,o),
(342,157,cs),
(338,219,o),
(285,278,o),
(234,325,cs),
(209,348,ls),
(181,374,o),
(152,397,o),
(149,433,cs),
(146,470,o),
(174,488,o),
(209,488,cs),
(241,488,o),
(282,486,o),
(283,471,cs),
(284,456,o),
(208,393,o),
(151,354,cs),
(47,283,o),
(19,197,o),
(23,141,cs),
(27,80,o),
(67,-4,o),
(178,-4,cs)
);
}
);
vertWidth = 0;
width = 393;
},
{
associatedMasterId = m01;
layerId = "17B06B2B-B116-48A4-AC4F-775D82D63F86";
name = background;
shapes = (
{
closed = 1;
nodes = (
(142,325,l),
(57,259,o),
(37,185,o),
(41,132,cs),
(45,74,o),
(79,-4,o),
(176,-4,cs),
(280,-4,o),
(330,84,o),
(326,149,cs),
(321,208,o),
(271,266,o),
(225,307,cs),
(209,321,l)
);
},
{
closed = 1;
nodes = (
(227,238,o),
(272,190,o),
(275,149,cs),
(278,105,o),
(236,45,o),
(179,45,cs),
(129,45,o),
(93,90,o),
(89,139,cs),
(87,178,o),
(104,231,o),
(177,285,c),
(190,273,ls)
);
},
{
closed = 1;
nodes = (
(288,368,o),
(365,431,o),
(361,488,cs),
(357,542,o),
(281,568,o),
(222,568,cs),
(149,568,o),
(65,529,o),
(71,442,cs),
(75,386,o),
(115,350,o),
(142,323,c),
(184,349,l),
(159,371,o),
(125,405,o),
(122,447,cs),
(118,504,o),
(175,518,o),
(216,518,cs),
(252,518,o),
(313,507,o),
(314,488,cs),
(316,462,o),
(213,369,o),
(141,322,c),
(211,312,l)
);
}
);
vertWidth = 0;
width = 500;
},
{
associatedMasterId = m002;
layerId = "3A43D3D9-B7DD-4689-98D8-2B28EB64DF08";
name = background;
shapes = (
{
closed = 1;
nodes = (
(132,344,l),
(39,275,o),
(16,197,o),
(20,141,cs),
(24,80,o),
(64,-4,o),
(175,-4,cs),
(290,-4,o),
(344,87,o),
(339,157,cs),
(335,219,o),
(284,280,o),
(237,321,cs),
(213,341,l)
);
},
{
closed = 0;
nodes = (
(180,249,l),
(193,236,o),
(239,191,o),
(242,148,cs),
(244,114,o),
(215,81,o),
(174,81,cs),
(141,81,o),
(119,108,o),
(117,148,cs),
(115,177,o),
(125,213,o),
(174,254,c)
);
},
{
closed = 0;
nodes = (
(219,341,l),
(199,362,o),
(151,390,o),
(148,433,cs),
(145,470,o),
(171,488,o),
(206,488,cs),
(238,488,o),
(277,486,o),
(278,471,cs),
(279,456,o),
(202,391,o),
(145,355,c)
);
},
{
closed = 0;
nodes = (
(215,287,l),
(293,343,o),
(378,405,o),
(373,472,cs),
(368,539,o),
(278,569,o),
(216,569,cs),
(139,569,o),
(43,526,o),
(50,428,cs),
(55,355,o),
(116,312,o),
(139,292,c)
);
}
);
vertWidth = 0;
width = 500;
}
);
unicode = 56;
},
{
color = 6;
glyphname = nine;
layers = (
{
layerId = m01;
shapes = (
{
closed = 1;
nodes = (
(249,0,o),
(261,8,o),
(263,24,cs),
(319,546,ls),
(320,558,o),
(313,568,o),
(301,568,cs),
(270,568,l),
(213,24,ls),
(211,8,o),
(224,0,o),
(236,0,cs)
);
},
{
closed = 1;
nodes = (
(43,238,o),
(88,214,o),
(129,214,cs),
(173,214,o),
(223,261,o),
(255,323,c),
(266,451,l),
(258,451,l),
(250,347,o),
(166,264,o),
(129,264,cs),
(101,264,o),
(93,295,o),
(93,323,cs),
(93,399,o),
(123,518,o),
(197,518,cs),
(296,518,l),
(301,568,l),
(197,568,ls),
(84,568,o),
(43,425,o),
(43,313,cs)
);
}
);
vertWidth = 0;
width = 354;
},
{
layerId = m002;
shapes = (
{
closed = 1;
nodes = (
(270,-5,o),
(296,10,o),
(299,36,cs),
(352,529,ls),
(355,555,o),
(339,568,o),
(306,568,cs),
(257,568,l),
(202,43,ls),
(199,11,o),
(225,-5,o),
(247,-5,cs)
);
},
{
closed = 1;
nodes = (
(14,242,o),
(86,214,o),
(135,214,cs),
(169,214,o),
(212,241,o),
(238,273,c),
(258,426,l),
(249,426,l),
(244,372,o),
(173,301,o),
(145,301,cs),
(131,301,o),
(122,317,o),
(124,336,cs),
(129,382,o),
(139,482,o),
(198,482,c),
(259,482,l),
(268,568,l),
(215,568,l),
(85,568,o),
(37,451,o),
(25,338,cs)
);
}
);
vertWidth = 0;
width = 390;
}
);
unicode = 57;
},
{
color = 6;
glyphname = zero.sc;
layers = (
{
layerId = m01;
shapes = (
{
closed = 1;
nodes = (
(207,0,o),
(310,157,o),
(302,276,cs),
(298,328,o),
(273,396,o),
(195,396,cs),
(63,396,o),
(25,196,o),
(31,115,cs),
(35,61,o),
(62,-1,o),
(119,-1,cs)
);
},
{
closed = 1;
nodes = (
(100,47,o),
(84,67,o),
(81,111,cs),
(76,193,o),
(116,348,o),
(201,348,cs),
(238,348,o),
(249,315,o),
(252,278,cs),
(260,152,o),
(156,47,o),
(116,47,cs)
);
}
);
vertWidth = 0;
width = 331;
},
{
layerId = m002;
shapes = (
{
closed = 1;
nodes = (
(226,0,o),
(323,152,o),
(315,267,cs),
(312,319,o),
(283,396,o),
(194,396,cs),
(56,396,o),
(21,201,o),
(26,125,cs),
(30,71,o),
(60,-1,o),
(130,-1,cs)
);
},
{
closed = 1;
nodes = (
(121,87,o),
(117,94,o),
(116,121,cs),
(111,191,o),
(141,308,o),
(202,308,cs),
(216,308,o),
(222,296,o),
(224,269,cs),
(231,166,o),
(150,87,o),
(129,87,c)
);
}
);
vertWidth = 0;
width = 352;
}
);
metricLeft = zero;
metricRight = zero;
},
{
color = 6;
glyphname = one.sc;
layers = (
{
layerId = m01;
shapes = (
{
closed = 1;
nodes = (
(160,387,o),
(146,396,o),
(134,396,cs),
(122,396,o),
(109,389,o),
(107,373,cs),
(70,26,ls),
(68,8,o),
(82,0,o),
(95,0,cs),
(105,0,o),
(119,5,o),
(121,21,cs),
(158,371,ls)
);
}
);
vertWidth = 0;
width = 233;
},
{
layerId = m002;
shapes = (
{
closed = 1;
nodes = (
(180,387,o),
(148,396,o),
(132,396,cs),
(116,396,o),
(85,389,o),
(81,355,cs),
(48,43,ls),
(44,8,o),
(76,0,o),
(93,0,cs),
(107,0,o),
(139,5,o),
(142,38,cs),
(176,353,ls)
);
}
);
vertWidth = 0;
width = 219;
}
);
metricLeft = one;
metricRight = one;
},
{
color = 6;
glyphname = two.sc;
layers = (
{
layerId = m01;
shapes = (
{
closed = 1;
nodes = (
(64,34,l),
(98,79,o),
(178,179,o),
(187,190,cs),
(267,295,o),
(272,347,o),
(210,382,cs),
(158,413,o),
(74,389,o),
(33,352,cs),
(15,335,o),
(18,323,o),
(27,313,cs),
(35,305,o),
(52,302,o),
(71,319,cs),
(103,347,o),
(161,358,o),
(189,341,cs),
(217,325,o),
(189,275,o),
(158,234,cs),
(142,213,o),
(77,135,o),
(-6,34,cs),
(-22,15,o),
(-8,0,o),
(13,0,cs),
(30,0,l)
);
},
{
closed = 1;
nodes = (
(196,0,ls),
(216,0,o),
(221,14,o),
(220,24,cs),
(220,34,o),
(213,48,o),
(193,48,cs),
(22,48,l),
(25,0,l)
);
}
);
vertWidth = 0;
width = 271;
},
{
layerId = m002;
shapes = (
{
closed = 1;
nodes = (
(111,38,l),
(142,78,o),
(213,167,o),
(220,176,cs),
(298,278,o),
(304,339,o),
(232,381,cs),
(175,414,o),
(88,389,o),
(46,351,cs),
(20,327,o),
(23,305,o),
(40,285,cs),
(55,269,o),
(90,264,o),
(115,288,cs),
(139,309,o),
(174,315,o),
(185,308,cs),
(194,303,o),
(179,279,o),
(154,244,cs),
(139,225,o),
(82,157,o),
(9,68,cs),
(-17,35,o),
(9,0,o),
(48,0,cs),
(73,0,l)
);
},
{
closed = 1;
nodes = (
(210,0,ls),
(240,0,o),
(256,22,o),
(255,44,cs),
(253,66,o),
(234,88,o),
(204,88,cs),
(58,88,l),
(64,0,l)
);
}
);
vertWidth = 0;
width = 320;
}
);
metricLeft = two;
metricRight = two;
},
{
color = 6;
glyphname = three.sc;
layers = (
{
layerId = m01;
shapes = (
{
closed = 1;
nodes = (
(108,196,o),
(133,203,o),
(152,203,cs),
(187,203,o),
(198,183,o),
(200,157,cs),
(204,93,o),
(135,45,o),
(78,45,cs),
(63,45,o),
(52,48,o),
(40,57,cs),
(19,71,o),
(4,59,o),
(1,54,cs),
(-4,47,o),
(-9,36,o),
(15,18,cs),
(33,4,o),
(57,-3,o),
(81,-3,cs),
(161,-3,o),
(256,68,o),
(250,157,cs),
(246,213,o),
(207,250,o),
(146,250,cs),
(119,250,o),
(87,243,o),
(55,226,c),
(73,180,l)
);
},
{
closed = 1;
nodes = (
(160,239,o),
(238,297,o),
(235,342,cs),
(233,375,o),
(198,396,o),
(156,396,cs),
(123,396,o),
(80,383,o),
(42,357,cs),
(23,344,o),
(27,328,o),
(33,321,c),
(37,311,o),
(55,304,o),
(67,313,cs),
(106,341,o),
(140,351,o),
(163,351,cs),
(179,351,o),
(185,348,o),
(185,342,cs),
(186,324,o),
(104,258,o),
(50,223,cs),
(36,213,o),
(40,198,o),
(43,191,cs),
(47,182,o),
(67,173,o),
(81,183,cs)
);
}
);
vertWidth = 0;
width = 283;
},
{
layerId = m002;
shapes = (
{
closed = 1;
nodes = (
(106,174,o),
(125,181,o),
(140,181,cs),
(153,181,o),
(160,176,o),
(161,159,cs),
(164,119,o),
(119,86,o),
(83,86,cs),
(67,86,o),
(62,90,o),
(54,95,cs),
(29,112,o),
(-3,99,o),
(-12,84,cs),
(-23,66,o),
(-26,43,o),
(5,19,cs),
(25,4,o),
(54,-4,o),
(82,-4,cs),
(165,-4,o),
(261,71,o),
(255,163,cs),
(250,225,o),
(205,264,o),
(137,264,cs),
(105,264,o),
(70,253,o),
(40,239,c),
(99,169,l)
);
},
{
closed = 1;
nodes = (
(168,218,o),
(246,271,o),
(242,325,cs),
(240,364,o),
(201,396,o),
(145,396,cs),
(111,396,o),
(67,382,o),
(31,357,cs),
(4,339,o),
(5,314,o),
(15,296,cs),
(27,274,o),
(57,269,o),
(78,285,cs),
(110,308,o),
(134,322,o),
(146,325,cs),
(153,327,o),
(155,325,o),
(151,318,cs),
(145,307,o),
(89,265,o),
(39,239,cs),
(18,228,o),
(16,204,o),
(24,186,cs),
(34,164,o),
(73,150,o),
(97,168,cs)
);
}
);
vertWidth = 0;
width = 303;
}
);
metricLeft = three;
metricRight = three;
},
{
color = 6;
glyphname = four.sc;
layers = (
{
layerId = m01;
shapes = (
{
closed = 1;
nodes = (
(118,387,o),
(104,396,o),
(91,396,cs),
(81,396,o),
(68,390,o),
(66,374,cs),
(37,116,l),
(37,103,o),
(47,91,o),
(64,91,cs),
(80,91,o),
(87,103,o),
(87,114,c),
(116,369,ls)
);
},
{
closed = 1;
nodes = (
(204,211,o),
(193,221,o),
(182,224,cs),
(169,226,o),
(155,219,o),
(153,202,cs),
(133,29,ls),
(131,11,o),
(143,0,o),
(157,0,cs),
(167,0,o),
(182,6,o),
(183,23,cs),
(202,195,ls)
);
},
{
closed = 1;
nodes = (
(266,91,ls),
(282,91,o),
(291,103,o),
(290,114,cs),
(289,125,o),
(279,135,o),
(263,135,cs),
(54,135,l),
(57,91,l)
);
}
);
vertWidth = 0;
width = 285;
},
{
layerId = m002;
shapes = (
{
closed = 1;
nodes = (
(150,376,o),
(123,396,o),
(97,396,cs),
(76,396,o),
(54,383,o),
(51,358,cs),
(25,129,ls),
(22,103,o),
(46,80,o),
(75,80,cs),
(101,80,o),
(117,99,o),
(119,122,cs),
(146,345,ls)
);
},
{
closed = 1;
nodes = (
(250,218,o),
(229,241,o),
(209,243,cs),
(184,246,o),
(155,235,o),
(152,206,cs),
(134,53,ls),
(131,23,o),
(154,0,o),
(180,0,cs),
(201,0,o),
(226,12,o),
(229,39,cs),
(247,191,ls)
);
},
{
closed = 1;
nodes = (
(274,80,ls),
(301,80,o),
(321,101,o),
(319,124,cs),
(318,147,o),
(295,165,o),
(268,165,cs),
(66,165,l),
(72,80,l)
);
}
);
vertWidth = 0;
width = 336;
}
);
metricLeft = four;
metricRight = four;
},
{
color = 6;
glyphname = five.sc;
layers = (
{
layerId = m01;
shapes = (
{
closed = 1;
nodes = (
(92,200,o),
(111,204,o),
(130,204,cs),
(178,204,o),
(199,174,o),
(201,149,cs),
(203,109,o),
(161,44,o),
(101,44,cs),
(85,44,o),
(73,50,o),
(64,57,cs),
(58,63,o),
(49,65,o),
(43,65,cs),
(31,65,o),
(20,56,o),
(21,44,cs),
(21,38,o),
(26,29,o),
(34,21,c),
(51,7,o),
(75,-4,o),
(104,-4,cs),
(196,-4,o),
(255,89,o),
(251,150,cs),
(247,203,o),
(197,252,o),
(123,252,cs),
(102,252,o),
(82,248,o),
(55,239,c),
(63,192,l)
);
},
{
closed = 1;
nodes = (
(88,395,l),
(82,398,o),
(69,394,o),
(65,389,c),
(59,386,o),
(56,379,o),
(55,372,c),
(38,216,ls),
(36,202,o),
(49,193,o),
(64,193,cs),
(75,193,o),
(88,200,o),
(89,214,cs),
(105,371,l)
);
},
{
closed = 1;
nodes = (
(250,352,ls),
(268,352,o),
(275,362,o),
(274,373,cs),
(273,383,o),
(266,396,o),
(247,396,cs),
(75,396,l),
(78,352,l)
);
}
);
vertWidth = 0;
width = 295;
},
{
layerId = m002;
shapes = (
{
closed = 1;
nodes = (
(94,177,o),
(106,183,o),
(129,180,cs),
(151,177,o),
(160,171,o),
(161,151,cs),
(163,126,o),
(136,85,o),
(106,85,cs),
(87,85,o),
(82,89,o),
(75,93,cs),
(68,98,o),
(56,103,o),
(38,103,cs),
(22,103,o),
(0,85,o),
(1,67,cs),
(2,52,o),
(7,37,o),
(20,26,cs),
(38,10,o),
(68,-4,o),
(102,-4,cs),
(199,-4,o),
(260,92,o),
(255,156,cs),
(251,215,o),
(195,269,o),
(116,269,cs),
(89,269,o),
(60,261,o),
(54,259,c),
(75,172,l)
);
},
{
closed = 1;
nodes = (
(104,390,l),
(82,401,o),
(58,396,o),
(47,385,cs),
(39,378,o),
(33,367,o),
(32,356,cs),
(17,218,ls),
(14,191,o),
(38,171,o),
(66,171,cs),
(87,171,o),
(110,185,o),
(112,208,cs),
(127,355,l)
);
},
{
closed = 1;
nodes = (
(231,311,ls),
(260,311,o),
(277,330,o),
(275,353,cs),
(274,375,o),
(255,396,o),
(225,396,cs),
(79,396,l),
(85,311,l)
);
}
);
vertWidth = 0;
width = 280;
}
);
metricLeft = five;
metricRight = five;
},
{
color = 6;
glyphname = six.sc;
layers = (
{
layerId = m01;
shapes = (
{
closed = 1;
nodes = (
(69,138,o),
(89,191,o),
(131,259,cs),
(147,285,o),
(175,319,o),
(222,353,cs),
(231,358,o),
(234,367,o),
(234,376,cs),
(233,387,o),
(223,396,o),
(209,396,cs),
(204,396,o),
(198,395,o),
(192,391,cs),
(160,372,o),
(108,316,o),
(86,284,cs),
(44,216,o),
(20,142,o),
(27,72,c),
(76,72,l)
);
},
{
closed = 1;
nodes = (
(29,36,o),
(67,-4,o),
(118,-4,cs),
(191,-4,o),
(259,100,o),
(254,175,cs),
(250,223,o),
(220,247,o),
(168,247,cs),
(106,247,o),
(63,212,o),
(42,169,c),
(26,81,l)
);
},
{
closed = 1;
nodes = (
(94,44,o),
(77,58,o),
(74,94,cs),
(71,145,o),
(105,199,o),
(170,199,cs),
(194,199,o),
(204,193,o),
(205,172,cs),
(209,121,o),
(156,44,o),
(114,44,cs)
);
}
);
vertWidth = 0;
width = 304;
},
{
layerId = m002;
shapes = (
{
closed = 1;
nodes = (
(89,133,o),
(109,175,o),
(150,242,cs),
(164,264,o),
(185,286,o),
(224,314,cs),
(237,323,o),
(245,338,o),
(244,354,cs),
(243,376,o),
(221,396,o),
(196,396,cs),
(187,396,o),
(177,393,o),
(167,386,cs),
(134,366,o),
(88,320,o),
(68,290,cs),
(23,219,o),
(5,158,o),
(11,92,c),
(100,92,l)
);
},
{
closed = 1;
nodes = (
(13,47,o),
(57,-4,o),
(118,-4,cs),
(200,-4,o),
(267,105,o),
(261,180,cs),
(257,236,o),
(218,267,o),
(158,267,cs),
(91,267,o),
(45,226,o),
(25,183,c),
(10,97,l)
);
},
{
closed = 1;
nodes = (
(109,84,o),
(103,94,o),
(102,113,cs),
(100,147,o),
(120,179,o),
(154,179,cs),
(166,179,o),
(169,175,o),
(170,163,cs),
(172,133,o),
(139,84,o),
(119,84,cs)
);
}
);
vertWidth = 0;
width = 307;
}
);
metricLeft = six;
metricRight = six;
},
{
color = 6;
glyphname = seven.sc;
layers = (
{
layerId = m01;
shapes = (
{
closed = 1;
nodes = (
(223,383,o),
(215,396,o),
(195,396,cs),
(186,396,o),
(174,389,o),
(173,377,cs),
(135,26,ls),
(133,8,o),
(145,0,o),
(158,0,cs),
(169,0,o),
(183,7,o),
(184,24,cs),
(221,372,l)
);
},
{
closed = 1;
nodes = (
(204,396,l),
(30,396,ls),
(13,396,o),
(5,384,o),
(6,374,cs),
(7,363,o),
(16,351,o),
(33,351,cs),
(207,351,l)
);
}
);
vertWidth = 0;
width = 263;
},
{
layerId = m002;
shapes = (
{
closed = 1;
nodes = (
(240,372,o),
(221,396,o),
(188,396,cs),
(168,396,o),
(147,382,o),
(145,359,cs),
(112,50,ls),
(108,19,o),
(132,0,o),
(158,0,cs),
(179,0,o),
(202,14,o),
(205,40,cs),
(238,348,ls)
);
},
{
closed = 1;
nodes = (
(189,396,l),
(42,396,ls),
(14,396,o),
(-4,376,o),
(-3,354,cs),
(-1,331,o),
(20,310,o),
(48,310,cs),
(195,310,l)
);
}
);
vertWidth = 0;
width = 292;
}
);
metricLeft = seven;
metricRight = seven;
},
{
color = 6;
glyphname = eight.sc;
layers = (
{
layerId = m01;
shapes = (
{
closed = 1;
nodes = (
(94,231,l),
(33,184,o),
(19,132,o),
(21,94,cs),
(24,53,o),
(50,-4,o),
(120,-4,cs),
(195,-4,o),
(232,59,o),
(229,106,cs),
(226,147,o),
(190,187,o),
(158,217,cs),
(145,229,l)
);
},
{
closed = 1;
nodes = (
(149,161,o),
(177,131,o),
(179,106,cs),
(180,79,o),
(155,44,o),
(121,44,cs),
(92,44,o),
(72,68,o),
(70,99,cs),
(68,124,o),
(78,154,o),
(121,187,c),
(124,184,ls)
);
},
{
closed = 1;
nodes = (
(200,246,o),
(255,291,o),
(252,333,cs),
(249,374,o),
(192,396,o),
(150,396,cs),
(98,396,o),
(37,366,o),
(42,302,cs),
(45,259,o),
(79,230,o),
(97,214,c),
(137,239,l),
(120,254,o),
(94,275,o),
(92,306,cs),
(89,339,o),
(121,348,o),
(147,348,cs),
(171,348,o),
(204,340,o),
(205,333,cs),
(206,317,o),
(131,252,o),
(86,227,c),
(145,208,l)
);
}
);
vertWidth = 0;
width = 270;
},
{
layerId = m002;
shapes = (
{
closed = 1;
nodes = (
(105,245,l),
(39,197,o),
(20,145,o),
(23,106,cs),
(26,64,o),
(54,-3,o),
(134,-3,cs),
(215,-3,o),
(253,66,o),
(250,117,cs),
(247,160,o),
(206,197,o),
(176,225,cs),
(158,242,l)
);
},
{
closed = 1;
nodes = (
(127,166,o),
(168,137,o),
(170,117,cs),
(171,99,o),
(151,78,o),
(132,78,cs),
(118,78,o),
(104,89,o),
(102,110,cs),
(101,129,o),
(115,147,o),
(133,161,c),
(132,162,ls)
);
},
{
closed = 1;
nodes = (
(207,223,o),
(274,267,o),
(271,317,cs),
(267,369,o),
(202,396,o),
(157,396,cs),
(103,396,o),
(36,361,o),
(41,290,cs),
(44,243,o),
(81,212,o),
(110,186,c),
(176,225,l),
(162,248,o),
(122,266,o),
(120,294,cs),
(119,308,o),
(136,325,o),
(156,325,cs),
(171,325,o),
(189,322,o),
(190,316,cs),
(190,309,o),
(162,290,o),
(80,225,c),
(156,187,l)
);
}
);
vertWidth = 0;
width = 288;
}
);
metricLeft = eight;
metricRight = eight;
},
{
color = 6;
glyphname = nine.sc;
layers = (
{
layerId = m01;
shapes = (
{
closed = 1;
nodes = (
(230,346,l),
(209,297,o),
(142,191,o),
(111,191,cs),
(73,191,o),
(101,291,o),
(115,315,cs),
(132,343,o),
(163,348,o),
(185,348,c),
(242,348,l),
(247,396,l),
(181,396,l),
(140,396,o),
(99,383,o),
(74,343,cs),
(39,282,o),
(13,143,o),
(111,143,cs),
(157,143,o),
(205,195,o),
(235,250,c),
(242,346,l)
);
},
{
closed = 1;
nodes = (
(285,387,o),
(275,396,o),
(263,396,cs),
(235,396,l),
(196,23,ls),
(194,7,o),
(208,0,o),
(221,0,cs),
(232,0,o),
(244,6,o),
(246,21,cs),
(283,372,ls)
);
}
);
vertWidth = 0;
width = 318;
},
{
layerId = m002;
shapes = (
{
closed = 1;
nodes = (
(198,315,l),
(182,285,o),
(153,248,o),
(141,236,cs),
(109,197,o),
(97,261,o),
(124,304,cs),
(134,320,o),
(162,318,o),
(172,318,cs),
(206,318,l),
(214,396,l),
(172,396,l),
(131,396,o),
(79,386,o),
(51,343,cs),
(16,279,o),
(0,135,o),
(105,135,cs),
(134,135,o),
(165,155,o),
(192,183,c),
(206,315,l)
);
},
{
closed = 1;
nodes = (
(293,376,o),
(270,396,o),
(245,396,cs),
(202,396,l),
(165,46,ls),
(162,15,o),
(188,0,o),
(211,0,cs),
(231,0,o),
(253,13,o),
(256,37,cs),
(290,348,ls)
);
}
);
vertWidth = 0;
width = 328;
}
);
metricLeft = nine;
metricRight = nine;
},
{
color = 6;
glyphname = .notdef;
layers = (
{
layerId = m01;
shapes = (
{
closed = 1;
nodes = (
(464,0,o),
(474,12,o),
(476,27,cs),
(545,673,ls),
(547,689,o),
(539,700,o),
(525,700,cs),
(129,700,ls),
(112,700,o),
(102,689,o),
(100,673,cs),
(31,27,ls),
(29,12,o),
(38,0,o),
(57,0,cs),
(453,0,ls)
);
},
{
closed = 1;
nodes = (
(149,655,l),
(492,655,l),
(428,45,l),
(84,45,l)
);
}
);
vertWidth = 0;
width = 576;
},
{
layerId = m002;
shapes = (
{
closed = 1;
nodes = (
(505,0,o),
(526,26,o),
(529,49,cs),
(593,659,ls),
(596,687,o),
(580,700,o),
(543,700,c),
(163,700,l),
(135,700,o),
(115,687,o),
(112,659,cs),
(48,49,ls),
(45,21,o),
(60,0,o),
(99,0,cs),
(480,0,ls)
);
},
{
closed = 1;
nodes = (
(209,605,l),
(486,605,l),
(431,95,l),
(154,95,l)
);
}
);
vertWidth = 0;
width = 639;
}
);
},
{
color = 6;
glyphname = period;
kernLeft = period_left;
kernRight = period_right;
layers = (
{
layerId = m01;
shapes = (
{
closed = 1;
nodes = (
(71,-6,o),
(88,14,o),
(88,33,cs),
(88,54,o),
(71,70,o),
(51,70,cs),
(33,70,o),
(14,54,o),
(14,33,cs),
(14,14,o),
(33,-6,o),
(51,-6,cs)
);
}
);
vertWidth = 0;
width = 164;
},
{
layerId = m002;
shapes = (
{
closed = 1;
nodes = (
(116,-12,o),
(142,14,o),
(142,44,cs),
(142,73,o),
(116,98,o),
(87,98,cs),
(56,98,o),
(32,73,o),
(32,44,cs),
(32,15,o),
(56,-12,o),
(87,-12,cs)
);
}
);
vertWidth = 0;
width = 231;
}
);
unicode = 46;
},
{
color = 6;
glyphname = comma;
kernLeft = period_left;
kernRight = period_right;
layers = (
{
layerId = m01;
shapes = (
{
closed = 1;
nodes = (
(54,-101,o),
(64,-91,o),
(66,-71,cs),
(76,18,ls),
(78,39,o),
(71,50,o),
(54,50,cs),
(37,50,o),
(28,40,o),
(26,21,cs),
(16,-71,ls),
(14,-91,o),
(21,-101,o),
(37,-101,cs)
);
}
);
vertWidth = 0;
width = 164;
},
{
layerId = m002;
shapes = (
{
closed = 1;
nodes = (
(88,-105,o),
(117,-90,o),
(120,-60,cs),
(131,39,ls),
(134,71,o),
(112,91,o),
(84,94,cs),
(59,97,o),
(33,83,o),
(30,54,cs),
(20,-45,ls),
(17,-76,o),
(39,-97,o),
(64,-101,cs)
);
}
);
vertWidth = 0;
width = 222;
}
);
unicode = 44;
},
{
color = 6;
glyphname = colon;
kernLeft = colon_left;
kernRight = colon_right;
layers = (
{
layerId = m01;
shapes = (
{
closed = 1;
nodes = (
(71,-6,o),
(88,14,o),
(88,33,cs),
(88,54,o),
(71,70,o),
(51,70,cs),
(33,70,o),
(14,54,o),
(14,33,cs),
(14,14,o),
(33,-6,o),
(51,-6,cs)
);
},
{
closed = 1;
nodes = (
(101,220,o),
(118,240,o),
(118,259,cs),
(118,280,o),
(101,296,o),
(81,296,cs),
(63,296,o),
(44,280,o),
(44,259,cs),
(44,240,o),
(63,220,o),
(81,220,cs)
);
}
);
vertWidth = 0;
width = 165;
},
{
layerId = m002;
shapes = (
{
closed = 1;
nodes = (
(116,-12,o),
(142,14,o),
(142,44,cs),
(142,74,o),
(116,98,o),
(86,99,cs),
(55,99,o),
(32,74,o),
(32,45,cs),
(32,16,o),
(55,-11,o),
(86,-12,cs)
);
},
{
closed = 1;
nodes = (
(152,215,o),
(178,242,o),
(178,272,cs),
(178,301,o),
(152,325,o),
(123,326,cs),
(92,326,o),
(68,300,o),
(68,272,cs),
(68,244,o),
(92,216,o),
(122,215,cs)
);
}
);
vertWidth = 0;
width = 232;
}
);
unicode = 58;
},
{
color = 6;
glyphname = semicolon;
kernLeft = colon_left;
kernRight = colon_right;
layers = (
{
layerId = m01;
shapes = (
{
closed = 1;
nodes = (
(54,-101,o),
(64,-91,o),
(66,-71,cs),
(76,18,ls),
(78,39,o),
(71,50,o),
(54,50,cs),
(37,50,o),
(28,40,o),
(26,21,cs),
(16,-71,ls),
(14,-91,o),
(21,-101,o),
(37,-101,cs)
);
},
{
closed = 1;
nodes = (
(101,220,o),
(118,240,o),
(118,259,cs),
(118,280,o),
(101,296,o),
(81,296,cs),
(63,296,o),
(44,280,o),
(44,259,cs),
(44,240,o),
(63,220,o),
(81,220,cs)
);
}
);
vertWidth = 0;
width = 165;
},
{
layerId = m002;
shapes = (
{
closed = 1;
nodes = (
(103,-104,o),
(128,-89,o),
(131,-60,cs),
(142,39,ls),
(146,71,o),
(123,91,o),
(95,94,cs),
(70,97,o),
(44,83,o),
(41,54,cs),
(31,-45,ls),
(27,-78,o),
(53,-100,o),
(80,-102,cs)
);
},
{
closed = 1;
nodes = (
(152,215,o),
(178,242,o),
(178,272,cs),
(178,301,o),
(152,325,o),
(123,326,cs),
(92,326,o),
(68,300,o),
(68,272,cs),
(68,244,o),
(92,216,o),
(122,215,cs)
);
}
);
vertWidth = 0;
width = 231;
}
);
unicode = 59;
},
{
color = 6;
glyphname = ellipsis;
layers = (
{
layerId = m01;
shapes = (
{
closed = 1;
nodes = (
(288,-30,o),
(305,-12,o),
(303,9,cs),
(302,29,o),
(283,46,o),
(263,46,cs),
(242,46,o),
(227,29,o),
(228,9,cs),
(230,-11,o),
(247,-30,o),
(268,-30,cs)
);
},
{
closed = 1;
nodes = (
(68,-30,o),
(85,-12,o),
(83,9,cs),
(82,29,o),
(63,46,o),
(43,46,cs),
(22,46,o),
(7,29,o),
(8,9,cs),
(10,-11,o),
(27,-30,o),
(48,-30,cs)
);
},
{
closed = 1;
nodes = (
(178,-30,o),
(195,-12,o),
(193,9,cs),
(192,29,o),
(173,46,o),
(153,46,cs),
(132,46,o),
(117,29,o),
(118,9,cs),
(120,-11,o),
(137,-30,o),
(158,-30,cs)
);
}
);
vertWidth = 0;
width = 384;
},
{
layerId = m002;
shapes = (
{
closed = 1;
nodes = (
(405,-31,o),
(430,-6,o),
(428,25,cs),
(426,56,o),
(397,79,o),
(368,79,cs),
(340,79,o),
(316,57,o),
(318,25,cs),
(320,-6,o),
(348,-31,o),
(377,-31,cs)
);
},
{
closed = 1;
nodes = (
(115,-31,o),
(140,-6,o),
(138,25,cs),
(136,56,o),
(107,79,o),
(78,79,cs),
(50,79,o),
(26,57,o),
(28,25,cs),
(30,-6,o),
(58,-31,o),
(87,-31,cs)
);
},
{
closed = 1;
nodes = (
(260,-30,o),
(285,-6,o),
(283,25,cs),
(281,56,o),
(252,79,o),
(224,79,cs),
(195,79,o),
(171,56,o),
(173,25,cs),
(175,-6,o),
(203,-30,o),
(232,-30,cs)
);
}
);
vertWidth = 0;
width = 522;
}
);
unicode = 8230;
},
{
color = 6;
glyphname = exclam;
layers = (
{
layerId = m01;
shapes = (
{
closed = 1;
nodes = (
(101,174,o),
(115,183,o),
(117,202,cs),
(163,629,ls),
(164,643,o),
(154,650,o),
(142,650,cs),
(129,650,o),
(114,643,o),
(112,629,cs),
(66,202,ls),
(64,185,o),
(77,176,o),
(89,175,cs)
);
},
{
closed = 1;
nodes = (
(95,-9,o),
(113,10,o),
(111,30,cs),
(110,50,o),
(90,68,o),
(68,68,cs),
(47,68,o),
(33,49,o),
(34,30,cs),
(35,11,o),
(53,-9,o),
(74,-9,cs)
);
}
);
vertWidth = 0;
width = 223;
},
{
layerId = m002;
shapes = (
{
closed = 1;
nodes = (
(142,173,o),
(170,191,o),
(173,220,cs),
(215,605,ls),
(218,632,o),
(190,650,o),
(166,650,cs),
(144,650,o),
(116,635,o),
(113,611,cs),
(71,226,ls),
(68,197,o),
(94,177,o),
(119,175,cs)
);
},
{
closed = 1;
nodes = (
(134,-11,o),
(163,17,o),
(164,47,cs),
(165,78,o),
(135,106,o),
(103,106,cs),
(70,106,o),
(47,76,o),
(47,47,cs),
(47,19,o),
(69,-11,o),
(102,-11,cs)
);
}
);
vertWidth = 0;
width = 270;
}
);
unicode = 33;
},
{
color = 6;
glyphname = exclamdown;
layers = (
{
layerId = m01;
shapes = (
{
closed = 1;
nodes = (
(132,441,o),
(120,450,o),
(107,451,cs),
(95,452,o),
(81,443,o),
(79,424,cs),
(34,21,ls),
(32,6,o),
(44,-1,o),
(57,0,cs),
(69,0,o),
(83,7,o),
(85,21,cs),
(130,424,ls)
);
},
{
closed = 1;
nodes = (
(148,585,o),
(160,601,o),
(159,617,cs),
(158,633,o),
(144,650,o),
(126,650,cs),
(108,650,o),
(93,634,o),
(94,617,cs),
(95,600,o),
(112,585,o),
(130,585,cs)
);
}
);
vertWidth = 0;
width = 196;
},
{
layerId = m002;
shapes = (
{
closed = 1;
nodes = (
(196,433,o),
(169,450,o),
(145,452,cs),
(121,454,o),
(94,437,o),
(92,407,cs),
(53,47,ls),
(50,17,o),
(76,-2,o),
(104,0,cs),
(126,0,o),
(151,14,o),
(153,39,cs),
(192,399,ls)
);
},
{
closed = 1;
nodes = (
(198,540,o),
(218,566,o),
(216,594,cs),
(214,623,o),
(191,650,o),
(160,650,cs),
(130,650,o),
(104,623,o),
(106,594,cs),
(108,566,o),
(137,540,o),
(167,540,cs)
);
}
);
vertWidth = 0;
width = 270;
}
);
unicode = 161;
},
{
color = 6;
glyphname = question;
layers = (
{
layerId = m01;
shapes = (
{
closed = 1;
nodes = (
(89,453,o),
(108,462,o),
(110,484,cs),
(116,541,o),
(150,604,o),
(235,604,cs),
(301,604,o),
(356,569,o),
(350,496,cs),
(343,419,o),
(306,322,o),
(168,322,c),
(168,272,l),
(324,272,o),
(386,365,o),
(399,488,cs),
(409,583,o),
(336,655,o),
(245,654,cs),
(130,654,o),
(71,589,o),
(61,494,cs),
(58,472,o),
(64,459,o),
(75,456,cs)
);
},
{
closed = 1;
nodes = (
(164,-6,o),
(184,12,o),
(184,32,cs),
(184,55,o),
(165,74,o),
(142,74,cs),
(121,74,o),
(104,54,o),
(104,32,cs),
(104,13,o),
(121,-6,o),
(142,-6,cs)
);
},
{
closed = 1;
nodes = (
(169,173,o),
(182,180,o),
(185,202,c),
(196,303,l),
(168,322,l),
(157,322,o),
(146,313,o),
(145,302,cs),
(134,201,ls),
(133,187,o),
(144,177,o),
(156,174,cs)
);
}
);
vertWidth = 0;
width = 420;
},
{
layerId = m002;
shapes = (
{
closed = 1;
nodes = (
(104,427,o),
(138,443,o),
(141,476,cs),
(145,524,o),
(167,565,o),
(229,565,cs),
(280,565,o),
(312,545,o),
(307,504,cs),
(303,459,o),
(293,355,o),
(158,356,c),
(142,267,l),
(318,256,o),
(386,353,o),
(403,492,cs),
(412,577,o),
(332,654,o),
(235,654,cs),
(118,654,o),
(56,586,o),
(46,493,cs),
(41,458,o),
(57,439,o),
(79,434,cs)
);
},
{
closed = 1;
nodes = (
(158,-11,o),
(187,17,o),
(188,47,cs),
(189,78,o),
(159,106,o),
(127,106,cs),
(94,106,o),
(71,76,o),
(71,47,cs),
(71,19,o),
(93,-11,o),
(126,-11,cs)
);
},
{
closed = 1;
nodes = (
(173,171,o),
(195,193,o),
(199,225,c),
(209,313,l),
(158,356,l),
(137,356,o),
(116,342,o),
(114,321,cs),
(104,233,ls),
(101,207,o),
(117,182,o),
(147,176,cs)
);
}
);
vertWidth = 0;
width = 419;
},
{
associatedMasterId = m01;
layerId = "F388DBBC-EFA2-43ED-88E3-B038154D8BDF";
name = background;
shapes = (
{
closed = 1;
nodes = (
(343,272,o),
(405,364,o),
(420,503,cs),
(428,582,o),
(355,654,o),
(264,654,cs),
(149,654,o),
(90,590,o),
(79,495,cs),
(77,473,o),
(83,460,o),
(94,457,cs),
(107,454,o),
(127,463,o),
(129,485,cs),
(135,542,o),
(169,604,o),
(254,604,cs),
(320,604,o),
(376,568,o),
(370,507,cs),
(365,461,o),
(350,322,o),
(188,322,c),
(187,272,l)
);
},
{
closed = 1;
nodes = (
(183,-5,o),
(201,12,o),
(200,31,cs),
(197,53,o),
(179,71,o),
(156,71,cs),
(136,71,o),
(121,52,o),
(123,31,cs),
(124,14,o),
(142,-5,o),
(162,-5,cs)
);
},
{
closed = 1;
nodes = (
(214,310,o),
(206,322,o),
(186,322,cs),
(175,322,o),
(164,314,o),
(163,303,cs),
(152,202,ls),
(151,188,o),
(162,178,o),
(174,175,cs),
(187,173,o),
(200,180,o),
(203,202,cs),
(214,303,ls)
);
}
);
vertWidth = 0;
width = 500;
}
);
unicode = 63;
},
{
color = 6;
glyphname = questiondown;
layers = (
{
layerId = m01;
shapes = (
{
closed = 1;
nodes = (
(119,382,o),
(58,290,o),
(42,151,cs),
(34,72,o),
(107,0,o),
(198,0,cs),
(313,0,o),
(373,64,o),
(383,159,cs),
(385,181,o),
(379,194,o),
(368,197,cs),
(355,200,o),
(336,191,o),
(333,169,cs),
(327,112,o),
(294,50,o),
(209,50,cs),
(143,50,o),
(86,86,o),
(93,147,cs),
(98,193,o),
(112,332,o),
(274,332,c),
(275,382,l)
);
},
{
closed = 1;
nodes = (
(311,466,o),
(301,476,o),
(289,479,cs),
(275,481,o),
(262,474,o),
(259,452,cs),
(248,351,ls),
(248,344,o),
(256,332,o),
(276,332,cs),
(287,332,o),
(298,340,o),
(299,351,cs),
(310,452,ls)
);
},
{
closed = 1;
nodes = (
(323,585,o),
(336,601,o),
(335,619,cs),
(334,634,o),
(319,650,o),
(302,650,cs),
(284,650,o),
(269,635,o),
(270,619,cs),
(271,600,o),
(287,585,o),
(306,585,cs)
);
}
);
vertWidth = 0;
width = 450;
},
{
layerId = m002;
shapes = (
{
closed = 1;
nodes = (
(150,398,o),
(76,296,o),
(61,160,cs),
(53,76,o),
(129,1,o),
(224,1,cs),
(339,1,o),
(406,67,o),
(417,159,cs),
(419,194,o),
(405,212,o),
(384,217,cs),
(359,224,o),
(325,208,o),
(322,175,cs),
(318,128,o),
(296,89,o),
(236,89,cs),
(186,89,o),
(156,108,o),
(161,148,cs),
(165,192,o),
(181,300,o),
(303,289,c),
(325,386,l)
);
},
{
closed = 1;
nodes = (
(363,454,o),
(343,473,o),
(319,479,cs),
(292,484,o),
(263,470,o),
(260,435,cs),
(249,333,ls),
(246,310,o),
(272,289,o),
(303,289,cs),
(325,289,o),
(347,304,o),
(349,326,cs),
(360,428,ls)
);
},
{
closed = 1;
nodes = (
(362,540,o),
(382,568,o),
(380,597,cs),
(378,625,o),
(353,650,o),
(323,650,cs),
(292,650,o),
(268,625,o),
(270,598,cs),
(272,568,o),
(299,540,o),
(331,540,cs)
);
}
);
vertWidth = 0;
width = 486;
}
);
unicode = 191;
},
{
color = 6;
glyphname = periodcentered;
layers = (
{
layerId = m01;
shapes = (
{
closed = 1;
nodes = (
(85,138,o),
(102,157,o),
(101,177,cs),
(99,198,o),
(80,214,o),
(60,214,cs),
(39,214,o),
(24,197,o),
(26,177,cs),
(27,158,o),
(44,138,o),
(65,138,cs)
);
}
);
vertWidth = 0;
width = 164;
},
{
layerId = m002;
shapes = (
{
closed = 1;
nodes = (
(131,121,o),
(156,149,o),
(154,178,cs),
(151,209,o),
(123,231,o),
(94,231,cs),
(63,231,o),
(42,207,o),
(44,178,cs),
(45,151,o),
(71,121,o),
(102,121,cs)
);
}
);
vertWidth = 0;
width = 231;
}
);
unicode = 183;
},
{
color = 6;
glyphname = bullet;
layers = (
{
layerId = m01;
shapes = (
{
closed = 1;
nodes = (
(164,278,o),
(198,314,o),
(195,355,cs),
(192,396,o),
(154,430,o),
(114,430,cs),
(72,430,o),
(42,395,o),
(45,355,cs),
(48,316,o),
(82,278,o),
(124,278,cs)
);
}
);
vertWidth = 0;
width = 240;
},
{
layerId = m002;
shapes = (
{
closed = 1;
nodes = (
(221,254,o),
(267,301,o),
(263,355,cs),
(259,409,o),
(208,454,o),
(154,454,cs),
(99,454,o),
(59,408,o),
(63,355,cs),
(67,304,o),
(111,254,o),
(167,254,cs)
);
}
);
vertWidth = 0;
width = 322;
}
);
unicode = 8226;
},
